<svg id="Icons" fill="#007f7f" height="512" viewBox="0 0 512 512" width="512" xmlns="http://www.w3.org/2000/svg"><path d="m432.11 461.63h-42.34l30.41-29.53a43.21 43.21 0 0 0 11-46.33c-4.13-11.3-9.7-33.18-15.09-54.33-6.4-25.08-12.43-48.77-16.7-57.74-6-12.52-17.57-22.89-34.51-30.82-12.88-6-28.85-10.5-45-12.58h-.24c-45.78-4.43-89.62-4.43-130.29 0h-.15c-16.12 2.08-32.09 6.55-45 12.58-16.94 7.93-28.55 18.3-34.51 30.82-4.22 8.86-10 32.14-16.11 56.79-5.28 21.31-10.75 43.34-14.91 54.75a43.08 43.08 0 0 0 11.66 47l31.69 29.41h-42.13a7.5 7.5 0 1 0 0 15h352.22a7.5 7.5 0 0 0 0-15zm-282.62 0-11.09-132.4h235.2l-11.09 132.4zm236.32-181.48c3.64 7.64 9.78 31.71 15.71 55 5.48 21.52 11.15 43.76 15.54 55.77a28.23 28.23 0 0 1 -7.2 30.3l-.09.09-31.38 30.47 10.84-129.41a7.52 7.52 0 0 0 -7.48-8.13h-98.7l-6.25-40 12.77-31.24q14.12.79 28.51 2.17c40.14 5.23 61.31 21.49 67.73 34.98zm-112.15-37.84-11.53 28.18a7.49 7.49 0 0 0 -.47 4l6.21 39.74h-23.74l6.21-39.74a7.49 7.49 0 0 0 -.47-4l-11.6-28.36q17.4-.42 35.39.18zm-173.22 178.79a28.13 28.13 0 0 1 -7.66-30.71c4.45-12.16 10-34.59 15.39-56.29 5.67-22.84 11.53-46.46 15.09-54 6.43-13.5 27.61-29.76 67.79-35q15.31-1.68 31.25-2.48l12.9 31.53-6.25 40h-98.7a7.52 7.52 0 0 0 -7.48 8.13l10.85 129.55-33.09-30.73z"/><path d="m269.38 415.83h-26.76a7.5 7.5 0 0 0 0 15h26.76a7.5 7.5 0 0 0 0-15z"/><path d="m256 404.82a10 10 0 1 0 -10-10 10 10 0 0 0 10 10z"/><path d="m254.92 216.75c22.65 0 44.48-11.55 61.46-32.52 15.7-19.41 24.71-43.84 24.71-67 0-46.07-37-80.81-86.17-80.81s-86.17 34.74-86.17 80.81c0 23.21 9 47.64 24.72 67 16.97 20.97 38.8 32.52 61.45 32.52zm49.8-42c-14.08 17.39-31.76 27-49.8 27s-35.72-9.57-49.8-27c-12.05-14.86-19.71-33.81-21.12-51.75a109.83 109.83 0 0 0 30.83 4.77c22.75 0 42.61-8.69 60-26.17 14 12.13 29.88 16.12 51.18 13 0 .84.06 1.67.06 2.52.02 19.6-7.97 41.14-21.35 57.67zm-100.39-105c13.11-11.87 31.08-18.42 50.59-18.42s37.48 6.55 50.59 18.42a61.94 61.94 0 0 1 18.32 30c-19.29 2.83-31.84-1.28-43.8-14a7.49 7.49 0 0 0 -11.11.19c-22.71 26-49.62 32.83-84.47 21.47a62.27 62.27 0 0 1 19.88-37.62z"/></svg>