<?xml version="1.0" encoding="iso-8859-1"?>
<!-- Generator: Adobe Illustrator 19.0.0, SVG Export Plug-In . SVG Version: 6.00 Build 0)  -->
<svg version="1.1" fill="#cc0000" id="Capa_1" xmlns="http://www.w3.org/2000/svg" xmlns:xlink="http://www.w3.org/1999/xlink" x="0px" y="0px"
	 viewBox="0 0 440 440" style="enable-background:new 0 0 440 440;" xml:space="preserve">
<g>
	<g>
		<path d="M433,430.029V265.893c0.038-16.472-13.285-29.855-29.757-29.893c-0.035,0-0.07,0-0.105,0H313v-10.3
			c4.22,3.375,10.343,2.857,13.936-1.179l25.4-28.955c3.635-4.085,3.27-10.342-0.815-13.977c-0.078-0.07-0.158-0.138-0.238-0.205
			L230,77.608V62h53.153c5.532-0.01,10.009-4.503,9.999-10.035c-0.004-2.185-0.722-4.308-2.045-6.047l-11.381-14.943l11.381-14.941
			c3.343-4.383,2.5-10.646-1.883-13.989c-1.744-1.33-3.878-2.049-6.071-2.045h-63C214.606-0.025,210.075,4.425,210,9.971V75.8
			L86.741,181.385c-4.174,3.618-4.632,9.932-1.023,14.114l24.894,28.955c1.804,2.203,4.5,3.481,7.347,3.482
			c2.215,0,5.041-0.739,6.041-2.234V236H36.862C20.39,235.98,7.02,249.316,7,265.788c0,0.035,0,0.07,0,0.105v164.136
			c-0.062,5.445,4.302,9.909,9.746,9.97c0.039,0,0.077,0.001,0.116,0.001h406.276c5.445,0.002,9.861-4.41,9.863-9.855
			C433.001,430.106,433,430.068,433,430.029z M230,20h32.963l-3.763,4.925c-2.727,3.583-2.727,8.545,0,12.128L262.963,42H230V20z
			 M124,420H27V265.893c-0.051-5.412,4.294-9.841,9.706-9.893c0.052,0,0.104-0.001,0.156,0H124V420z M119.302,203.864
			l-11.866-13.802L219.1,94.468L330.687,190l-12.166,13.9L225.6,124.378c-3.737-3.198-9.244-3.204-12.988-0.014L119.302,203.864z
			 M243,420h-48v-71h48V420z M293,420h-30v-81.31c0.194-5.155-3.827-9.491-8.981-9.685c-0.18-0.007-0.36-0.008-0.54-0.005h-68.768
			c-5.245-0.118-9.593,4.039-9.711,9.285c-0.003,0.135-0.003,0.27,0,0.405V420h-31V208.676l74.711-63.551L293,208.6V420z
			 M413,265.893V420H313V256h90.138c5.412-0.034,9.828,4.325,9.862,9.737C413.001,265.789,413.001,265.841,413,265.893z"/>
	</g>
</g>
<g>
	<g>
		<path d="M253.479,268h-69.22c-5.523,0-10,4.477-10,10c0,5.523,4.477,10,10,10h69.22c5.523,0,10-4.477,10-10
			C263.479,272.477,259.002,268,253.479,268z"/>
	</g>
</g>
<g>
	<g>
		<path d="M55,283.85c-5.523,0-10,4.477-10,10v17.192c0,5.523,4.477,10,10,10s10-4.477,10-10V293.85
			C65,288.327,60.523,283.85,55,283.85z"/>
	</g>
</g>
<g>
	<g>
		<path d="M96,283.85c-5.523,0-10,4.477-10,10v17.192c0,5.523,4.477,10,10,10s10-4.477,10-10V293.85
			C106,288.327,101.523,283.85,96,283.85z"/>
	</g>
</g>
<g>
	<g>
		<path d="M55,350.808c-5.523,0-10,4.477-10,10V378c0,5.523,4.477,10,10,10s10-4.477,10-10v-17.192
			C65,355.285,60.523,350.808,55,350.808z"/>
	</g>
</g>
<g>
	<g>
		<path d="M96,350.808c-5.523,0-10,4.477-10,10V378c0,5.523,4.477,10,10,10s10-4.477,10-10v-17.192
			C106,355.285,101.523,350.808,96,350.808z"/>
	</g>
</g>
<g>
	<g>
		<path d="M344,283.85c-5.523,0-10,4.477-10,10v17.192c0,5.523,4.477,10,10,10c5.523,0,10-4.477,10-10V293.85
			C354,288.327,349.523,283.85,344,283.85z"/>
	</g>
</g>
<g>
	<g>
		<path d="M384,283.85c-5.523,0-10,4.477-10,10v17.192c0,5.523,4.477,10,10,10c5.523,0,10-4.477,10-10V293.85
			C394,288.327,389.523,283.85,384,283.85z"/>
	</g>
</g>
<g>
	<g>
		<path d="M344,350.808c-5.523,0-10,4.477-10,10V378c0,5.523,4.477,10,10,10c5.523,0,10-4.477,10-10v-17.192
			C354,355.285,349.523,350.808,344,350.808z"/>
	</g>
</g>
<g>
	<g>
		<path d="M384,350.808c-5.523,0-10,4.477-10,10V378c0,5.523,4.477,10,10,10c5.523,0,10-4.477,10-10v-17.192
			C394,355.285,389.523,350.808,384,350.808z"/>
	</g>
</g>
<g>
</g>
<g>
</g>
<g>
</g>
<g>
</g>
<g>
</g>
<g>
</g>
<g>
</g>
<g>
</g>
<g>
</g>
<g>
</g>
<g>
</g>
<g>
</g>
<g>
</g>
<g>
</g>
<g>
</g>
</svg>
