<svg id="&#x421;&#x43B;&#x43E;&#x439;_1" height="512" viewBox="0 0 591.92 591.92" width="512" xmlns="http://www.w3.org/2000/svg"><g fill="#008000" transform="translate(-99.97 -53.73)"><path d="m182.57 437.75a15 15 0 0 1 -15-15v-107a15 15 0 0 1 30 0v107a15 15 0 0 1 -15 15z"/><path d="m250.16 198.83a72.55 72.55 0 1 1 72.55-72.55 72.63 72.63 0 0 1 -72.55 72.55zm0-115.1a42.55 42.55 0 1 0 42.55 42.55 42.6 42.6 0 0 0 -42.55-42.55z"/><path d="m486.69 311.05a15 15 0 0 1 -11.19-25l81.5-91.36a15 15 0 0 1 22.39 20l-81.5 91.31a15 15 0 0 1 -11.2 5.05z"/><path d="m646.89 446.5h-269.13a15 15 0 0 1 0-30h269.13a15 15 0 0 0 15-15v-302.43a15 15 0 0 0 -15-15h-294.26a15 15 0 0 1 0-30h294.26a45 45 0 0 1 45 45v302.43a45 45 0 0 1 -45 45z"/><path d="m250.16 645.66h-67.59a15 15 0 0 1 -15-15v-207.91a15 15 0 0 1 30 0v192.91h52.59a15 15 0 1 1 0 30z"/><path d="m317.76 645.66h-67.6a15 15 0 0 1 -15-15v-199.16a15 15 0 0 1 30 0v184.16h37.6v-283.6a31.47 31.47 0 0 1 53.73-22.25l23.51 23.48a18.67 18.67 0 0 0 13.29 5.5h69.81a18.8 18.8 0 0 0 18.8-19.19c-.21-10.15-8.94-18.4-19.46-18.4h-55.19a15 15 0 0 1 -10.6-4.4l-32.29-32.28a62.79 62.79 0 0 0 -44.72-18.52h-11.64l-22.67 18.85a55 55 0 0 1 -70.31 0l-22.69-18.85h-9.76a52.66 52.66 0 0 0 -52.6 52.6 15 15 0 0 1 -30 0 82.69 82.69 0 0 1 82.6-82.6h15.18a15 15 0 0 1 9.59 3.47l26.84 22.31a25 25 0 0 0 32 0l26.82-22.32a15 15 0 0 1 9.59-3.47h17.07a92.62 92.62 0 0 1 65.93 27.31l27.9 27.9h49c26.74 0 48.92 21.44 49.45 47.8a48.8 48.8 0 0 1 -48.79 49.79h-69.9a48.46 48.46 0 0 1 -34.5-14.29l-23.47-23.5a1.5 1.5 0 0 0 -1.49-.37 1.47 1.47 0 0 0 -1 1.4v298.6a15 15 0 0 1 -15.03 15.03z"/><path d="m148.77 471.55a48.85 48.85 0 0 1 -48.8-48.8v-124.16a15 15 0 0 1 30 0v124.16a18.8 18.8 0 1 0 37.6 0 15 15 0 0 1 30 0 48.85 48.85 0 0 1 -48.8 48.8z"/><path d="m572 645.66h-457a15 15 0 0 1 0-30h457a15 15 0 0 1 0 30z"/><path d="m490.4 219.68h-77.77a15 15 0 0 1 0-30h77.77a15 15 0 0 1 0 30z"/><path d="m568.17 151.87h-155.54a15 15 0 0 1 0-30h155.54a15 15 0 0 1 0 30z"/></g></svg>