<svg id="Capa_1" enable-background="new 0 0 512 512" height="512" viewBox="0 0 512 512" width="512" xmlns="http://www.w3.org/2000/svg"><g><g><g><path d="m457.066 407c27.684-39.686 43.934-87.942 43.934-140 0-135.31-109.69-245-245-245s-245 109.69-245 245c0 52.058 16.25 100.314 43.934 140z" fill="#c4e2ff"/></g></g><g fill="#fd4755"><path d="m345 232h3c9.878 0 18.782 4.238 25 10.987v-35.03c0-11.046-8.954-20-20-20h-8z"/><path d="m164 232h3v-44.043h-8c-11.046 0-20 8.954-20 20v35.03c6.218-6.749 15.122-10.987 25-10.987z"/></g><path d="m348 231h-184c-19.33 0-35 15.67-35 35v56h29c2.206 0 4 1.794 4 4v81h47v-19c0-2.206 1.794-4 4-4h18.366v-24.548c0-4.297 3.497-7.793 7.794-7.793h58.84v-81.659c0-2.206 1.794-4 4-4h81c0-19.33-15.67-35-35-35z" fill="#0172fb"/><path d="m158 322c2.206 0 4 1.794 4 4v81h47v-19c0-2.206 1.794-4 4-4h18.366v-18.023h-50.085c-2.406 0-4.357-1.951-4.357-4.357v-77.62c0-13.234-10.728-23.962-23.962-23.962-13.234 0-23.962 10.728-23.962 23.962v38z" fill="#0182fc"/><g><g><path d="m247.781 0h16.438c45.166 0 81.781 36.615 81.781 81.781v155.219c0 5.523-4.477 10-10 10h-160c-5.523 0-10-4.477-10-10v-155.219c0-45.166 36.615-81.781 81.781-81.781z" fill="#d88a55"/></g><g fill="#c57a44"><path d="m264.219 0h-16.438c-45.166 0-81.781 36.615-81.781 81.781v30.337c2.708-1.369 5.759-2.157 9-2.157l21 .039v-28.219c0-42.881 33.009-78.029 75-81.479-2.238-.184-4.495-.302-6.781-.302z"/><path d="m182.063 167.838h-5.252c-.849 4.089-4.47 7.162-8.811 7.162-.688 0-1.356-.084-2-.231v62.231c0 5.523 4.477 10 10 10h10.585l9.415-16.308v-36.555c-6.516-7.463-11.364-16.419-13.937-26.299z"/></g><g><path d="m337 109.962h-5.967v41.454c0 5.676-.752 11.178-2.145 16.422h8.112c11.046 0 20-8.954 20-20v-17.876c0-11.046-8.954-20-20-20z" fill="#ffbd86"/></g><path d="m226.669 239.843c-1.746-3.386-2.668-7.189-2.668-10.999v-16.947l-.662-.238c-4.529-1.626-8.786-3.742-12.734-6.263l-28.416 49.218c-3.363 5.825.841 13.106 7.567 13.106h51.288z" fill="#0182fc"/><path d="m299.931 206.315c-3.53 2.121-7.297 3.918-11.269 5.344l-.662.238v16.947c0 3.81-.923 7.613-2.669 10.999l-14.374 27.877h27.764c.723-1.037 1.921-1.721 3.279-1.721h23.452c3.35-2.502 4.725-7.297 2.365-11.385z" fill="#0182fc"/><g><g><path d="m180.966 151.416v-41.454h-5.966c-11.046 0-20 8.954-20 20v17.876c0 11.046 8.954 20 20 20h8.112c-1.394-5.244-2.146-10.746-2.146-16.422z" fill="#fed2a4"/></g></g><g><g><circle cx="168" cy="166" fill="#fff" r="9"/></g><g><circle cx="344" cy="166" fill="#fff" r="9"/></g></g><g><path d="m267.034 215.416h-22.068c-7.713 0-15.112-1.372-21.966-3.884v17.313c0 3.986.953 7.914 2.78 11.457l25.776 49.99c1.862 3.611 7.026 3.611 8.888 0l25.776-49.99c1.827-3.543 2.78-7.471 2.78-11.457v-17.312c-6.854 2.511-14.253 3.883-21.966 3.883z" fill="#ffbd86"/></g><g><path d="m249 228.844v-12.429h-4.034c-7.71 0-15.104-1.351-21.966-3.815v16.243c0 3.986.953 7.914 2.78 11.457l25.776 49.99c1.862 3.611 7.026 3.611 8.888 0l8.556-16.592-17.22-33.397c-1.827-3.542-2.78-7.471-2.78-11.457z" fill="#f6a96c"/></g><g><path d="m301.217 77.234c-7.903 14.6-23.248 31.559-52.093 32.705-1.702.068-3.124-1.301-3.124-3.004v-9.285c0-2.601-3.061-3.945-5.01-2.223-9.377 8.285-22.563 14.573-40.99 14.573h-20.034v41.416c0 35.899 29.101 65 65 65h22.067c35.898 0 65-29.101 65-65v-41.416l-25.807-33.192c-1.333-1.715-3.974-1.485-5.009.426z" fill="#fed2a4"/></g><g><path d="m202.449 151.842v-41.88c-.806.025-1.622.038-2.449.038h-20.034v41.416c0 35.898 29.102 65 65 65h4.511c-27.282-8.787-47.028-34.369-47.028-64.574z" fill="#ffbd86"/></g><g><path d="m262 160.41h-12c-4.142 0-7.5-3.358-7.5-7.5v-22c0-4.142 3.358-7.5 7.5-7.5s7.5 3.358 7.5 7.5v14.5h4.5c4.143 0 7.5 3.358 7.5 7.5s-3.357 7.5-7.5 7.5z" fill="#a44f3e"/></g><g><path d="m256 194.379c-11.88 0-23.759-4.522-32.803-13.566-2.929-2.929-2.929-7.678 0-10.606 2.929-2.929 7.678-2.929 10.606 0 12.24 12.239 32.155 12.24 44.393 0 2.93-2.929 7.678-2.929 10.607 0s2.929 7.678 0 10.606c-9.043 9.044-20.923 13.566-32.803 13.566z" fill="#a44f3e"/></g><g><g><g><circle cx="213.57" cy="125.41" fill="#a44f3e" r="12.5"/></g></g><g><g><circle cx="298.43" cy="125.41" fill="#a44f3e" r="12.5"/></g></g></g></g><g><g><path d="m84.916 442.348c44.157 43.089 104.514 69.652 171.084 69.652s126.927-26.563 171.084-69.652z" fill="#d88a55"/></g></g><g><path d="m298 384v-33.157c-.579-.12-1.179-.184-1.794-.184h-57.046c-4.857 0-8.794 3.937-8.794 8.794v24.547z" fill="#fed2a4"/><path d="m297 350.699c-.262-.023-.526-.04-.794-.04h-57.046c-4.857 0-8.794 3.937-8.794 8.794v20c0-4.857 3.937-8.794 8.794-8.794h57.047c.268 0 .532.017.794.04v-20z" fill="#ffbd86"/></g><path d="m399 407v-24h-186c-2.761 0-5 2.239-5 5v19z" fill="#5a5a8a"/><path d="m248 406v-18c0-2.761 2.239-5 5-5h-40c-2.761 0-5 2.239-5 5v18z" fill="#444474"/><path d="m488 407v-137c0-2.761-2.239-5-5-5h-181c-2.761 0-5 2.239-5 5v137z" fill="#5a5a8a"/><path d="m324 406v-136c0-2.761 2.239-5 5-5h-27c-2.761 0-5 2.239-5 5v136z" fill="#444474"/><g><circle cx="402.5" cy="337" fill="#fedf30" r="26.5"/></g><path d="m396 337c0-11.096 6.823-20.594 16.5-24.542-3.086-1.259-6.461-1.958-10-1.958-14.635 0-26.5 11.864-26.5 26.5s11.865 26.5 26.5 26.5c3.539 0 6.914-.699 10-1.958-9.677-3.948-16.5-13.446-16.5-24.542z" fill="#fac600"/><g><circle cx="256" cy="317.5" fill="#fff" r="7.5"/></g><path d="m88 383.5h-7.5c-4.136 0-7.5-3.364-7.5-7.5v-22c0-4.136 3.364-7.5 7.5-7.5h7.5v-15h-7.5c-12.407 0-22.5 10.093-22.5 22.5v22c0 12.407 10.093 22.5 22.5 22.5h7.5z" fill="#a44f3e"/><path d="m163 407v-81c0-2.761-2.239-5-5-5h-66c-2.761 0-5 2.239-5 5v81z" fill="#a44f3e"/><path d="m110 406v-80c0-2.761 2.239-5 5-5h-23c-2.761 0-5 2.239-5 5v80z" fill="#883f2e"/><g><path d="m496 443.348h-480c-2.761 0-5-2.239-5-5v-27.348c0-2.761 2.239-5 5-5h480c2.761 0 5 2.239 5 5v27.348c0 2.761-2.239 5-5 5z" fill="#d88a55"/></g><g><path d="m57 428c-2.761 0-5-2.239-5-5v-17h-36c-2.761 0-5 2.239-5 5v27.348c0 2.761 2.239 5 5 5h480c2.761 0 5-2.239 5-5v-10.348z" fill="#c57a44"/></g><g><g><g><path d="m35.703 237.049h63.536c4.241 0 7.879 3.318 7.957 7.559.079 4.32-3.399 7.847-7.702 7.847h-3.709c-4.254 0-7.703 3.449-7.703 7.703 0 4.254 3.449 7.703 7.703 7.703h12.583c4.241 0 7.88 3.318 7.957 7.559.079 4.32-3.399 7.847-7.702 7.847h-53.951c-4.241 0-7.88-3.318-7.957-7.559-.079-4.32 3.399-7.847 7.702-7.847h.315c4.241 0 7.88-3.318 7.957-7.559.079-4.32-3.399-7.847-7.702-7.847h-19.029c-4.241 0-7.88-3.318-7.957-7.559-.079-4.32 3.4-7.847 7.702-7.847z" fill="#fff"/></g></g><g><g><path d="m83.424 300.217c-.044 4.285 3.417 7.783 7.703 7.783h18.345c4.223 0 7.659-3.4 7.703-7.623.044-4.285-3.417-7.783-7.703-7.783h-18.345c-4.224 0-7.659 3.4-7.703 7.623z" fill="#fff"/></g></g></g></g></svg>