<svg clip-rule="evenodd" fill-rule="evenodd" height="513" image-rendering="optimizeQuality" shape-rendering="geometricPrecision" text-rendering="geometricPrecision" viewBox="0 0 103697 103697" width="513" xmlns="http://www.w3.org/2000/svg"><g id="Name"><g id="_328645336"><circle cx="51849" cy="51849" fill="#ffca4f" r="51849"/><path d="m34535 61165c-4324-10908-13406-20780-1978-40665 4707-8189 11897-13591 19324-11762 7427-1829 14617 3572 19324 11762 11428 19885 2346 29757-1978 40665l-17346 43z" fill="#666"/><path d="m22666 78218c-542 875-1896 8321-3392 13966 8903 7199 20234 11513 32575 11513s23673-4314 32575-11513c-1497-5645-2850-13091-3392-13966-8330-13450-21169-7578-22044-22969 0 0-4130 3082-7284 3111-3154 28-6997-2916-6997-2916-873 15378-13716 9335-22040 22774z" fill="#fed298"/><path d="m59211 57422c-103-674-180-1396-224-2173 0 0-4130 3082-7284 3111-3154 28-6997-2916-6997-2916-45 791-123 1523-229 2207 81 64 161 129 243 192l-1 11c243 211 3935 3387 6984 3355 3049 32 6741-3143 6984-3355v-11c179-137 353-278 525-420z" fill="#f0ba7d"/><path d="m44719 55453c243 183 3935 2934 6984 2906 3049 28 6741-2723 6984-2906 4609-2687 8391-10610 7537-19196-699-7033-8308 3280-13607-11232-7500 15711-14623 6417-15436 12371-895 6560 2788 14814 7537 18056z" fill="#fed298"/><path d="m38667 66454c-4539 2425-12842 2498-16002 7577-550 885-1931 11720-3451 18106 8912 7227 20266 11560 32634 11560s23722-4333 32634-11560c-1520-6385-3067-17137-3451-18106-2098-5291-11809-5512-16353-7952-7064 25630-17593 27378-26010 377z" fill="#ff5b62"/><g fill="#fff"><path d="m41694 63907c-295 7974 1060 19271 10008 22158-8423 352-13890-11785-20116-14964l10108-7193z"/><path d="m62211 63907c310 7974-1114 19271-10509 22158 8845 352 14585-11785 21123-14964l-10614-7193z"/></g></g></g></svg>