<svg xmlns="http://www.w3.org/2000/svg" version="1.1" xmlns:xlink="http://www.w3.org/1999/xlink" width="512" height="512" x="0" y="0" viewBox="0 0 512 512" style="enable-background:new 0 0 512 512" xml:space="preserve" class=""><g><path d="m76.062 199.07 40.664-97.593 40.664 97.593M86.277 174.672h60.957" style="stroke-width:22;stroke-linecap:round;stroke-linejoin:round;stroke-miterlimit:10;" fill="none" stroke="#000000" stroke-width="22" stroke-linecap="round" stroke-linejoin="round" stroke-miterlimit="10" data-original="#33cccc" class="" opacity="1"></path><path d="M189.921 44.548H43.531C25.565 44.548 11 59.112 11 77.079v146.39C11 241.435 25.565 256 43.531 256h146.39c17.966 0 32.531-14.565 32.531-32.531V77.079c0-17.967-14.564-32.531-32.531-32.531zM468.469 256h-146.39c-17.966 0-32.531 14.565-32.531 32.531v146.39c0 17.966 14.565 32.531 32.531 32.531h146.39c17.966 0 32.531-14.565 32.531-32.531v-146.39C501 270.565 486.435 256 468.469 256z" style="stroke-width:22;stroke-linecap:round;stroke-linejoin:round;stroke-miterlimit:10;" fill="none" stroke="#000000" stroke-width="22" stroke-linecap="round" stroke-linejoin="round" stroke-miterlimit="10" data-original="#000000" class=""></path><path d="M435.938 410.523h0c-22.458 0-40.664-18.206-40.664-40.664 0 22.458-18.206 40.664-40.664 40.664h0M362.743 353.593h65.062M395.274 369.859V312.93M296.787 134.008h64.939c17.966 0 32.531 14.565 32.531 32.531v32.531" style="stroke-width:22;stroke-linecap:round;stroke-linejoin:round;stroke-miterlimit:10;" fill="none" stroke="#000000" stroke-width="22" stroke-linecap="round" stroke-linejoin="round" stroke-miterlimit="10" data-original="#33cccc" class="" opacity="1"></path><path d="m321.062 101.477-24.398 32.531 24.398 32.531M215.319 377.992h-65.045c-17.967 0-32.531-14.565-32.531-32.531V312.93" style="stroke-width:22;stroke-linecap:round;stroke-linejoin:round;stroke-miterlimit:10;" fill="none" stroke="#000000" stroke-width="22" stroke-linecap="round" stroke-linejoin="round" stroke-miterlimit="10" data-original="#33cccc" class="" opacity="1"></path><path d="m190.938 410.523 24.398-32.531-24.398-32.531" style="stroke-width:22;stroke-linecap:round;stroke-linejoin:round;stroke-miterlimit:10;" fill="none" stroke="#000000" stroke-width="22" stroke-linecap="round" stroke-linejoin="round" stroke-miterlimit="10" data-original="#33cccc" class="" opacity="1"></path></g></svg>