<svg xmlns="http://www.w3.org/2000/svg" xmlns:xlink="http://www.w3.org/1999/xlink" width="480" height="452.5" viewBox="0 0 480 452.5">
  <defs>
    <linearGradient id="linear-gradient" x1="0.5" x2="0.5" y2="1" gradientUnits="objectBoundingBox">
      <stop offset="0" stop-color="#259866"/>
      <stop offset="1" stop-color="#3cb681"/>
    </linearGradient>
    <linearGradient id="linear-gradient-2" x1="0.5" x2="0.5" y2="1" gradientUnits="objectBoundingBox">
      <stop offset="0" stop-color="#259866"/>
      <stop offset="1" stop-color="#3db782"/>
    </linearGradient>
    <linearGradient id="linear-gradient-3" x1="0.26" y1="0.092" x2="0.766" y2="0.941" gradientUnits="objectBoundingBox">
      <stop offset="0" stop-color="#c0fdfa"/>
      <stop offset="1" stop-color="#63e4fb"/>
    </linearGradient>
    <filter id="Ellipse_24" x="295" y="56" width="32" height="32" filterUnits="userSpaceOnUse">
      <feOffset dy="3" input="SourceAlpha"/>
      <feGaussianBlur stdDeviation="3" result="blur"/>
      <feFlood flood-opacity="0.161"/>
      <feComposite operator="in" in2="blur"/>
      <feComposite in="SourceGraphic"/>
    </filter>
    <filter id="Ellipse_25" x="24" y="101" width="48" height="48" filterUnits="userSpaceOnUse">
      <feOffset dy="3" input="SourceAlpha"/>
      <feGaussianBlur stdDeviation="3" result="blur-2"/>
      <feFlood flood-opacity="0.161"/>
      <feComposite operator="in" in2="blur-2"/>
      <feComposite in="SourceGraphic"/>
    </filter>
  </defs>
  <g id="Group_5043" data-name="Group 5043" transform="translate(-128 -122)">
    <path id="Intersection_1" data-name="Intersection 1" d="M-4737.281,27.962h69.752A35,35,0,0,1-4702.4,60,35,35,0,0,1-4737.281,27.962Z" transform="translate(4867.404 94.038)" fill="#3bb580"/>
    <g id="Group_5040" data-name="Group 5040" transform="translate(413 -50.538)">
      <circle id="Ellipse_6" data-name="Ellipse 6" cx="1.5" cy="1.5" r="1.5" transform="translate(141 580.038)" fill="#fff"/>
      <circle id="Ellipse_7" data-name="Ellipse 7" cx="1.5" cy="1.5" r="1.5" transform="translate(158 580.038)" fill="#fff"/>
      <circle id="Ellipse_14" data-name="Ellipse 14" cx="1.5" cy="1.5" r="1.5" transform="translate(175 580.038)" fill="#fff"/>
      <circle id="Ellipse_18" data-name="Ellipse 18" cx="1.5" cy="1.5" r="1.5" transform="translate(192 580.038)" fill="#fff"/>
      <circle id="Ellipse_8" data-name="Ellipse 8" cx="1.5" cy="1.5" r="1.5" transform="translate(141 594.038)" fill="#fff"/>
      <circle id="Ellipse_9" data-name="Ellipse 9" cx="1.5" cy="1.5" r="1.5" transform="translate(158 594.038)" fill="#fff"/>
      <circle id="Ellipse_15" data-name="Ellipse 15" cx="1.5" cy="1.5" r="1.5" transform="translate(175 594.038)" fill="#fff"/>
      <circle id="Ellipse_19" data-name="Ellipse 19" cx="1.5" cy="1.5" r="1.5" transform="translate(192 594.038)" fill="#fff"/>
      <circle id="Ellipse_10" data-name="Ellipse 10" cx="1.5" cy="1.5" r="1.5" transform="translate(141 608.038)" fill="#fff"/>
      <circle id="Ellipse_11" data-name="Ellipse 11" cx="1.5" cy="1.5" r="1.5" transform="translate(158 608.038)" fill="#fff"/>
      <circle id="Ellipse_16" data-name="Ellipse 16" cx="1.5" cy="1.5" r="1.5" transform="translate(175 608.038)" fill="#fff"/>
      <circle id="Ellipse_20" data-name="Ellipse 20" cx="1.5" cy="1.5" r="1.5" transform="translate(192 608.038)" fill="#fff"/>
      <circle id="Ellipse_12" data-name="Ellipse 12" cx="1.5" cy="1.5" r="1.5" transform="translate(141 622.038)" fill="#fff"/>
      <circle id="Ellipse_13" data-name="Ellipse 13" cx="1.5" cy="1.5" r="1.5" transform="translate(158 622.038)" fill="#fff"/>
      <circle id="Ellipse_17" data-name="Ellipse 17" cx="1.5" cy="1.5" r="1.5" transform="translate(175 622.038)" fill="#fff"/>
      <circle id="Ellipse_21" data-name="Ellipse 21" cx="1.5" cy="1.5" r="1.5" transform="translate(192 622.038)" fill="#fff"/>
    </g>
    <g id="Group_5042" data-name="Group 5042">
      <circle id="Ellipse_2" data-name="Ellipse 2" cx="1.5" cy="1.5" r="1.5" transform="translate(128 173.038)" fill="#fff"/>
      <circle id="Ellipse_2-2" data-name="Ellipse 2" cx="1.5" cy="1.5" r="1.5" transform="translate(142 173.038)" fill="#fff"/>
      <circle id="Ellipse_2-3" data-name="Ellipse 2" cx="1.5" cy="1.5" r="1.5" transform="translate(156 173.038)" fill="#fff"/>
      <circle id="Ellipse_2-4" data-name="Ellipse 2" cx="1.5" cy="1.5" r="1.5" transform="translate(170 173.038)" fill="#fff"/>
      <circle id="Ellipse_2-5" data-name="Ellipse 2" cx="1.5" cy="1.5" r="1.5" transform="translate(184 173.038)" fill="#fff"/>
      <circle id="Ellipse_2-6" data-name="Ellipse 2" cx="1.5" cy="1.5" r="1.5" transform="translate(198 173.038)" fill="#fff"/>
      <circle id="Ellipse_2-7" data-name="Ellipse 2" cx="1.5" cy="1.5" r="1.5" transform="translate(128 187.038)" fill="#fff"/>
      <circle id="Ellipse_2-8" data-name="Ellipse 2" cx="1.5" cy="1.5" r="1.5" transform="translate(142 187.038)" fill="#fff"/>
      <circle id="Ellipse_2-9" data-name="Ellipse 2" cx="1.5" cy="1.5" r="1.5" transform="translate(156 187.038)" fill="#fff"/>
      <circle id="Ellipse_2-10" data-name="Ellipse 2" cx="1.5" cy="1.5" r="1.5" transform="translate(170 187.038)" fill="#fff"/>
      <circle id="Ellipse_2-11" data-name="Ellipse 2" cx="1.5" cy="1.5" r="1.5" transform="translate(184 187.038)" fill="#fff"/>
      <circle id="Ellipse_2-12" data-name="Ellipse 2" cx="1.5" cy="1.5" r="1.5" transform="translate(198 187.038)" fill="#fff"/>
      <circle id="Ellipse_2-13" data-name="Ellipse 2" cx="1.5" cy="1.5" r="1.5" transform="translate(128 201.038)" fill="#fff"/>
      <circle id="Ellipse_2-14" data-name="Ellipse 2" cx="1.5" cy="1.5" r="1.5" transform="translate(142 201.038)" fill="#fff"/>
      <circle id="Ellipse_2-15" data-name="Ellipse 2" cx="1.5" cy="1.5" r="1.5" transform="translate(156 201.038)" fill="#fff"/>
      <circle id="Ellipse_2-16" data-name="Ellipse 2" cx="1.5" cy="1.5" r="1.5" transform="translate(170 201.038)" fill="#fff"/>
      <circle id="Ellipse_2-17" data-name="Ellipse 2" cx="1.5" cy="1.5" r="1.5" transform="translate(184 201.038)" fill="#fff"/>
      <circle id="Ellipse_2-18" data-name="Ellipse 2" cx="1.5" cy="1.5" r="1.5" transform="translate(198 201.038)" fill="#fff"/>
      <circle id="Ellipse_2-19" data-name="Ellipse 2" cx="1.5" cy="1.5" r="1.5" transform="translate(128 215.038)" fill="#fff"/>
      <circle id="Ellipse_2-20" data-name="Ellipse 2" cx="1.5" cy="1.5" r="1.5" transform="translate(142 215.038)" fill="#fff"/>
      <circle id="Ellipse_2-21" data-name="Ellipse 2" cx="1.5" cy="1.5" r="1.5" transform="translate(156 215.038)" fill="#fff"/>
      <circle id="Ellipse_2-22" data-name="Ellipse 2" cx="1.5" cy="1.5" r="1.5" transform="translate(170 215.038)" fill="#fff"/>
      <circle id="Ellipse_2-23" data-name="Ellipse 2" cx="1.5" cy="1.5" r="1.5" transform="translate(184 215.038)" fill="#fff"/>
      <circle id="Ellipse_2-24" data-name="Ellipse 2" cx="1.5" cy="1.5" r="1.5" transform="translate(198 215.038)" fill="#fff"/>
    </g>
    <path id="Union_1" data-name="Union 1" d="M-4742.959,51H-4743V-10h24V51h-.041A12,12,0,0,1-4731,62,12,12,0,0,1-4742.959,51Z" transform="translate(4971 147.038)" fill="url(#linear-gradient)"/>
    <path id="Union_2" data-name="Union 2" d="M-4742.935,86.583H-4743V-10h38V86.583h-.065A19,19,0,0,1-4724,104,19,19,0,0,1-4742.935,86.583Z" transform="translate(5022 157)" fill="url(#linear-gradient-2)"/>
    <path id="Subtraction_6" data-name="Subtraction 6" d="M-3169,124a18.94,18.94,0,0,1-12.9-5.051,18.931,18.931,0,0,1-6.033-12.366H-3188V48h1v57.748l.062.753a17.934,17.934,0,0,0,5.716,11.714A17.945,17.945,0,0,0-3169,123a17.945,17.945,0,0,0,12.222-4.785,17.931,17.931,0,0,0,5.716-11.714l.062-.753V48h1v58.584h-.066a18.932,18.932,0,0,1-6.033,12.366A18.941,18.941,0,0,1-3169,124Z" transform="translate(3445 74)" fill="#fff"/>
    <circle id="Ellipse_22" data-name="Ellipse 22" cx="10" cy="10" r="10" transform="translate(374 173.038)" fill="#3bb480"/>
    <path id="Subtraction_7" data-name="Subtraction 7" d="M-3179.9,37.052a20.867,20.867,0,0,1-14.806-6.109A20.868,20.868,0,0,1-3200.9,16.18h1a19.862,19.862,0,0,0,1.571,7.656,19.933,19.933,0,0,0,4.287,6.358,19.954,19.954,0,0,0,6.357,4.287,19.883,19.883,0,0,0,7.785,1.57,19.882,19.882,0,0,0,7.785-1.57,19.963,19.963,0,0,0,6.358-4.287,19.941,19.941,0,0,0,4.286-6.358,19.868,19.868,0,0,0,1.572-7.785,19.865,19.865,0,0,0-1.572-7.784,19.93,19.93,0,0,0-4.286-6.358,19.944,19.944,0,0,0-6.358-4.287,19.867,19.867,0,0,0-7.785-1.571c-.23,0-.465,0-.7.012q0-.331,0-.666l0-.334c.247-.008.484-.012.7-.012A20.862,20.862,0,0,1-3165.055,1.2a20.863,20.863,0,0,1,6.15,14.849,20.864,20.864,0,0,1-6.15,14.85A20.862,20.862,0,0,1-3179.9,37.052Z" transform="translate(3563.904 166.986)" fill="#fff"/>
    <g transform="matrix(1, 0, 0, 1, 128, 122)" filter="url(#Ellipse_24)">
      <circle id="Ellipse_24-2" data-name="Ellipse 24" cx="7" cy="7" r="7" transform="translate(304 62)" fill="url(#linear-gradient-3)"/>
    </g>
    <g transform="matrix(1, 0, 0, 1, 128, 122)" filter="url(#Ellipse_25)">
      <circle id="Ellipse_25-2" data-name="Ellipse 25" cx="15" cy="15" r="15" transform="translate(33 107)" fill="url(#linear-gradient-3)"/>
    </g>
  </g>
</svg>
