<?xml version="1.0" encoding="utf-8"?>
<!-- Generator: Adobe Illustrator 24.2.1, SVG Export Plug-In . SVG Version: 6.00 Build 0)  -->
<svg version="1.1" xmlns="http://www.w3.org/2000/svg" xmlns:xlink="http://www.w3.org/1999/xlink" x="0px" y="0px"
	 viewBox="0 0 500 500" style="enable-background:new 0 0 500 500;" xml:space="preserve">
<g id="BACKGROUND" style="display:none;">
	<radialGradient id="SVGID_1_" cx="248" cy="447" r="475.6354" gradientUnits="userSpaceOnUse">
		<stop  offset="0" style="stop-color:#024466"/>
		<stop  offset="1" style="stop-color:#041F34"/>
	</radialGradient>
	<rect style="display:inline;fill:url(#SVGID_1_);" width="500" height="500"/>
</g>
<g id="OBJECTS">
	<g>
		<ellipse style="fill:#041E2C;" cx="250.94" cy="434.27" rx="218.88" ry="11.48"/>
		<g>
			<linearGradient id="SVGID_2_" gradientUnits="userSpaceOnUse" x1="241.0553" y1="1032.251" x2="241.0553" y2="217.4081">
				<stop  offset="0" style="stop-color:#FFFFFF"/>
				<stop  offset="0.3472" style="stop-color:#FFFFFF;stop-opacity:0.6219"/>
				<stop  offset="1" style="stop-color:#FFFFFF;stop-opacity:0"/>
			</linearGradient>
			<path style="opacity:0.8;fill:url(#SVGID_2_);" d="M40.91,180.48l65.35,200.38c96.5,37.62,189.89,40.1,279.53,0l55.4-200.38
				C333.24,158.04,156.09,159.12,40.91,180.48z"/>
			<g>
				<g>
					<g>
						<g>
							<path style="fill:#D9D9D9;" d="M80.36,378.91l6.95,5.68c0,0,11.93,1.13,30.33-5.68c18.4-6.81,42.22-12.29,54.92-13.36
								c12.69-1.07,41.71-3.15,63.75,20.04c0,0,2.98,3.2,2.82-0.67c-0.16-3.87-19-20.44-26.89-23.91
								c-7.88-3.47-29.76-8.82-52.49-2.67s-34.55,13.11-57.71,18.54C102.03,376.87,88.82,379.53,80.36,378.91z"/>
							<path style="fill:#FFFFFF;" d="M249.98,408.43c-5.88-5.72-11.39-41.75-53.34-49.54c-42.39-7.87-92.26,26.82-116.27,20.02
								c0,0,22.82-1.66,52.38-13.99c42.71-17.82,69.61-11.03,84.09-4.28C230.19,366.88,246.78,381.56,249.98,408.43z"/>
						</g>
						<g>
							<path style="fill:#D9D9D9;" d="M79.02,383.14l5.99,7.99c0,0,8.7,0.52,26.16-3.22c17.46-3.74,58.43-12.47,75-12.29
								c16.57,0.18,37.94,1.54,50.12,13.01v-3.03c0,0-15.11-15.37-34.35-19.11c-19.24-3.74-46.36,0.67-57.19,4.41
								C133.94,374.63,97.06,387.99,79.02,383.14z"/>
							<path style="fill:#FFFFFF;" d="M242.3,391.8c0,0-16.03-26.34-52.2-27.95c-36.17-1.6-69.34,14.78-88.36,18.35
								c-11.88,2.23-22.71,0.93-22.71,0.93s5.88,3.16,15.77,2.01c9.89-1.16,26.32-5.61,41.42-10.42c15.1-4.81,43.02-11.62,62-7.62
								c18.97,4.01,33.55,12.97,40,21.78C238.2,388.88,242.3,393.58,242.3,391.8z"/>
						</g>
					</g>
					<g>
						<g>
							<path style="fill:#D9D9D9;" d="M419.59,378.91l-6.95,5.68c0,0-11.93,1.13-30.33-5.68c-18.4-6.81-42.22-12.29-54.92-13.36
								c-12.69-1.07-41.71-3.15-63.75,20.04c0,0-2.98,3.2-2.82-0.67c0.16-3.87,19-20.44,26.89-23.91s29.76-8.82,52.49-2.67
								c22.73,6.15,34.55,13.11,57.71,18.54C397.92,376.87,411.13,379.53,419.59,378.91z"/>
							<path style="fill:#FFFFFF;" d="M249.98,408.43c5.88-5.72,11.39-41.75,53.34-49.54c42.39-7.87,92.25,26.82,116.27,20.02
								c0,0-22.82-1.66-52.38-13.99c-42.71-17.82-69.61-11.03-84.09-4.28C269.77,366.88,253.17,381.56,249.98,408.43z"/>
						</g>
						<g>
							<path style="fill:#D9D9D9;" d="M420.93,383.14l-5.99,7.99c0,0-8.7,0.52-26.16-3.22c-17.46-3.74-58.43-12.47-75-12.29
								c-16.57,0.18-37.94,1.54-50.12,13.01v-3.03c0,0,15.11-15.37,34.35-19.11c19.24-3.74,46.36,0.67,57.19,4.41
								C366.01,374.63,402.89,387.99,420.93,383.14z"/>
							<path style="fill:#FFFFFF;" d="M257.65,391.8c0,0,16.03-26.34,52.2-27.95c36.17-1.6,69.34,14.78,88.36,18.35
								c11.88,2.23,22.71,0.93,22.71,0.93s-5.88,3.16-15.77,2.01c-9.89-1.16-26.32-5.61-41.42-10.42c-15.1-4.81-43.02-11.62-62-7.62
								c-18.97,4.01-33.55,12.97-40,21.78C261.75,388.88,257.65,393.58,257.65,391.8z"/>
						</g>
					</g>
					<path style="fill:#FFFFFF;" d="M425.72,392.21v28.32l-175.44-10.64l-5.29,0.32h0l-1.9,0.11l-1.44,0.09l-3.21,0.19l-2.14,0.13
						l-3.47,0.21l-5.04,0.3l-4.36,0.26l-148.59,9.01v-28.32c57.36-4.4,156.47-46.55,175.14,16.21
						C262.34,344.79,372.71,388.35,425.72,392.21z"/>
					<g>
						<path style="fill:#D9D9D9;" d="M253.06,410l1.29,0.22h0l1.9,0.11c0.28-1.7,0.69-3.38,1.25-5.01c0.6-1.69,1.33-3.33,2.23-4.87
							c0.9-1.55,1.93-3.02,3.11-4.39c1.17-1.37,2.47-2.63,3.86-3.79c1.39-1.16,2.89-2.21,4.45-3.16c1.56-0.95,3.18-1.8,4.86-2.55
							c3.35-1.51,6.88-2.65,10.48-3.5c7.22-1.7,14.71-2.27,22.17-2.14c3.74,0.07,7.47,0.32,11.19,0.72c1.86,0.2,3.72,0.43,5.57,0.71
							c1.85,0.27,3.71,0.59,5.57,0.9c14.87,2.44,29.72,5.04,44.6,7.42c7.43,1.22,14.88,2.35,22.34,3.49
							c7.45,1.11,14.91,2.2,22.39,3.15l-22.24-4.03c-7.42-1.3-14.83-2.64-22.26-3.92c-14.84-2.59-29.71-5.04-44.54-7.68
							c-1.85-0.32-3.71-0.65-5.58-0.97c-1.87-0.31-3.75-0.57-5.63-0.81c-3.76-0.47-7.55-0.79-11.34-0.92
							c-7.59-0.26-15.25,0.19-22.74,1.81c-3.74,0.82-7.43,1.94-10.98,3.47c-1.77,0.76-3.51,1.63-5.18,2.61
							c-1.67,0.98-3.29,2.07-4.82,3.3c-1.53,1.22-2.97,2.55-4.28,4.03c-1.32,1.46-2.5,3.05-3.52,4.74
							c-1.04,1.68-1.88,3.48-2.59,5.33C253.92,406.14,253.41,408.05,253.06,410z"/>
						<path style="fill:#D9D9D9;" d="M257.69,410.42l3.21,0.19c0.44-1.17,0.96-2.31,1.56-3.42c1.56-2.91,3.65-5.53,6.1-7.79
							c2.46-2.26,5.27-4.15,8.26-5.71c3-1.55,6.18-2.78,9.45-3.74c3.27-0.96,6.63-1.65,10.02-2.14c3.39-0.49,6.82-0.75,10.26-0.86
							c6.88-0.2,13.78,0.26,20.62,1.2c3.41,0.47,6.84,1.08,10.27,1.64l10.28,1.72l10.27,1.73c3.43,0.57,6.85,1.16,10.28,1.71
							l10.29,1.66l10.3,1.58c3.43,0.54,6.87,1.02,10.31,1.52c1.72,0.25,3.44,0.49,5.16,0.71c1.72,0.23,3.44,0.46,5.17,0.66
							c-13.66-2.57-27.31-5.11-41-7.49l-41.08-7.11c-6.9-1.06-13.9-1.65-20.91-1.57c-3.5,0.05-7.01,0.26-10.51,0.71
							c-3.49,0.44-6.97,1.09-10.38,2.03c-3.41,0.94-6.76,2.16-9.96,3.75c-3.2,1.59-6.23,3.56-8.94,5.95
							c-2.7,2.39-5.07,5.21-6.86,8.39C259,407.24,258.28,408.81,257.69,410.42z"/>
						<path style="fill:#D9D9D9;" d="M263.04,410.74l3.47,0.21c0.04-0.05,0.08-0.1,0.13-0.15c1.11-1.34,2.34-2.59,3.66-3.74
							c2.66-2.29,5.68-4.19,8.89-5.71c3.21-1.53,6.6-2.71,10.07-3.6c6.95-1.79,14.18-2.49,21.41-2.5c7.23,0,14.47,0.69,21.64,1.88
							c14.4,2.36,28.79,4.81,43.22,6.99l5.41,0.8l2.71,0.4l2.71,0.38c3.61,0.51,7.23,0.99,10.85,1.47c3.62,0.47,7.24,0.89,10.87,1.3
							c1.81,0.21,3.63,0.38,5.45,0.55c1.82,0.16,3.64,0.33,5.46,0.41c-3.63-0.41-7.23-0.96-10.84-1.49c-1.8-0.26-3.6-0.55-5.41-0.82
							l-5.4-0.85c-3.6-0.57-7.2-1.14-10.8-1.73l-10.8-1.75c-14.4-2.36-28.79-4.7-43.16-7.26c-7.21-1.31-14.53-2.14-21.89-2.26
							c-7.35-0.11-14.77,0.47-21.99,2.2c-3.61,0.87-7.16,2.04-10.57,3.59c-3.41,1.55-6.65,3.52-9.57,5.93
							c-1.46,1.21-2.82,2.54-4.08,3.98C263.98,409.53,263.5,410.13,263.04,410.74z"/>
						<path style="fill:#D9D9D9;" d="M271.56,411.26l4.36,0.26c1.35-0.84,2.76-1.61,4.21-2.3c3.15-1.51,6.48-2.66,9.89-3.55
							c3.41-0.88,6.9-1.49,10.42-1.87c3.52-0.39,7.07-0.57,10.62-0.56c7.11,0.01,14.22,0.7,21.25,1.87
							c14.13,2.45,28.27,4.95,42.47,6.99c1.77,0.26,3.55,0.49,5.33,0.73c1.78,0.23,3.55,0.49,5.34,0.69l5.35,0.62
							c1.78,0.2,3.57,0.37,5.36,0.56c3.57,0.36,7.15,0.61,10.74,0.82l2.69,0.12l2.69,0.05c1.8-0.01,3.6,0.02,5.38-0.21
							c-0.89,0.07-1.79,0.05-2.69,0.03c-0.45,0-0.9-0.03-1.34-0.05c-0.45-0.02-0.9-0.03-1.34-0.06l-2.68-0.19l-2.68-0.23
							c-0.89-0.07-1.78-0.18-2.67-0.27c-0.89-0.1-1.78-0.17-2.67-0.29l-2.67-0.32c-0.89-0.1-1.78-0.2-2.67-0.32
							c-1.78-0.23-3.55-0.45-5.33-0.69l-5.32-0.75l-5.32-0.78c-1.77-0.26-3.54-0.51-5.31-0.8c-7.08-1.11-14.16-2.23-21.22-3.45
							c-7.07-1.18-14.1-2.52-21.16-3.81c-7.09-1.31-14.28-2.13-21.52-2.26c-3.62-0.06-7.24,0.05-10.86,0.39
							c-3.61,0.34-7.22,0.9-10.77,1.75c-3.55,0.86-7.04,2-10.39,3.53C276.44,408.12,273.91,409.55,271.56,411.26z"/>
					</g>
					<g>
						<path style="fill:#D9D9D9;" d="M246.29,410l-1.29,0.22h0l-1.9,0.11c-0.28-1.7-0.69-3.38-1.25-5.01
							c-0.6-1.69-1.33-3.33-2.23-4.87c-0.9-1.55-1.93-3.02-3.11-4.39c-1.17-1.37-2.47-2.63-3.86-3.79
							c-1.39-1.16-2.89-2.21-4.45-3.16c-1.56-0.95-3.18-1.8-4.86-2.55c-3.35-1.51-6.88-2.65-10.48-3.5
							c-7.22-1.7-14.71-2.27-22.17-2.14c-3.74,0.07-7.47,0.32-11.19,0.72c-1.86,0.2-3.72,0.43-5.57,0.71
							c-1.85,0.27-3.71,0.59-5.57,0.9c-14.87,2.44-29.72,5.04-44.6,7.42c-7.43,1.22-14.88,2.35-22.34,3.49
							c-7.45,1.11-14.91,2.2-22.39,3.15l22.24-4.03c7.42-1.3,14.83-2.64,22.26-3.92c14.84-2.59,29.71-5.04,44.54-7.68
							c1.85-0.32,3.71-0.65,5.58-0.97c1.87-0.31,3.75-0.57,5.63-0.81c3.76-0.47,7.55-0.79,11.34-0.92
							c7.59-0.26,15.25,0.19,22.74,1.81c3.74,0.82,7.43,1.94,10.98,3.47c1.77,0.76,3.51,1.63,5.18,2.61
							c1.67,0.98,3.29,2.07,4.82,3.3c1.53,1.22,2.97,2.55,4.28,4.03c1.32,1.46,2.5,3.05,3.52,4.74c1.04,1.68,1.88,3.48,2.59,5.33
							C245.42,406.14,245.93,408.05,246.29,410z"/>
						<path style="fill:#D9D9D9;" d="M241.65,410.42l-3.21,0.19c-0.44-1.17-0.96-2.31-1.56-3.42c-1.56-2.91-3.65-5.53-6.1-7.79
							c-2.46-2.26-5.27-4.15-8.26-5.71c-3-1.55-6.18-2.78-9.45-3.74c-3.27-0.96-6.63-1.65-10.02-2.14
							c-3.39-0.49-6.82-0.75-10.26-0.86c-6.88-0.2-13.78,0.26-20.62,1.2c-3.41,0.47-6.84,1.08-10.27,1.64l-10.27,1.72l-10.27,1.73
							c-3.43,0.57-6.85,1.16-10.28,1.71l-10.29,1.66l-10.3,1.58c-3.43,0.54-6.87,1.02-10.31,1.52c-1.72,0.25-3.44,0.49-5.16,0.71
							c-1.72,0.23-3.44,0.46-5.17,0.66c13.66-2.57,27.31-5.11,41-7.49l41.08-7.11c6.9-1.06,13.9-1.65,20.91-1.57
							c3.5,0.05,7.01,0.26,10.51,0.71c3.49,0.44,6.97,1.09,10.38,2.03c3.41,0.94,6.76,2.16,9.96,3.75c3.2,1.59,6.23,3.56,8.94,5.95
							c2.7,2.39,5.07,5.21,6.86,8.39C240.35,407.24,241.07,408.81,241.65,410.42z"/>
						<path style="fill:#D9D9D9;" d="M236.3,410.74l-3.47,0.21c-0.04-0.05-0.08-0.1-0.13-0.15c-1.11-1.34-2.34-2.59-3.66-3.74
							c-2.66-2.29-5.68-4.19-8.89-5.71c-3.21-1.53-6.6-2.71-10.07-3.6c-6.95-1.79-14.18-2.49-21.41-2.5
							c-7.23,0-14.47,0.69-21.64,1.88c-14.4,2.36-28.79,4.81-43.22,6.99l-5.41,0.8l-2.71,0.4l-2.71,0.38
							c-3.61,0.51-7.23,0.99-10.85,1.47c-3.62,0.47-7.24,0.89-10.87,1.3c-1.81,0.21-3.63,0.38-5.45,0.55
							c-1.82,0.16-3.64,0.33-5.46,0.41c3.63-0.41,7.23-0.96,10.84-1.49c1.8-0.26,3.6-0.55,5.41-0.82l5.4-0.85
							c3.6-0.57,7.2-1.14,10.8-1.73l10.8-1.75c14.4-2.36,28.79-4.7,43.16-7.26c7.21-1.31,14.53-2.14,21.89-2.26
							c7.35-0.11,14.77,0.47,21.99,2.2c3.61,0.87,7.16,2.04,10.57,3.59c3.41,1.55,6.65,3.52,9.57,5.93
							c1.46,1.21,2.82,2.54,4.08,3.98C235.37,409.53,235.85,410.13,236.3,410.74z"/>
						<path style="fill:#D9D9D9;" d="M227.79,411.26l-4.36,0.26c-1.35-0.84-2.76-1.61-4.21-2.3c-3.15-1.51-6.48-2.66-9.89-3.55
							c-3.41-0.88-6.9-1.49-10.42-1.87c-3.52-0.39-7.07-0.57-10.62-0.56c-7.11,0.01-14.22,0.7-21.25,1.87
							c-14.13,2.45-28.26,4.95-42.47,6.99c-1.77,0.26-3.55,0.49-5.33,0.73c-1.78,0.23-3.55,0.49-5.34,0.69l-5.35,0.62
							c-1.78,0.2-3.57,0.37-5.36,0.56c-3.57,0.36-7.15,0.61-10.74,0.82l-2.69,0.12l-2.69,0.05c-1.8-0.01-3.6,0.02-5.38-0.21
							c0.89,0.07,1.79,0.05,2.69,0.03c0.45,0,0.9-0.03,1.34-0.05c0.45-0.02,0.9-0.03,1.34-0.06l2.68-0.19l2.68-0.23
							c0.89-0.07,1.78-0.18,2.67-0.27c0.89-0.1,1.78-0.17,2.67-0.29l2.67-0.32c0.89-0.1,1.78-0.2,2.67-0.32
							c1.78-0.23,3.55-0.45,5.33-0.69l5.32-0.75l5.32-0.78c1.77-0.26,3.54-0.51,5.31-0.8c7.08-1.11,14.16-2.23,21.22-3.45
							c7.07-1.18,14.1-2.52,21.16-3.81c7.09-1.31,14.28-2.13,21.52-2.26c3.62-0.06,7.24,0.05,10.86,0.39
							c3.61,0.34,7.22,0.9,10.77,1.75c3.55,0.86,7.04,2,10.39,3.53C222.91,408.12,225.44,409.55,227.79,411.26z"/>
					</g>
				</g>
				<g>
					<path style="fill:#3E97F4;" d="M441.2,421.98v12.29l-172.89-7.37c0,0-6.83,7.37-18.02,7.37c-11.2,0-18.02-7.37-18.02-7.37
						l-172.89,7.37v-12.29l15.47-1.46l159.02-11.11h32.84l159.02,11.11L441.2,421.98z"/>
					<path style="fill:#007ACC;" d="M441.2,430.18v4.09l-172.89-7.37c0,0-6.83,7.37-18.02,7.37c-11.2,0-18.02-7.37-18.02-7.37
						l-172.89,7.37v-3.32l174.92-13.21c0,0,4.02,9.44,16,9.44c11.97,0,15.36-9.44,15.36-9.44L441.2,430.18z"/>
				</g>
			</g>
		</g>
	</g>
	<g>
		<linearGradient id="SVGID_3_" gradientUnits="userSpaceOnUse" x1="245.5541" y1="-126.7499" x2="245.5541" y2="255.1352">
			<stop  offset="0" style="stop-color:#FFFFFF"/>
			<stop  offset="1" style="stop-color:#FFFFFF;stop-opacity:0"/>
		</linearGradient>
		<circle style="opacity:0.3;fill:url(#SVGID_3_);" cx="245.55" cy="171.43" r="112.8"/>
	</g>
	<g>
		<g>
			<g>
				<path style="fill:#FFFFFF;" d="M393.92,290.35c2.86-3.29,5.54-8.06,7.53-13.43c1.99-5.37,3.07-10.73,3.04-15.09
					c-0.03-4.68-1.37-7.74-3.76-8.63c-2.4-0.89-5.41,0.57-8.48,4.09c-2.86,3.29-5.54,8.06-7.53,13.43
					c-1.99,5.37-3.07,10.73-3.04,15.09c0.03,4.68,1.37,7.74,3.76,8.63C387.83,295.33,390.84,293.88,393.92,290.35z M399.62,276.24
					c-4.11,11.08-10.42,17.52-13.51,16.38s-3.68-10.15,0.43-21.23c4.11-11.08,10.42-17.52,13.51-16.38
					C403.15,256.16,403.73,265.16,399.62,276.24z"/>
				<path style="fill:#FF4C4C;" d="M378.59,281.81c4.21,1.13,9.67,1.45,15.37,0.89s10.99-1.94,14.9-3.87
					c4.19-2.08,6.36-4.62,6.11-7.16c-0.25-2.54-2.88-4.62-7.39-5.83c-4.21-1.13-9.67-1.45-15.37-0.89
					c-5.7,0.56-10.99,1.94-14.9,3.87c-4.19,2.08-6.36,4.62-6.11,7.16c0.21,2.17,2.15,3.99,5.51,5.23
					C377.29,281.43,377.92,281.63,378.59,281.81z M413.04,271.85c0.16,1.66-1.67,3.57-5.04,5.23c-3.7,1.83-8.76,3.14-14.23,3.68
					c-5.47,0.54-10.69,0.25-14.68-0.83c-3.63-0.98-5.8-2.49-5.97-4.15c-0.32-3.29,7.51-7.75,19.27-8.91
					c5.47-0.54,10.69-0.25,14.68,0.83c0.63,0.17,1.22,0.36,1.76,0.56C411.39,269.21,412.9,270.48,413.04,271.85z"/>
				<path style="fill:#3E97F4;" d="M408.27,289.72c1.85-1.77,1.86-5.11,0.03-9.42c-1.7-4.01-4.82-8.51-8.78-12.65
					c-3.96-4.14-8.3-7.46-12.23-9.35c-4.22-2.02-7.56-2.16-9.41-0.4c-1.85,1.77-1.86,5.11-0.03,9.42c1.7,4.01,4.82,8.51,8.78,12.65
					c3.96,4.14,8.3,7.46,12.23,9.35c0.63,0.3,1.23,0.56,1.82,0.78C404.04,291.35,406.7,291.22,408.27,289.72z M386.46,260.06
					c3.73,1.78,7.87,4.96,11.67,8.94c3.8,3.98,6.78,8.26,8.39,12.07c1.47,3.46,1.62,6.1,0.41,7.26c-1.21,1.15-3.84,0.88-7.23-0.74
					c-3.73-1.78-7.87-4.96-11.67-8.94c-8.16-8.55-11.19-17.04-8.81-19.32c1-0.95,2.97-0.93,5.53,0.02
					C385.3,259.54,385.87,259.78,386.46,260.06z"/>
			</g>
			<path style="fill:#FBC316;" d="M397.61,275.49c-0.93,2.5-3.7,3.77-6.2,2.85c-2.5-0.93-3.77-3.7-2.85-6.2
				c0.93-2.5,3.7-3.77,6.2-2.85C397.26,270.22,398.53,273,397.61,275.49z"/>
			<path style="fill:#FBC316;" d="M398.45,255.8c-0.54,1.47-2.17,2.22-3.64,1.67c-1.47-0.54-2.22-2.17-1.67-3.64
				c0.54-1.47,2.17-2.22,3.64-1.67C398.24,252.71,398.99,254.34,398.45,255.8z"/>
			<path style="fill:#FBC316;" d="M411.11,286.93c-0.54,1.47-2.17,2.22-3.64,1.67c-1.47-0.54-2.22-2.17-1.67-3.64
				c0.54-1.47,2.17-2.22,3.64-1.67C410.91,283.83,411.65,285.46,411.11,286.93z"/>
			<path style="fill:#FBC316;" d="M378.89,271.58c-0.54,1.47-2.17,2.22-3.64,1.67c-1.47-0.54-2.22-2.17-1.67-3.64
				c0.54-1.47,2.17-2.22,3.64-1.67C378.69,268.48,379.44,270.11,378.89,271.58z"/>
		</g>
		<g>
			<g>
				<path style="fill:#FFFFFF;" d="M103.59,334.09c2.86-3.29,5.54-8.06,7.53-13.43c1.99-5.37,3.07-10.73,3.04-15.09
					c-0.03-4.68-1.37-7.74-3.76-8.63c-2.4-0.89-5.41,0.57-8.48,4.09c-2.86,3.29-5.54,8.06-7.53,13.43
					c-1.99,5.37-3.07,10.73-3.04,15.09c0.03,4.68,1.37,7.74,3.76,8.63C97.51,339.07,100.52,337.62,103.59,334.09z M109.3,319.98
					c-4.11,11.08-10.42,17.52-13.51,16.38s-3.68-10.15,0.43-21.23c4.11-11.08,10.42-17.52,13.51-16.38
					C112.82,299.9,113.41,308.9,109.3,319.98z"/>
				<path style="fill:#F58D37;" d="M88.26,325.55c4.21,1.13,9.67,1.45,15.37,0.89c5.7-0.56,10.99-1.94,14.9-3.87
					c4.19-2.08,6.36-4.62,6.11-7.16c-0.25-2.54-2.88-4.62-7.39-5.83c-4.21-1.13-9.67-1.45-15.37-0.89
					c-5.7,0.56-10.99,1.94-14.9,3.87c-4.19,2.08-6.36,4.62-6.11,7.16c0.21,2.17,2.15,3.99,5.51,5.23
					C86.96,325.17,87.59,325.37,88.26,325.55z M122.71,315.59c0.16,1.66-1.67,3.57-5.04,5.23c-3.7,1.83-8.76,3.14-14.23,3.68
					c-5.47,0.54-10.69,0.25-14.68-0.83c-3.63-0.98-5.8-2.49-5.97-4.15c-0.32-3.29,7.51-7.75,19.27-8.91
					c5.47-0.54,10.69-0.25,14.68,0.83c0.63,0.17,1.22,0.36,1.76,0.56C121.07,312.95,122.58,314.22,122.71,315.59z"/>
				<path style="fill:#00D6E1;" d="M117.95,333.46c1.85-1.77,1.86-5.11,0.03-9.42c-1.7-4.01-4.82-8.51-8.78-12.65
					c-3.96-4.14-8.3-7.46-12.23-9.35c-4.22-2.02-7.56-2.16-9.41-0.4c-1.85,1.77-1.86,5.11-0.03,9.42c1.7,4.01,4.82,8.51,8.78,12.65
					c3.96,4.14,8.3,7.46,12.23,9.35c0.63,0.3,1.23,0.56,1.82,0.78C113.72,335.09,116.37,334.97,117.95,333.46z M96.13,303.8
					c3.73,1.78,7.87,4.96,11.67,8.94c3.8,3.98,6.78,8.26,8.39,12.07c1.47,3.46,1.62,6.1,0.41,7.26c-1.21,1.15-3.84,0.88-7.23-0.74
					c-3.73-1.78-7.87-4.96-11.67-8.94c-8.16-8.55-11.19-17.04-8.81-19.32c1-0.95,2.97-0.93,5.53,0.02
					C94.98,303.28,95.54,303.52,96.13,303.8z"/>
			</g>
			<path style="fill:#FBC316;" d="M107.28,319.24c-0.93,2.5-3.7,3.77-6.2,2.85c-2.5-0.93-3.77-3.7-2.85-6.2s3.7-3.77,6.2-2.85
				C106.93,313.96,108.2,316.74,107.28,319.24z"/>
			<path style="fill:#FBC316;" d="M108.12,299.55c-0.54,1.47-2.17,2.22-3.64,1.67c-1.47-0.54-2.22-2.17-1.67-3.64
				c0.54-1.47,2.17-2.22,3.64-1.67C107.92,296.45,108.67,298.08,108.12,299.55z"/>
			<path style="fill:#FBC316;" d="M120.78,330.67c-0.54,1.47-2.17,2.22-3.64,1.67c-1.47-0.54-2.22-2.17-1.67-3.64
				c0.54-1.47,2.17-2.22,3.64-1.67C120.58,327.57,121.33,329.2,120.78,330.67z"/>
			<path style="fill:#FBC316;" d="M88.57,315.32c-0.54,1.47-2.17,2.22-3.64,1.67c-1.47-0.54-2.22-2.17-1.67-3.64
				c0.54-1.47,2.17-2.22,3.64-1.67C88.36,312.22,89.11,313.85,88.57,315.32z"/>
		</g>
	</g>
	<g>
		<g>
			
				<linearGradient id="SVGID_4_" gradientUnits="userSpaceOnUse" x1="-50.4385" y1="747.886" x2="97.3318" y2="850.6503" gradientTransform="matrix(0.5909 -0.8067 0.8067 0.5909 -484.281 -173.0854)">
				<stop  offset="0" style="stop-color:#FFFFFF"/>
				<stop  offset="0.3472" style="stop-color:#FFFFFF;stop-opacity:0.6219"/>
				<stop  offset="1" style="stop-color:#FFFFFF;stop-opacity:0"/>
			</linearGradient>
			<path style="opacity:0.2;fill:url(#SVGID_4_);" d="M184.54,319.72c0,0,9.08,2.96,27.8,3.63c0,0-72.53-19.05-107.34-95.95
				l-16.84,3.33c3.21,19.9,13.94,53.57,49.13,82.08c0,0-12.89-16.43-11.4-20.74c0,0,62.02,78.98,145.71,31.7
				C271.59,323.77,225.72,341.46,184.54,319.72z"/>
			<g>
				<g>
					<path style="fill:#F58D37;" d="M105.7,235.04c-1.06,6.48-2.48,10.48-1.49,24.09c0,0.03,0,0.06,0.01,0.09
						c-0.01-0.03-0.03-0.06-0.04-0.08c-5.77-12.37-8.95-15.17-13.03-20.31c-4.1-5.17-3.37-12.95-3.37-12.95l7.12-2.44l0.03-0.01
						l7.4-1.34C102.34,222.09,106.77,228.52,105.7,235.04z"/>
					<path style="fill:#FBC316;" d="M101.17,247.46c-2.17-3.48-4.03-5.73-5.95-8.06c-0.63-0.76-1.27-1.54-1.93-2.36
						c-2.15-2.71-3.12-8.75-3.21-11.02l4.93-1.28l5.07-1.32c1.03,2.02,3.45,7.67,2.89,11.1c-0.17,1.04-0.35,2.04-0.53,3
						C101.89,240.49,101.37,243.36,101.17,247.46z"/>
					<path style="fill:#F9F7A7;" d="M99.43,240.78c-0.9-1.3-1.76-2.49-2.62-3.66l-0.01-0.01c-0.65-0.9-1.33-1.83-2.01-2.79
						c-1.28-1.82-2.28-5.83-2.77-8.79l6.17-1.6c1.2,3.03,2.35,6.89,2.13,8.96c-0.12,1.18-0.26,2.32-0.39,3.42l0,0.01
						C99.75,237.74,99.58,239.2,99.43,240.78z"/>
				</g>
				<g>
					<path style="fill:#FF4C4C;" d="M77.51,211.58c-0.83,1.12-1.41,2.48-1.79,3.97c-1.92,7.35,0.86,17.74,0.86,17.74s0,0,0,0
						c-0.2,0-8.57-0.2-13.95-9.46c-2.82-4.86-2.97-10.23-2.47-14.28c0.09-0.74,0.59-1.19,1.16-1.34c0.42-0.11,0.87-0.06,1.25,0.17
						c0.33,0.19,0.59,0.52,0.71,0.97l2.84-10.86l2.13-8.13c0,0,0,0,0,0C74.05,198.4,77.51,211.58,77.51,211.58z"/>
					<path style="fill:#D9283B;" d="M76.57,233.29c-0.2,0-8.57-0.2-13.95-9.46c-2.82-4.86-2.97-10.23-2.47-14.28
						c0.09-0.74,0.59-1.19,1.16-1.34c0.42-0.11,0.87-0.06,1.25,0.17c0.23,0.3,0.47,0.63,0.71,0.97c0,0-0.57,8.86,4.13,15.89
						C72.03,232.15,76.43,233.25,76.57,233.29z"/>
					<path style="fill:#D9283B;" d="M77.51,211.58c-0.83,1.12-1.41,2.48-1.79,3.97c-4.63-4.96-7.68-11.56-9.6-17.05l2.13-8.13
						c0,0,0,0,0,0C74.05,198.4,77.51,211.58,77.51,211.58z"/>
				</g>
				<g>
					<path style="fill:#FF4C4C;" d="M104.35,204.6c1.27,0.58,2.44,1.48,3.5,2.59c5.25,5.49,7.89,15.91,7.89,15.91s0,0,0,0
						c0.18-0.1,7.39-4.35,7.58-15.05c0.1-5.62-2.39-10.38-4.8-13.67c-0.44-0.6-1.09-0.75-1.66-0.6c-0.42,0.11-0.79,0.38-1.01,0.75
						c-0.19,0.33-0.27,0.74-0.15,1.2l-7.77-8.1l-5.82-6.06c0,0,0,0,0,0C100.96,191.4,104.35,204.6,104.35,204.6z"/>
					<path style="fill:#D9283B;" d="M115.74,223.1c0.18-0.1,7.39-4.35,7.58-15.05c0.1-5.62-2.39-10.38-4.8-13.67
						c-0.44-0.6-1.09-0.75-1.66-0.6c-0.42,0.11-0.79,0.38-1.01,0.75c-0.05,0.38-0.1,0.78-0.15,1.2c0,0,4.81,7.46,4.13,15.89
						C119.15,219.9,115.85,223.01,115.74,223.1z"/>
					<path style="fill:#D9283B;" d="M104.35,204.6c1.27,0.58,2.44,1.48,3.5,2.59c1.63-6.59,1.08-13.84,0.08-19.57l-5.82-6.06
						c0,0,0,0,0,0C100.96,191.4,104.35,204.6,104.35,204.6z"/>
				</g>
				<path style="fill:#FFFFFF;" d="M102.3,182.62c0.87,3.35,1.51,6.04,1.91,8.72c0.4,2.68,0.56,5.36,0.48,8.69
					c0,0.11-0.01,0.21-0.02,0.32l-0.49,5.34l-0.54,5.9l-1.02,11.22l-14.82,3.85l-0.72-1.06l-5.63-8.24l-3.34-4.89
					c-4.23-6.16-7.46-13.09-9.43-20.43c-0.06-0.21-0.11-0.42-0.17-0.63c-2.62-10.09-2.96-18.82-2.23-26.01
					c0.05-0.51,0.11-1.02,0.17-1.51c0.15-1.19,0.33-2.34,0.53-3.43c0.09-0.47,0.18-0.94,0.27-1.39c0.05-0.23,0.1-0.46,0.15-0.69
					c0.64-2.92,1.43-5.47,2.24-7.62c0.94-2.51,1.9-4.48,2.66-5.88c0.83-1.53,2.57-1.98,4.04-1.05c2.49,1.58,6.55,4.55,10.85,9.41
					c0.17,0.19,0.34,0.39,0.51,0.58c0.3,0.35,0.61,0.71,0.91,1.08c0.71,0.86,1.42,1.77,2.13,2.74c0.29,0.39,0.57,0.79,0.86,1.2
					C95.73,164.75,99.68,172.54,102.3,182.62z"/>
				<path style="fill:#013558;" d="M103.16,216.93l-0.53,5.86c-0.59,0.34-1.19,0.66-1.79,0.96c-0.51,0.25-1.02,0.49-1.53,0.71
					c-1.83,0.79-3.68,1.38-5.57,1.75c-1.94,0.38-3.92,0.54-5.94,0.44l-3.32-4.86c2.55,0,5.04-0.24,7.46-0.71
					c2.86-0.56,5.64-1.46,8.33-2.68c0.45-0.2,0.89-0.42,1.34-0.64C102.13,217.49,102.65,217.22,103.16,216.93z"/>
				<path style="opacity:0.2;" d="M93.74,226.21c-1.94,0.38-3.92,0.54-5.94,0.44l-3.32-4.86l-3.03-4.44l-3.34-4.89
					c-4.23-6.16-7.46-13.09-9.43-20.43c-0.06-0.21-0.11-0.42-0.17-0.63c-3.55-13.65-2.92-24.83-1.11-33.04
					c0.64-2.92,1.43-5.47,2.24-7.62c1.92,0.73,2.56,0.11,4.15,4c0,0-6.38,22.69,1.56,40.54c7.27,16.35,11.47,11.12,11.47,11.12
					l5.13,14.68L93.74,226.21z"/>
				<g>
					<path style="fill:#FF4C4C;" d="M97.92,231.78c-0.05,0.41-0.34,0.68-0.67,0.77c-0.33,0.09-0.72-0.01-0.96-0.35
						c-8.95-12.44-11.33-36.09-11.94-45.77c-0.03-0.5,0.29-0.83,0.67-0.93c0.38-0.1,0.83,0.04,1.04,0.49
						C90.24,194.74,99.67,216.55,97.92,231.78z"/>
					<path style="fill:#D9283B;" d="M85.01,185.5l12.23,47.05c-0.33,0.09-0.72-0.01-0.96-0.35c-8.95-12.44-11.33-36.09-11.94-45.77
						C84.31,185.94,84.63,185.6,85.01,185.5z"/>
				</g>
				<g>
					<g>
						<path style="fill:#013558;" d="M90.09,170.96c1.19,4.58-1.56,9.26-6.14,10.45c-4.58,1.19-9.26-1.56-10.45-6.14
							c-1.19-4.58,1.56-9.26,6.14-10.45S88.9,166.37,90.09,170.96z"/>
						<path style="fill:#00D6E1;" d="M88.36,171.41c0.01,0.03,0.02,0.06,0.02,0.09c0.88,3.56-1.25,7.19-4.79,8.16
							c-0.03,0.01-0.06,0.02-0.09,0.02c-0.62,0.16-1.24,0.23-1.84,0.22c-1.11-0.02-2.17-0.32-3.12-0.84
							c-0.81-0.44-1.53-1.05-2.1-1.79c-0.55-0.71-0.97-1.53-1.21-2.45c-0.94-3.62,1.24-7.33,4.86-8.27
							c0.92-0.24,1.85-0.28,2.73-0.14c0.92,0.14,1.8,0.47,2.58,0.96c0.91,0.57,1.69,1.36,2.25,2.31
							C87.96,170.22,88.2,170.79,88.36,171.41z"/>
						<path style="opacity:0.1;" d="M87.65,169.69c-0.56-0.95-1.34-1.74-2.25-2.31c-0.78-0.49-1.66-0.82-2.58-0.96
							c-0.88-0.14-1.81-0.1-2.73,0.14c-3.62,0.94-5.8,4.65-4.86,8.27c0.05,0.18,0.1,0.36,0.16,0.53c-0.6-3.44,1.54-6.83,4.98-7.72
							c0.92-0.24,1.85-0.28,2.73-0.14c0.92,0.14,1.8,0.47,2.58,0.96c0.91,0.57,1.69,1.36,2.25,2.31c0.22,0.37,0.4,0.77,0.54,1.19
							c-0.03-0.15-0.06-0.31-0.1-0.46c-0.01-0.03-0.01-0.06-0.02-0.09C88.2,170.79,87.96,170.22,87.65,169.69z"/>
					</g>
					
						<linearGradient id="SVGID_5_" gradientUnits="userSpaceOnUse" x1="78.0085" y1="173.7862" x2="73.0087" y2="197.6187" gradientTransform="matrix(0.9916 0.1296 -0.1296 0.9916 33.3029 -19.5327)">
						<stop  offset="0" style="stop-color:#FFFFFF"/>
						<stop  offset="1" style="stop-color:#FFFFFF;stop-opacity:0"/>
					</linearGradient>
					<path style="fill:url(#SVGID_5_);" d="M82.75,168.26c0,0,3.33,1.97,3.32,5.23c-0.01,3.57-2.7,4.87-5.93,4.79
						c0,0,2.76,1.52,5.75-0.94C89,174.79,87.54,169.51,82.75,168.26z"/>
				</g>
				<g>
					<path style="fill:#FF4C4C;" d="M87.18,153.22c-6.29,2.86-12.89,4.57-19.78,5.14c1.39-6.33,3.48-10.91,4.89-13.5
						c0.51-0.93,1.35-1.46,2.26-1.52c0.59-0.04,1.2,0.11,1.78,0.47C78.83,145.39,82.88,148.37,87.18,153.22z"/>
					<path style="opacity:0.3;fill:#FFFFFF;" d="M78.65,146.83c-0.45-0.35-0.73-0.64-1.42-1.2c-1.07-0.88-1.7-0.97-2.19-0.18
						c-0.89,1.45,4.02,6.71,7.24,6.49C84.78,151.77,80.62,148.34,78.65,146.83z"/>
					<path style="fill:#D9283B;" d="M87.18,153.22c-6.29,2.86-12.89,4.57-19.78,5.14c1.39-6.33,3.48-10.91,4.89-13.5
						c0.51-0.93,1.35-1.46,2.26-1.52c-0.33,0.5-2.65,4.11-1.77,7.48C73.73,154.44,79.22,156.39,87.18,153.22z"/>
				</g>
			</g>
		</g>
		<g>
			
				<linearGradient id="SVGID_6_" gradientUnits="userSpaceOnUse" x1="271.4284" y1="963.5569" x2="419.1912" y2="1066.3159" gradientTransform="matrix(-0.6534 0.757 -0.757 -0.6534 1330.1471 486.6781)">
				<stop  offset="0" style="stop-color:#FFFFFF"/>
				<stop  offset="0.3472" style="stop-color:#FFFFFF;stop-opacity:0.6219"/>
				<stop  offset="1" style="stop-color:#FFFFFF;stop-opacity:0"/>
			</linearGradient>
			<path style="opacity:0.2;fill:url(#SVGID_6_);" d="M329.2,44.8c0,0-8.81-3.68-27.42-5.84c0,0,70.78,24.78,99.33,104.21
				l17.05-1.97c-1.61-20.09-9.62-54.51-42.42-85.74c0,0,11.54,17.41,9.71,21.59c0,0-55.52-83.68-142.71-43.23
				C242.75,33.82,289.88,19.84,329.2,44.8z"/>
			<g>
				<g>
					<path style="fill:#F58D37;" d="M401.02,135.5c1.57-6.38,3.3-10.25,3.41-23.89c0-0.03,0-0.06,0-0.09
						c0.01,0.03,0.02,0.06,0.03,0.08c4.76,12.79,7.71,15.83,11.37,21.29c3.68,5.48,2.32,13.18,2.32,13.18l-7.29,1.86l-0.03,0.01
						l-7.49,0.74C403.35,148.68,399.44,141.91,401.02,135.5z"/>
					<path style="fill:#FBC316;" d="M406.54,123.48c1.88,3.64,3.56,6.03,5.29,8.51c0.56,0.8,1.14,1.64,1.73,2.51
						c1.93,2.88,2.42,8.97,2.32,11.24l-5.02,0.88l-5.16,0.91c-0.87-2.1-2.83-7.92-1.99-11.3c0.25-1.02,0.52-2,0.77-2.95
						C405.26,130.37,406.01,127.55,406.54,123.48z"/>
					<path style="fill:#F9F7A7;" d="M407.74,130.28c0.79,1.37,1.56,2.62,2.32,3.86l0.01,0.01c0.58,0.95,1.18,1.93,1.78,2.94
						c1.13,1.91,1.81,6,2.06,8.98l-6.28,1.11c-0.95-3.12-1.79-7.05-1.41-9.1c0.22-1.16,0.45-2.29,0.67-3.38l0-0.01
						C407.17,133.28,407.46,131.84,407.74,130.28z"/>
				</g>
				<g>
					<path style="fill:#3E97F4;" d="M427.26,161.14c0.92-1.05,1.6-2.36,2.1-3.81c2.5-7.17,0.56-17.75,0.56-17.75s0,0,0,0
						c0.2,0.02,8.53,0.88,13.15,10.54c2.42,5.07,2.15,10.44,1.32,14.43c-0.15,0.73-0.68,1.14-1.26,1.24
						c-0.42,0.07-0.88-0.01-1.23-0.26c-0.31-0.22-0.55-0.56-0.63-1.03l-3.7,10.59l-2.77,7.93c0,0,0,0,0,0
						C429.66,174.55,427.26,161.14,427.26,161.14z"/>
					<path style="fill:#007ACC;" d="M429.93,139.57c0.2,0.02,8.53,0.88,13.15,10.54c2.42,5.07,2.15,10.44,1.32,14.43
						c-0.15,0.73-0.68,1.14-1.26,1.24c-0.42,0.07-0.88-0.01-1.23-0.26c-0.21-0.32-0.42-0.67-0.63-1.03c0,0,1.28-8.79-2.85-16.17
						C434.36,141.07,430.06,139.62,429.93,139.57z"/>
					<path style="fill:#007ACC;" d="M427.26,161.14c0.92-1.05,1.6-2.36,2.1-3.81c4.22,5.31,6.74,12.14,8.21,17.77l-2.77,7.93
						c0,0,0,0,0,0C429.66,174.55,427.26,161.14,427.26,161.14z"/>
				</g>
				<g>
					<path style="fill:#3E97F4;" d="M399.94,165.95c-1.22-0.68-2.31-1.67-3.28-2.86c-4.8-5.89-6.59-16.49-6.59-16.49s0,0,0,0
						c-0.18,0.09-7.71,3.75-8.75,14.4c-0.55,5.59,1.55,10.54,3.7,14.01c0.39,0.63,1.03,0.84,1.61,0.73
						c0.42-0.07,0.82-0.31,1.07-0.67c0.22-0.31,0.33-0.72,0.24-1.18l7.1,8.69l5.31,6.51c0,0,0,0,0,0
						C402.27,179.38,399.94,165.95,399.94,165.95z"/>
					<path style="fill:#007ACC;" d="M390.06,146.6c-0.18,0.09-7.71,3.75-8.75,14.4c-0.55,5.59,1.55,10.54,3.7,14.01
						c0.39,0.63,1.03,0.84,1.61,0.73c0.42-0.07,0.82-0.31,1.07-0.67c0.08-0.37,0.17-0.77,0.24-1.18c0,0-4.2-7.82-2.85-16.17
						C386.41,149.51,389.95,146.69,390.06,146.6z"/>
					<path style="fill:#007ACC;" d="M399.94,165.95c-1.22-0.68-2.31-1.67-3.28-2.86c-2.15,6.44-2.18,13.71-1.64,19.5l5.31,6.51
						c0,0,0,0,0,0C402.27,179.38,399.94,165.95,399.94,165.95z"/>
				</g>
				<path style="fill:#FFFFFF;" d="M400.23,188.03c-0.6-3.41-1.02-6.14-1.2-8.85c-0.18-2.71-0.13-5.39,0.22-8.7
					c0.01-0.11,0.02-0.21,0.04-0.32l0.91-5.28l1.01-5.83l1.91-11.1l15.08-2.66l0.63,1.11l4.96,8.67l2.94,5.14
					c3.72,6.47,6.39,13.64,7.76,21.12c0.04,0.21,0.08,0.43,0.12,0.64c1.81,10.27,1.45,19,0.15,26.11c-0.09,0.51-0.19,1-0.29,1.49
					c-0.24,1.18-0.51,2.3-0.8,3.38c-0.12,0.47-0.25,0.92-0.38,1.37c-0.07,0.23-0.13,0.45-0.2,0.68c-0.87,2.86-1.86,5.34-2.84,7.41
					c-1.14,2.43-2.25,4.32-3.12,5.65c-0.95,1.46-2.72,1.77-4.11,0.72c-2.36-1.77-6.16-5.06-10.06-10.24
					c-0.15-0.2-0.31-0.41-0.46-0.62c-0.27-0.37-0.55-0.76-0.82-1.15c-0.64-0.91-1.27-1.88-1.9-2.9c-0.26-0.41-0.51-0.83-0.76-1.27
					C405.36,206.37,402.04,198.29,400.23,188.03z"/>
				<path style="fill:#013558;" d="M402.12,153.75l1-5.8c0.62-0.29,1.24-0.56,1.86-0.81c0.53-0.21,1.05-0.41,1.58-0.58
					c1.88-0.64,3.78-1.08,5.69-1.3c1.97-0.23,3.95-0.22,5.95,0.03l2.92,5.11c-2.54-0.2-5.04-0.16-7.5,0.12
					c-2.9,0.33-5.74,1-8.52,2.01c-0.46,0.17-0.92,0.34-1.38,0.53C403.18,153.28,402.65,153.51,402.12,153.75z"/>
				<path style="opacity:0.2;" d="M412.25,145.26c1.97-0.23,3.95-0.22,5.95,0.03l2.92,5.11l2.67,4.66l2.94,5.14
					c3.72,6.47,6.39,13.64,7.76,21.12c0.04,0.21,0.08,0.43,0.12,0.64c2.45,13.89,0.93,24.98-1.53,33.03
					c-0.87,2.86-1.86,5.34-2.84,7.41c-1.86-0.88-2.54-0.32-3.82-4.32c0,0,8.18-22.11,1.68-40.53c-5.95-16.88-10.55-12-10.55-12
					l-3.94-15.04L412.25,145.26z"/>
				<g>
					<path style="fill:#3E97F4;" d="M408.53,139.37c0.08-0.4,0.39-0.65,0.73-0.71c0.34-0.06,0.71,0.07,0.93,0.42
						c7.93,13.11,8.41,36.88,8.25,46.58c-0.01,0.5-0.36,0.81-0.74,0.87c-0.39,0.07-0.82-0.1-1-0.57
						C413.23,176.91,405.56,154.41,408.53,139.37z"/>
					<path style="fill:#007ACC;" d="M417.69,186.53l-8.44-47.87c0.34-0.06,0.71,0.07,0.93,0.42c7.93,13.11,8.41,36.88,8.25,46.58
						C418.43,186.16,418.08,186.46,417.69,186.53z"/>
				</g>
				<g>
					<g>
						<path style="fill:#013558;" d="M411.47,200.63c-0.82-4.66,2.29-9.11,6.96-9.93c4.66-0.82,9.11,2.29,9.93,6.96
							c0.82,4.66-2.29,9.11-6.96,9.93C416.74,208.4,412.29,205.29,411.47,200.63z"/>
						<path style="fill:#00D6E1;" d="M413.24,200.31c-0.01-0.03-0.01-0.06-0.01-0.09c-0.59-3.62,1.82-7.07,5.43-7.75
							c0.03-0.01,0.06-0.01,0.09-0.02c0.63-0.11,1.25-0.13,1.86-0.07c1.1,0.11,2.14,0.49,3.04,1.08c0.77,0.51,1.44,1.17,1.95,1.95
							c0.49,0.75,0.84,1.61,1.01,2.54c0.65,3.68-1.82,7.21-5.5,7.85c-0.94,0.17-1.86,0.13-2.73-0.08c-0.91-0.21-1.76-0.62-2.5-1.17
							c-0.86-0.64-1.57-1.49-2.06-2.49C413.54,201.53,413.35,200.94,413.24,200.31z"/>
						<path style="opacity:0.1;" d="M413.8,202.08c0.48,1,1.19,1.84,2.06,2.49c0.74,0.55,1.59,0.95,2.5,1.17
							c0.87,0.21,1.8,0.24,2.73,0.08c3.68-0.65,6.15-4.17,5.5-7.85c-0.03-0.18-0.07-0.36-0.12-0.54c0.32,3.47-2.08,6.68-5.58,7.3
							c-0.94,0.16-1.86,0.13-2.73-0.08c-0.91-0.21-1.76-0.62-2.5-1.17c-0.86-0.64-1.57-1.49-2.06-2.49
							c-0.19-0.39-0.34-0.8-0.45-1.23c0.01,0.16,0.03,0.31,0.06,0.47c0,0.03,0.01,0.06,0.01,0.09
							C413.35,200.94,413.54,201.53,413.8,202.08z"/>
					</g>
					
						<linearGradient id="SVGID_7_" gradientUnits="userSpaceOnUse" x1="421.8996" y1="-4.6218" x2="416.8997" y2="19.2107" gradientTransform="matrix(-0.9781 -0.2083 0.2083 -0.9781 826.4029 292.1701)">
						<stop  offset="0" style="stop-color:#FFFFFF"/>
						<stop  offset="1" style="stop-color:#FFFFFF;stop-opacity:0"/>
					</linearGradient>
					<path style="fill:url(#SVGID_7_);" d="M418.58,203.9c0,0-3.16-2.23-2.9-5.48c0.29-3.56,3.08-4.64,6.3-4.31
						c0,0-2.64-1.73-5.81,0.47C412.86,196.89,413.9,202.27,418.58,203.9z"/>
				</g>
				<g>
					<path style="fill:#3E97F4;" d="M412.96,218.54c6.5-2.35,13.21-3.53,20.13-3.55c-1.89,6.2-4.34,10.59-5.95,13.06
						c-0.58,0.89-1.46,1.35-2.38,1.34c-0.59-0.01-1.19-0.21-1.73-0.61C420.66,227.01,416.86,223.72,412.96,218.54z"/>
					<path style="opacity:0.3;fill:#FFFFFF;" d="M420.95,225.59c0.42,0.38,0.68,0.69,1.32,1.31c1,0.96,1.61,1.11,2.17,0.35
						c1.01-1.37-3.47-7.01-6.7-7.04C415.23,220.18,419.1,223.92,420.95,225.59z"/>
					<path style="fill:#007ACC;" d="M412.96,218.54c6.5-2.35,13.21-3.53,20.13-3.55c-1.89,6.2-4.34,10.59-5.95,13.06
						c-0.58,0.89-1.46,1.35-2.38,1.34c0.37-0.47,2.97-3.89,2.37-7.31C426.47,218.4,421.15,216.02,412.96,218.54z"/>
				</g>
			</g>
		</g>
	</g>
	<g>
		<g>
			<path style="fill:#FF4C4C;" d="M121.6,87.85c-0.03,0.27-0.07,0.55-0.11,0.82c-0.31,1.93-0.88,3.83-1.73,5.63
				c-0.53,1.13-1.17,2.23-1.91,3.27c-0.23,0.33-0.47,0.65-0.72,0.96c-0.32,0.41-0.67,0.8-1.03,1.19c-0.14,0.15-0.28,0.3-0.43,0.45
				c-0.2,0.21-0.41,0.41-0.62,0.61c-2.15,2.02-4.61,3.5-7.22,4.45c-1.44,0.53-2.92,0.89-4.42,1.09c-1.93,0.26-3.89,0.26-5.81-0.01
				c-1.35-0.19-2.67-0.5-3.97-0.95h-0.01c-0.17-0.06-0.35-0.12-0.52-0.19c-1.25-0.47-2.47-1.06-3.64-1.77
				c-1.46-0.89-2.83-1.97-4.07-3.24c-0.11-0.11-0.22-0.23-0.33-0.35c-0.39-0.42-0.77-0.85-1.12-1.29c-0.25-0.32-0.49-0.64-0.72-0.96
				c-0.13-0.18-0.25-0.36-0.37-0.54c-0.51-0.76-0.96-1.55-1.35-2.35c-0.06-0.13-0.12-0.25-0.18-0.38c-0.85-1.8-1.42-3.7-1.73-5.63
				c-0.04-0.27-0.08-0.54-0.11-0.82c-0.23-1.87-0.2-3.77,0.07-5.63c0.08-0.55,0.18-1.09,0.31-1.64c0.26-1.15,0.62-2.28,1.07-3.38
				c0.64-1.55,1.47-3.03,2.49-4.42c0.06-0.09,0.13-0.18,0.2-0.27c0.59-0.78,1.23-1.52,1.94-2.22c0.03-0.03,0.06-0.07,0.1-0.1
				c0.12-0.12,0.25-0.24,0.37-0.36c0.06-0.06,0.12-0.11,0.18-0.17c0.39-0.36,0.78-0.69,1.19-1.01c0.51-0.41,1.04-0.78,1.57-1.13
				c0.75-0.49,1.51-0.92,2.3-1.3c1.15-0.56,2.35-1.01,3.56-1.35c1.42-0.39,2.86-0.64,4.32-0.73c0.51-0.03,1.03-0.05,1.54-0.05
				c1.43,0.01,2.87,0.16,4.28,0.47c1.54,0.33,3.05,0.83,4.5,1.5c1.48,0.68,2.9,1.55,4.22,2.59c0.46,0.36,0.91,0.75,1.34,1.16
				c0.17,0.16,0.33,0.32,0.49,0.48c0.12,0.12,0.23,0.24,0.35,0.36c0.05,0.05,0.09,0.1,0.14,0.15c0.01,0.01,0.02,0.02,0.03,0.04
				c0.58,0.63,1.12,1.28,1.62,1.95c1.02,1.39,1.85,2.88,2.49,4.42c0.46,1.1,0.81,2.23,1.07,3.38c0.12,0.54,0.23,1.09,0.31,1.64
				C121.8,84.08,121.82,85.97,121.6,87.85z"/>
			<path style="fill:#D9283B;" d="M120.15,77.19H80.93c0.64-1.55,1.47-3.03,2.49-4.42h34.24C118.68,74.16,119.51,75.65,120.15,77.19
				z"/>
			<path style="fill:#D9283B;" d="M119.76,94.3c-0.53,1.13-1.17,2.23-1.91,3.27H83.23c-0.13-0.18-0.25-0.36-0.37-0.54
				c-0.51-0.76-0.96-1.55-1.35-2.35c-0.06-0.13-0.12-0.25-0.18-0.38H119.76z"/>
			<path style="fill:#D9283B;" d="M117.13,98.53c-0.32,0.41-0.67,0.8-1.03,1.19c-0.14,0.15-0.28,0.3-0.43,0.45H85.4
				c-0.11-0.11-0.22-0.23-0.33-0.35c-0.39-0.42-0.77-0.85-1.12-1.29H117.13z"/>
			<path style="fill:#D9283B;" d="M121.53,82.21H79.55c0.08-0.55,0.18-1.09,0.31-1.64h41.36C121.35,81.12,121.45,81.66,121.53,82.21
				z"/>
			<path style="fill:#D9283B;" d="M121.6,87.85c-0.03,0.27-0.07,0.55-0.11,0.82H79.59c-0.04-0.27-0.08-0.54-0.11-0.82H121.6z"/>
			<path style="fill:#D9283B;" d="M115.52,70.29H85.56c0.03-0.03,0.06-0.07,0.1-0.1c0.12-0.12,0.25-0.24,0.37-0.36
				c0.06-0.06,0.12-0.11,0.18-0.17c0.39-0.36,0.78-0.69,1.19-1.01h26.29c0.46,0.36,0.91,0.75,1.34,1.16
				C115.19,69.96,115.36,70.12,115.52,70.29z"/>
			<path style="opacity:0.2;" d="M116.01,70.79c8.02,8.55,7.59,21.97-0.96,29.99c-5.94,5.57-14.22,7.06-21.42,4.59
				c11.57,1.85,22.51-12.93,17.36-24.88c-6.49-15.06-22.03-12.97-22.03-12.97C97.43,62,108.86,63.17,116.01,70.79z"/>
			
				<linearGradient id="SVGID_8_" gradientUnits="userSpaceOnUse" x1="763.7836" y1="-715.6036" x2="763.7836" y2="-695.8657" gradientTransform="matrix(4.900000e-03 -1 1 4.900000e-03 781.3221 852.5225)">
				<stop  offset="0" style="stop-color:#FFFFFF"/>
				<stop  offset="1" style="stop-color:#FFFFFF;stop-opacity:0"/>
			</linearGradient>
			<path style="opacity:0.8;fill:url(#SVGID_8_);" d="M84.83,73.14c-2.48,3.63-7.78,13.76,0.87,24.51c0.84,1.04,2.4,1.14,3.36,0.2
				l0.46-0.45c0.84-0.83,0.91-2.16,0.16-3.06c-2.23-2.68-5.76-9.01-0.94-18.92c0.59-1.22,0-2.67-1.28-3.13l0,0
				C86.5,71.93,85.42,72.28,84.83,73.14z"/>
		</g>
		<g>
			<path style="fill:#00D6E1;" d="M262.74,289.55c0.26,0,0.52,0,0.78,0c0,0,0.01,0,0.01,0c5.33,0.14,10.1,2.56,13.37,6.33
				c2.72,3.14,4.39,7.21,4.47,11.69c0.03,1.54-0.14,3.03-0.47,4.46c-0.11,0.46-0.23,0.92-0.38,1.37
				c-2.31,7.31-9.09,12.66-17.18,12.8c-1.68,0.03-3.31-0.17-4.86-0.57c-0.97-0.25-1.91-0.57-2.81-0.97
				c-3.33-1.46-6.14-3.88-8.08-6.92c-1.28-2-2.18-4.26-2.6-6.69c-0.17-0.94-0.26-1.9-0.27-2.88c-0.12-7.07,3.79-13.27,9.6-16.43
				c0,0,0,0,0,0l0,0c0.98-0.53,2.01-0.98,3.09-1.32C259.09,289.88,260.88,289.58,262.74,289.55z"/>
			<path style="fill:#00ADBB;" d="M247.53,311.63c3.2,1.01,5.51,0.12,7.85,0.51c2.34,0.39,3.04,4.19,1.37,6.12
				c-1.66,1.93-3.79,1.55-3.34,3.02c0.45,1.48,2.54,1.71,2.27,3.38c-3.33-1.46-6.14-3.88-8.08-6.92c-1.28-2-2.18-4.26-2.6-6.69
				C245.68,311.14,246.53,311.32,247.53,311.63z"/>
			<path style="fill:#00ADBB;" d="M247.88,307.39c0,0,0.66,1.68,1.72,1.24s2.53-0.68,2.52-1.53c-0.01-0.85-0.02-1.48-0.67-1.9
				C250.8,304.79,247.22,306.12,247.88,307.39z"/>
			<path style="fill:#00ADBB;" d="M262.74,289.55c0.26,0,0.52,0,0.78,0c0,0,0.01,0,0.01,0c5.33,0.14,10.1,2.56,13.37,6.33
				c-1.27-0.23-3.38-1.64-4.84-0.13c-2.29,2.37-5.91,1.58-6.56,0.53c-0.65-1.05-2.16-2.72-5.35-3.09c-1.88-0.22-2.52-1.64-2.74-2.77
				C259.09,289.88,260.88,289.58,262.74,289.55z"/>
			<path style="fill:#00ADBB;" d="M277.77,307.74c0.05,2.97-4.63,2.2-4.79,5.38c-0.16,3.18,2.83,4.62,4.9,1.83
				c0.78-1.05,1.9-2.11,3.01-2.91c-1.86,8-8.97,14.03-17.56,14.17c-1.68,0.03-3.31-0.17-4.86-0.57c-0.06-0.91,0.07-2.69,1.49-4.88
				c2.07-3.21,2.98,0.8,3.78-2.39c0.8-3.19-0.5-4.87,2.86-6.41c3.37-1.54,0.76-5.52,3.92-6.64
				C273.69,304.2,277.72,304.77,277.77,307.74z"/>
			<path style="fill:#00ADBB;" d="M258.95,297.24c0,0,2.73-1.32,2.99,1.22c0.25,2.54-1.2,4.47-2.91,3.23
				c-1.72-1.24-4.03-0.15-5.74-0.97c-1.71-0.82-2.78-1.65-1.74-2.73c1.04-1.08,2.88-5.13,4.4-3.25
				C257.45,296.63,258.31,297.46,258.95,297.24z"/>
			<path style="opacity:0.2;" d="M254.32,291.75c-0.15,0.12-5.34,4.32-4.34,14.33c1,10.04,18.93,17.46,30.55,7.33
				c-2.31,7.31-9.09,12.66-17.18,12.8c-1.68,0.03-3.31-0.17-4.86-0.57c-0.97-0.25-1.91-0.57-2.81-0.97
				c-3.33-1.46-6.14-3.88-8.08-6.92c-1.28-2-2.18-4.26-2.6-6.69c-0.17-0.94-0.26-1.9-0.27-2.88
				C244.6,301.11,248.5,294.91,254.32,291.75z"/>
			<path style="opacity:0.4;fill:#FFFFFF;" d="M280.27,305.33c-1.24-4.18-5.67-14.53-19.17-14.78c-1.58-0.03-2.75,1.21-2.61,2.78
				l0.01,0.09c0.12,1.32,1.23,2.3,2.56,2.31c3.57,0.03,10.47,1.47,14.99,11.21c0.57,1.22,2.07,1.68,3.23,0.98l0,0
				C280.15,307.38,280.56,306.32,280.27,305.33z"/>
		</g>
	</g>
	<g>
		<linearGradient id="SVGID_9_" gradientUnits="userSpaceOnUse" x1="469.8951" y1="305.7489" x2="469.6875" y2="309.2779">
			<stop  offset="0" style="stop-color:#FFFFFF"/>
			<stop  offset="1" style="stop-color:#FFFFFF;stop-opacity:0"/>
		</linearGradient>
		<path style="fill:url(#SVGID_9_);" d="M470.87,306.97c0,0.58-0.47,1.05-1.05,1.05c-0.58,0-1.05-0.47-1.05-1.05
			c0-0.58,0.47-1.05,1.05-1.05C470.4,305.92,470.87,306.39,470.87,306.97z"/>
		<linearGradient id="SVGID_10_" gradientUnits="userSpaceOnUse" x1="381.7439" y1="233.112" x2="381.5363" y2="236.6407">
			<stop  offset="0" style="stop-color:#FFFFFF"/>
			<stop  offset="1" style="stop-color:#FFFFFF;stop-opacity:0"/>
		</linearGradient>
		<path style="fill:url(#SVGID_10_);" d="M382.72,234.33c0,0.58-0.47,1.05-1.05,1.05s-1.05-0.47-1.05-1.05
			c0-0.58,0.47-1.05,1.05-1.05S382.72,233.75,382.72,234.33z"/>
		<linearGradient id="SVGID_11_" gradientUnits="userSpaceOnUse" x1="470.9423" y1="221.879" x2="470.7347" y2="225.4078">
			<stop  offset="0" style="stop-color:#FFFFFF"/>
			<stop  offset="1" style="stop-color:#FFFFFF;stop-opacity:0"/>
		</linearGradient>
		<path style="fill:url(#SVGID_11_);" d="M471.92,223.1c0,0.58-0.47,1.05-1.05,1.05c-0.58,0-1.05-0.47-1.05-1.05
			s0.47-1.05,1.05-1.05C471.45,222.05,471.92,222.52,471.92,223.1z"/>
		<linearGradient id="SVGID_12_" gradientUnits="userSpaceOnUse" x1="467.2631" y1="171.8924" x2="467.0555" y2="175.4212">
			<stop  offset="0" style="stop-color:#FFFFFF"/>
			<stop  offset="1" style="stop-color:#FFFFFF;stop-opacity:0"/>
		</linearGradient>
		<path style="fill:url(#SVGID_12_);" d="M468.24,173.11c0,0.58-0.47,1.05-1.05,1.05c-0.58,0-1.05-0.47-1.05-1.05
			s0.47-1.05,1.05-1.05C467.77,172.07,468.24,172.54,468.24,173.11z"/>
		<linearGradient id="SVGID_13_" gradientUnits="userSpaceOnUse" x1="383.9955" y1="473.0286" x2="383.7879" y2="476.5573">
			<stop  offset="0" style="stop-color:#FFFFFF"/>
			<stop  offset="1" style="stop-color:#FFFFFF;stop-opacity:0"/>
		</linearGradient>
		<path style="fill:url(#SVGID_13_);" d="M384.97,474.25c0,0.58-0.47,1.05-1.05,1.05c-0.58,0-1.05-0.47-1.05-1.05
			c0-0.58,0.47-1.05,1.05-1.05C384.5,473.2,384.97,473.67,384.97,474.25z"/>
		<linearGradient id="SVGID_14_" gradientUnits="userSpaceOnUse" x1="372.2607" y1="317.4328" x2="372.0531" y2="320.9616">
			<stop  offset="0" style="stop-color:#FFFFFF"/>
			<stop  offset="1" style="stop-color:#FFFFFF;stop-opacity:0"/>
		</linearGradient>
		<path style="fill:url(#SVGID_14_);" d="M373.24,318.65c0,0.58-0.47,1.05-1.05,1.05c-0.58,0-1.05-0.47-1.05-1.05
			c0-0.58,0.47-1.05,1.05-1.05C372.77,317.61,373.24,318.08,373.24,318.65z"/>
		<linearGradient id="SVGID_15_" gradientUnits="userSpaceOnUse" x1="446.2275" y1="397.4772" x2="446.02" y2="401.0059">
			<stop  offset="0" style="stop-color:#FFFFFF"/>
			<stop  offset="1" style="stop-color:#FFFFFF;stop-opacity:0"/>
		</linearGradient>
		<path style="fill:url(#SVGID_15_);" d="M447.2,398.7c0,0.58-0.47,1.05-1.05,1.05s-1.05-0.47-1.05-1.05c0-0.58,0.47-1.05,1.05-1.05
			S447.2,398.12,447.2,398.7z"/>
		<linearGradient id="SVGID_16_" gradientUnits="userSpaceOnUse" x1="480.0718" y1="450.6581" x2="479.8642" y2="454.1869">
			<stop  offset="0" style="stop-color:#FFFFFF"/>
			<stop  offset="1" style="stop-color:#FFFFFF;stop-opacity:0"/>
		</linearGradient>
		<path style="fill:url(#SVGID_16_);" d="M481.05,451.88c0,0.58-0.47,1.05-1.05,1.05c-0.58,0-1.05-0.47-1.05-1.05
			c0-0.58,0.47-1.05,1.05-1.05C480.58,450.83,481.05,451.3,481.05,451.88z"/>
		<linearGradient id="SVGID_17_" gradientUnits="userSpaceOnUse" x1="406.1895" y1="347.7312" x2="405.9819" y2="351.2602">
			<stop  offset="0" style="stop-color:#FFFFFF"/>
			<stop  offset="1" style="stop-color:#FFFFFF;stop-opacity:0"/>
		</linearGradient>
		<path style="fill:url(#SVGID_17_);" d="M407.16,348.95c0,0.58-0.47,1.05-1.05,1.05c-0.58,0-1.05-0.47-1.05-1.05
			s0.47-1.05,1.05-1.05C406.7,347.91,407.16,348.37,407.16,348.95z"/>
		<linearGradient id="SVGID_18_" gradientUnits="userSpaceOnUse" x1="147.274" y1="451.7054" x2="147.0664" y2="455.2346">
			<stop  offset="0" style="stop-color:#FFFFFF"/>
			<stop  offset="1" style="stop-color:#FFFFFF;stop-opacity:0"/>
		</linearGradient>
		<path style="fill:url(#SVGID_18_);" d="M148.25,452.93c0,0.58-0.47,1.05-1.05,1.05c-0.58,0-1.05-0.47-1.05-1.05
			c0-0.58,0.47-1.05,1.05-1.05C147.78,451.88,148.25,452.35,148.25,452.93z"/>
		<linearGradient id="SVGID_19_" gradientUnits="userSpaceOnUse" x1="245.9719" y1="453.8003" x2="245.7643" y2="457.3294">
			<stop  offset="0" style="stop-color:#FFFFFF"/>
			<stop  offset="1" style="stop-color:#FFFFFF;stop-opacity:0"/>
		</linearGradient>
		<path style="fill:url(#SVGID_19_);" d="M246.95,455.02c0,0.58-0.47,1.05-1.05,1.05c-0.58,0-1.05-0.47-1.05-1.05
			c0-0.58,0.47-1.05,1.05-1.05C246.48,453.97,246.95,454.44,246.95,455.02z"/>
		<linearGradient id="SVGID_20_" gradientUnits="userSpaceOnUse" x1="32.4498" y1="467.2849" x2="32.2422" y2="470.8141">
			<stop  offset="0" style="stop-color:#FFFFFF"/>
			<stop  offset="1" style="stop-color:#FFFFFF;stop-opacity:0"/>
		</linearGradient>
		<path style="fill:url(#SVGID_20_);" d="M33.43,468.51c0,0.58-0.47,1.05-1.05,1.05c-0.58,0-1.05-0.47-1.05-1.05
			c0-0.58,0.47-1.05,1.05-1.05C32.96,467.46,33.43,467.93,33.43,468.51z"/>
		<linearGradient id="SVGID_21_" gradientUnits="userSpaceOnUse" x1="100.8445" y1="471.9811" x2="100.6369" y2="475.5103">
			<stop  offset="0" style="stop-color:#FFFFFF"/>
			<stop  offset="1" style="stop-color:#FFFFFF;stop-opacity:0"/>
		</linearGradient>
		<path style="fill:url(#SVGID_21_);" d="M101.82,473.2c0,0.58-0.47,1.05-1.05,1.05c-0.58,0-1.05-0.47-1.05-1.05
			c0-0.58,0.47-1.05,1.05-1.05C101.35,472.16,101.82,472.62,101.82,473.2z"/>
		<linearGradient id="SVGID_22_" gradientUnits="userSpaceOnUse" x1="28.8691" y1="338.6735" x2="28.6615" y2="342.2026">
			<stop  offset="0" style="stop-color:#FFFFFF"/>
			<stop  offset="1" style="stop-color:#FFFFFF;stop-opacity:0"/>
		</linearGradient>
		<path style="fill:url(#SVGID_22_);" d="M29.84,339.89c0,0.58-0.47,1.05-1.05,1.05c-0.58,0-1.05-0.47-1.05-1.05
			c0-0.58,0.47-1.05,1.05-1.05C29.38,338.85,29.84,339.32,29.84,339.89z"/>
		<linearGradient id="SVGID_23_" gradientUnits="userSpaceOnUse" x1="25.4187" y1="407.2304" x2="25.2111" y2="410.7596">
			<stop  offset="0" style="stop-color:#FFFFFF"/>
			<stop  offset="1" style="stop-color:#FFFFFF;stop-opacity:0"/>
		</linearGradient>
		<path style="fill:url(#SVGID_23_);" d="M26.39,408.45c0,0.58-0.47,1.05-1.05,1.05s-1.05-0.47-1.05-1.05
			c0-0.58,0.47-1.05,1.05-1.05S26.39,407.87,26.39,408.45z"/>
		<linearGradient id="SVGID_24_" gradientUnits="userSpaceOnUse" x1="354.0559" y1="88.8857" x2="353.8483" y2="92.4147">
			<stop  offset="0" style="stop-color:#FFFFFF"/>
			<stop  offset="1" style="stop-color:#FFFFFF;stop-opacity:0"/>
		</linearGradient>
		<path style="fill:url(#SVGID_24_);" d="M355.03,90.11c0,0.58-0.47,1.05-1.05,1.05c-0.58,0-1.05-0.47-1.05-1.05
			c0-0.58,0.47-1.05,1.05-1.05C354.56,89.06,355.03,89.53,355.03,90.11z"/>
		<linearGradient id="SVGID_25_" gradientUnits="userSpaceOnUse" x1="34.5445" y1="195.2384" x2="34.3369" y2="198.7674">
			<stop  offset="0" style="stop-color:#FFFFFF"/>
			<stop  offset="1" style="stop-color:#FFFFFF;stop-opacity:0"/>
		</linearGradient>
		<path style="fill:url(#SVGID_25_);" d="M35.52,196.46c0,0.58-0.47,1.05-1.05,1.05s-1.05-0.47-1.05-1.05
			c0-0.58,0.47-1.05,1.05-1.05S35.52,195.88,35.52,196.46z"/>
		<linearGradient id="SVGID_26_" gradientUnits="userSpaceOnUse" x1="137.5245" y1="87.8384" x2="137.3169" y2="91.3671">
			<stop  offset="0" style="stop-color:#FFFFFF"/>
			<stop  offset="1" style="stop-color:#FFFFFF;stop-opacity:0"/>
		</linearGradient>
		<path style="fill:url(#SVGID_26_);" d="M138.5,89.06c0,0.58-0.47,1.05-1.05,1.05c-0.58,0-1.05-0.47-1.05-1.05s0.47-1.05,1.05-1.05
			C138.03,88.01,138.5,88.48,138.5,89.06z"/>
		<linearGradient id="SVGID_27_" gradientUnits="userSpaceOnUse" x1="59.0072" y1="69.2981" x2="58.7997" y2="72.8271">
			<stop  offset="0" style="stop-color:#FFFFFF"/>
			<stop  offset="1" style="stop-color:#FFFFFF;stop-opacity:0"/>
		</linearGradient>
		<path style="fill:url(#SVGID_27_);" d="M59.98,70.52c0,0.58-0.47,1.05-1.05,1.05c-0.58,0-1.05-0.47-1.05-1.05s0.47-1.05,1.05-1.05
			C59.51,69.47,59.98,69.94,59.98,70.52z"/>
		<linearGradient id="SVGID_28_" gradientUnits="userSpaceOnUse" x1="191.4735" y1="28.391" x2="191.266" y2="31.9198">
			<stop  offset="0" style="stop-color:#FFFFFF"/>
			<stop  offset="1" style="stop-color:#FFFFFF;stop-opacity:0"/>
		</linearGradient>
		<path style="fill:url(#SVGID_28_);" d="M192.45,29.61c0,0.58-0.47,1.05-1.05,1.05c-0.58,0-1.05-0.47-1.05-1.05
			c0-0.58,0.47-1.05,1.05-1.05C191.98,28.57,192.45,29.03,192.45,29.61z"/>
		<linearGradient id="SVGID_29_" gradientUnits="userSpaceOnUse" x1="269.2898" y1="47.4185" x2="269.0822" y2="50.9475">
			<stop  offset="0" style="stop-color:#FFFFFF"/>
			<stop  offset="1" style="stop-color:#FFFFFF;stop-opacity:0"/>
		</linearGradient>
		<path style="fill:url(#SVGID_29_);" d="M270.27,48.64c0,0.58-0.47,1.05-1.05,1.05c-0.58,0-1.05-0.47-1.05-1.05
			c0-0.58,0.47-1.05,1.05-1.05C269.8,47.59,270.27,48.06,270.27,48.64z"/>
		<linearGradient id="SVGID_30_" gradientUnits="userSpaceOnUse" x1="425.3259" y1="46.5402" x2="425.1183" y2="50.0689">
			<stop  offset="0" style="stop-color:#FFFFFF"/>
			<stop  offset="1" style="stop-color:#FFFFFF;stop-opacity:0"/>
		</linearGradient>
		<circle style="fill:url(#SVGID_30_);" cx="425.25" cy="47.76" r="1.05"/>
		<linearGradient id="SVGID_31_" gradientUnits="userSpaceOnUse" x1="452.3094" y1="13.0224" x2="452.1018" y2="16.5512">
			<stop  offset="0" style="stop-color:#FFFFFF"/>
			<stop  offset="1" style="stop-color:#FFFFFF;stop-opacity:0"/>
		</linearGradient>
		<path style="fill:url(#SVGID_31_);" d="M453.28,14.24c0,0.58-0.47,1.05-1.05,1.05c-0.58,0-1.05-0.47-1.05-1.05
			c0-0.58,0.47-1.05,1.05-1.05C452.82,13.2,453.28,13.67,453.28,14.24z"/>
		<linearGradient id="SVGID_32_" gradientUnits="userSpaceOnUse" x1="473.4309" y1="66.962" x2="473.2234" y2="70.4907">
			<stop  offset="0" style="stop-color:#FFFFFF"/>
			<stop  offset="1" style="stop-color:#FFFFFF;stop-opacity:0"/>
		</linearGradient>
		<circle style="fill:url(#SVGID_32_);" cx="473.36" cy="68.18" r="1.05"/>
		<linearGradient id="SVGID_33_" gradientUnits="userSpaceOnUse" x1="24.3714" y1="256.0829" x2="24.1639" y2="259.6117">
			<stop  offset="0" style="stop-color:#FFFFFF"/>
			<stop  offset="1" style="stop-color:#FFFFFF;stop-opacity:0"/>
		</linearGradient>
		<path style="fill:url(#SVGID_33_);" d="M25.35,257.3c0,0.58-0.47,1.05-1.05,1.05c-0.58,0-1.05-0.47-1.05-1.05
			c0-0.58,0.47-1.05,1.05-1.05C24.88,256.26,25.35,256.73,25.35,257.3z"/>
		<linearGradient id="SVGID_34_" gradientUnits="userSpaceOnUse" x1="72.6952" y1="125.2999" x2="72.4877" y2="128.8284">
			<stop  offset="0" style="stop-color:#FFFFFF"/>
			<stop  offset="1" style="stop-color:#FFFFFF;stop-opacity:0"/>
		</linearGradient>
		<path style="fill:url(#SVGID_34_);" d="M73.67,126.52c0,0.58-0.47,1.05-1.05,1.05c-0.58,0-1.05-0.47-1.05-1.05
			s0.47-1.05,1.05-1.05C73.2,125.47,73.67,125.94,73.67,126.52z"/>
		<linearGradient id="SVGID_35_" gradientUnits="userSpaceOnUse" x1="447.2748" y1="262.3998" x2="447.0673" y2="265.9286">
			<stop  offset="0" style="stop-color:#FFFFFF"/>
			<stop  offset="1" style="stop-color:#FFFFFF;stop-opacity:0"/>
		</linearGradient>
		<path style="fill:url(#SVGID_35_);" d="M448.25,263.62c0,0.58-0.47,1.05-1.05,1.05c-0.58,0-1.05-0.47-1.05-1.05
			c0-0.58,0.47-1.05,1.05-1.05C447.78,262.57,448.25,263.04,448.25,263.62z"/>
		<linearGradient id="SVGID_36_" gradientUnits="userSpaceOnUse" x1="332.4546" y1="456.4813" x2="332.2471" y2="460.0098">
			<stop  offset="0" style="stop-color:#FFFFFF"/>
			<stop  offset="1" style="stop-color:#FFFFFF;stop-opacity:0"/>
		</linearGradient>
		<path style="fill:url(#SVGID_36_);" d="M333.43,457.7c0,0.58-0.47,1.05-1.05,1.05c-0.58,0-1.05-0.47-1.05-1.05
			c0-0.58,0.47-1.05,1.05-1.05C332.96,456.66,333.43,457.12,333.43,457.7z"/>
		<linearGradient id="SVGID_37_" gradientUnits="userSpaceOnUse" x1="438.6111" y1="456.4813" x2="438.4036" y2="460.0098">
			<stop  offset="0" style="stop-color:#FFFFFF"/>
			<stop  offset="1" style="stop-color:#FFFFFF;stop-opacity:0"/>
		</linearGradient>
		<path style="fill:url(#SVGID_37_);" d="M439.59,457.7c0,0.58-0.47,1.05-1.05,1.05c-0.58,0-1.05-0.47-1.05-1.05
			c0-0.58,0.47-1.05,1.05-1.05C439.12,456.66,439.59,457.12,439.59,457.7z"/>
		<linearGradient id="SVGID_38_" gradientUnits="userSpaceOnUse" x1="460.6942" y1="360.0349" x2="460.4866" y2="363.5636">
			<stop  offset="0" style="stop-color:#FFFFFF"/>
			<stop  offset="1" style="stop-color:#FFFFFF;stop-opacity:0"/>
		</linearGradient>
		<path style="fill:url(#SVGID_38_);" d="M461.67,361.26c0,0.58-0.47,1.05-1.05,1.05c-0.58,0-1.05-0.47-1.05-1.05
			c0-0.58,0.47-1.05,1.05-1.05C461.2,360.21,461.67,360.68,461.67,361.26z"/>
		<linearGradient id="SVGID_39_" gradientUnits="userSpaceOnUse" x1="143.0909" y1="327.2693" x2="142.8833" y2="330.7981">
			<stop  offset="0" style="stop-color:#FFFFFF"/>
			<stop  offset="1" style="stop-color:#FFFFFF;stop-opacity:0"/>
		</linearGradient>
		<path style="fill:url(#SVGID_39_);" d="M144.07,328.49c0,0.58-0.47,1.05-1.05,1.05c-0.58,0-1.05-0.47-1.05-1.05
			c0-0.58,0.47-1.05,1.05-1.05C143.6,327.44,144.07,327.91,144.07,328.49z"/>
		<linearGradient id="SVGID_40_" gradientUnits="userSpaceOnUse" x1="343.7369" y1="25.9577" x2="343.5293" y2="29.4865">
			<stop  offset="0" style="stop-color:#FFFFFF"/>
			<stop  offset="1" style="stop-color:#FFFFFF;stop-opacity:0"/>
		</linearGradient>
		<path style="fill:url(#SVGID_40_);" d="M344.71,27.18c0,0.58-0.47,1.05-1.05,1.05c-0.58,0-1.05-0.47-1.05-1.05
			c0-0.58,0.47-1.05,1.05-1.05C344.24,26.13,344.71,26.6,344.71,27.18z"/>
		<linearGradient id="SVGID_41_" gradientUnits="userSpaceOnUse" x1="29.3425" y1="31.0134" x2="29.135" y2="34.5424">
			<stop  offset="0" style="stop-color:#FFFFFF"/>
			<stop  offset="1" style="stop-color:#FFFFFF;stop-opacity:0"/>
		</linearGradient>
		<path style="fill:url(#SVGID_41_);" d="M30.32,32.23c0,0.58-0.47,1.05-1.05,1.05c-0.58,0-1.05-0.47-1.05-1.05
			c0-0.58,0.47-1.05,1.05-1.05C29.85,31.19,30.32,31.66,30.32,32.23z"/>
		<linearGradient id="SVGID_42_" gradientUnits="userSpaceOnUse" x1="103.0346" y1="31.173" x2="102.2583" y2="44.37">
			<stop  offset="0" style="stop-color:#FFFFFF"/>
			<stop  offset="1" style="stop-color:#FFFFFF;stop-opacity:0"/>
		</linearGradient>
		<path style="fill:url(#SVGID_42_);" d="M106.69,35.74c-3.26,0.37-3.56,0.67-3.92,3.92c-0.37-3.26-0.67-3.56-3.92-3.92
			c3.26-0.37,3.56-0.67,3.92-3.92C103.13,35.08,103.43,35.37,106.69,35.74z"/>
		<path style="fill:#FBC316;" d="M53.66,299.42c-7.19,0.81-7.85,1.47-8.66,8.66c-0.81-7.19-1.47-7.85-8.66-8.66
			c7.19-0.81,7.85-1.47,8.66-8.66C45.81,297.95,46.47,298.61,53.66,299.42z"/>
		<path style="fill:#FFFFFF;" d="M201.25,292.88c-7.19,0.81-7.85,1.47-8.66,8.66c-0.81-7.19-1.47-7.85-8.66-8.66
			c7.19-0.81,7.85-1.47,8.66-8.66C193.4,291.41,194.06,292.07,201.25,292.88z"/>
		<path style="fill:#FFFFFF;" d="M337.54,315.63c-7.19,0.81-7.85,1.47-8.66,8.66c-0.81-7.19-1.47-7.85-8.66-8.66
			c7.19-0.81,7.85-1.47,8.66-8.66C329.69,314.16,330.34,314.82,337.54,315.63z"/>
		<path style="fill:#FFFFFF;" d="M159.3,57.3c-7.19,0.81-7.85,1.47-8.66,8.66c-0.81-7.19-1.47-7.85-8.66-8.66
			c7.19-0.81,7.85-1.47,8.66-8.66C151.45,55.83,152.1,56.49,159.3,57.3z"/>
		<path style="fill:#FFFFFF;" d="M476.9,97.57c-7.19,0.81-7.85,1.47-8.66,8.66c-0.81-7.19-1.47-7.85-8.66-8.66
			c7.19-0.81,7.85-1.47,8.66-8.66C469.05,96.1,469.71,96.76,476.9,97.57z"/>
		<path style="fill:#FBC316;" d="M447.2,315.63c-7.19,0.81-7.85,1.47-8.66,8.66c-0.81-7.19-1.47-7.85-8.66-8.66
			c7.19-0.81,7.85-1.47,8.66-8.66C439.35,314.17,440.01,314.82,447.2,315.63z"/>
		<path style="fill:#FBC316;" d="M438.59,80.58c-7.19,0.81-7.85,1.47-8.66,8.66c-0.81-7.19-1.47-7.85-8.66-8.66
			c7.19-0.81,7.85-1.47,8.66-8.66C430.74,79.11,431.39,79.76,438.59,80.58z"/>
		<linearGradient id="SVGID_43_" gradientUnits="userSpaceOnUse" x1="262.2979" y1="18.6877" x2="261.5216" y2="31.8847">
			<stop  offset="0" style="stop-color:#FFFFFF"/>
			<stop  offset="1" style="stop-color:#FFFFFF;stop-opacity:0"/>
		</linearGradient>
		<path style="fill:url(#SVGID_43_);" d="M265.95,23.26c-3.26,0.37-3.56,0.67-3.92,3.92c-0.37-3.26-0.67-3.56-3.92-3.92
			c3.26-0.37,3.56-0.67,3.92-3.92C262.4,22.59,262.69,22.89,265.95,23.26z"/>
		<linearGradient id="SVGID_44_" gradientUnits="userSpaceOnUse" x1="379.9663" y1="56.01" x2="379.19" y2="69.207">
			<stop  offset="0" style="stop-color:#FFFFFF"/>
			<stop  offset="1" style="stop-color:#FFFFFF;stop-opacity:0"/>
		</linearGradient>
		<path style="fill:url(#SVGID_44_);" d="M383.62,60.58c-3.26,0.37-3.56,0.67-3.92,3.92c-0.37-3.26-0.67-3.56-3.92-3.92
			c3.26-0.37,3.56-0.67,3.92-3.92C380.07,59.91,380.36,60.21,383.62,60.58z"/>
		<linearGradient id="SVGID_45_" gradientUnits="userSpaceOnUse" x1="28.492" y1="125.8774" x2="27.7157" y2="139.0744">
			<stop  offset="0" style="stop-color:#FFFFFF"/>
			<stop  offset="1" style="stop-color:#FFFFFF;stop-opacity:0"/>
		</linearGradient>
		<path style="fill:url(#SVGID_45_);" d="M32.15,130.45c-3.26,0.37-3.56,0.67-3.92,3.92c-0.37-3.26-0.67-3.56-3.92-3.92
			c3.26-0.37,3.56-0.67,3.92-3.92C28.59,129.78,28.89,130.08,32.15,130.45z"/>
		<linearGradient id="SVGID_46_" gradientUnits="userSpaceOnUse" x1="53.1164" y1="362.6555" x2="52.3401" y2="375.8525">
			<stop  offset="0" style="stop-color:#FFFFFF"/>
			<stop  offset="1" style="stop-color:#FFFFFF;stop-opacity:0"/>
		</linearGradient>
		<path style="fill:url(#SVGID_46_);" d="M56.77,367.22c-3.26,0.37-3.56,0.67-3.92,3.92c-0.37-3.26-0.67-3.56-3.92-3.92
			c3.26-0.37,3.56-0.67,3.92-3.92C53.22,366.56,53.51,366.86,56.77,367.22z"/>
		<linearGradient id="SVGID_47_" gradientUnits="userSpaceOnUse" x1="75.9428" y1="271.9962" x2="75.1665" y2="285.1931">
			<stop  offset="0" style="stop-color:#FFFFFF"/>
			<stop  offset="1" style="stop-color:#FFFFFF;stop-opacity:0"/>
		</linearGradient>
		<path style="fill:url(#SVGID_47_);" d="M79.6,276.56c-3.26,0.37-3.56,0.67-3.92,3.92c-0.37-3.26-0.67-3.56-3.92-3.92
			c3.26-0.37,3.56-0.67,3.92-3.92C76.04,275.9,76.34,276.2,79.6,276.56z"/>
		<linearGradient id="SVGID_48_" gradientUnits="userSpaceOnUse" x1="453.5536" y1="117.5928" x2="452.7773" y2="130.7898">
			<stop  offset="0" style="stop-color:#FFFFFF"/>
			<stop  offset="1" style="stop-color:#FFFFFF;stop-opacity:0"/>
		</linearGradient>
		<path style="fill:url(#SVGID_48_);" d="M457.21,122.16c-3.26,0.37-3.56,0.67-3.92,3.92c-0.37-3.26-0.67-3.56-3.92-3.92
			c3.26-0.37,3.56-0.67,3.92-3.92C453.65,121.5,453.95,121.79,457.21,122.16z"/>
	</g>
</g>
<g id="DESIGNED_BY_FREEPIK">
</g>
</svg>
