<?xml version="1.0" encoding="utf-8"?>
<!-- Generator: Adobe Illustrator 24.2.1, SVG Export Plug-In . SVG Version: 6.00 Build 0)  -->
<svg version="1.1" id="Layer_1" xmlns="http://www.w3.org/2000/svg" xmlns:xlink="http://www.w3.org/1999/xlink" x="0px" y="0px"
	 viewBox="0 0 1000 200" style="enable-background:new 0 0 1000 200;" xml:space="preserve">
<g id="text_1" transform="translate(7 312.828)">
	<path id="Path_12" style="fill:#F17222;" d="M7.15-272.89c0,17.51,12.82,29.74,29.15,29.74c12.65,0,22.71-6.28,27.06-17.51h-9.13
		c-3.18,6.95-9.38,10.89-17.93,10.89c-12.23,0-21.36-8.88-21.36-23.12c0-14.33,9.13-23.2,21.36-23.2c8.54,0,14.74,3.94,17.93,10.97
		h9.13c-4.36-11.31-14.41-17.68-27.06-17.68C19.97-302.8,7.15-290.39,7.15-272.89z M153.92-243.66h7.62v-58.39h-7.62v25.63h-29.74
		v-25.63h-7.62v58.39h7.62v-26.47h29.74V-243.66z M253.69-243.66h7.62v-58.39h-7.62v25.63h-29.74v-25.63h-7.62v58.39h7.62v-26.47
		h29.74L253.69-243.66z M355.3-243.66h8.04l-21.03-58.05h-8.8l-21.11,58.05h8.04l4.69-12.98h25.47L355.3-243.66z M348.43-262.84
		h-21.11l10.56-29.49L348.43-262.84z M410.84-295.84h16v52.18h7.62v-52.19h15.92v-6.2h-39.54L410.84-295.84z M532.9-284.88
		c0,6.53-3.77,11.23-12.4,11.23h-11.23v-22.11h11.23C529.21-295.76,532.9-291.49,532.9-284.88z M501.65-302.05v58.4h7.62v-23.87
		h9.21l13.91,23.87h9.13l-14.66-24.47c8.19-1.29,14.15-8.46,13.91-16.75c0-9.55-6.53-17.17-20.28-17.17H501.65z M633.67-243.66h8.04
		l-21.03-58.05h-8.8l-21.11,58.05h8.04l4.69-12.98h25.47L633.67-243.66z M626.8-262.84h-21.11l10.56-29.49L626.8-262.84z
		 M700.43-274.31v-21.45h11.23c8.71,0,12.4,4.02,12.4,10.8c0,6.53-3.69,10.64-12.4,10.64L700.43-274.31z M731.85-284.95
		c0-9.55-6.45-17.09-20.19-17.09h-18.85v58.38h7.62v-24.38h11.23C726.15-268.03,731.85-276.08,731.85-284.95L731.85-284.95z
		 M822.41-243.66h8.05l-21.03-58.05h-8.8l-21.11,58.05h8.04l4.69-12.98h25.47L822.41-243.66z M815.54-262.84h-21.11l10.56-29.49
		L815.54-262.84z M877.95-295.84h16v52.18h7.62v-52.19h15.92v-6.2h-39.54V-295.84z M968.75-243.66h7.62v-58.39h-7.62V-243.66z"/>
	<path id="Path_11" style="fill:#4C4D4E;" d="M56.09-143.45c0-29.68-42.99-18.23-42.99-36.57c0-7.83,5.95-11.57,13.67-11.33
		c8.41,0.23,13.2,5.26,13.67,10.75h14.72c-1.17-13.9-12.15-22.08-27.69-22.08c-16.59,0-27.92,8.88-27.92,23.13
		c0,29.91,43.11,17.18,43.11,36.81c0,6.89-5.26,11.92-14.6,11.92c-9.23,0-13.9-5.37-14.49-12.03H-0.7
		c0,14.36,12.5,23.24,28.74,23.24C46.16-119.62,56.09-131.3,56.09-143.45z M126.66-120.44h14.01l-29.1-81.32H96.14l-29.07,81.32
		h13.9l5.84-16.59h34L126.66-120.44z M117.08-147.89H90.55l13.32-37.74L117.08-147.89z M153.3-120.44h13.32v-55.61l24.89,55.61h9.23
		l24.77-55.61v55.61h13.32v-81.2h-14.25l-28.39,63.68l-28.51-63.68H153.3V-120.44z M302.15-143.69c0,7.83-5.49,12.38-14.49,12.38
		h-17.99v-25.35h17.53C296.07-156.66,302.15-151.74,302.15-143.69z M300.05-179.09c0,7.48-5.26,11.57-13.9,11.57h-16.47v-23.25
		h16.47C294.79-190.77,300.05-186.45,300.05-179.09z M315.49-142.27c0-9.7-7.01-18.34-15.65-19.86c7.83-2.8,13.79-8.76,13.79-18.58
		c0-11.45-9.11-20.91-26.29-20.91h-30.98v81.19h32.48c16.59,0,26.64-9.46,26.64-21.85L315.49-142.27z M381.48-120.44h13.32v-81.2
		h-13.32v34.82h-38.21v-34.82h-13.32v81.2h13.32v-35.52h38.21L381.48-120.44z M467.12-120.44h14.02l-29.1-81.32h-15.43l-29.08,81.32
		h13.9l5.84-16.59h34L467.12-120.44z M457.54-147.89h-26.52l13.32-37.74L457.54-147.89z M524.61-143.1
		c0,6.78-3.39,11.68-10.52,11.68c-7.13,0-10.4-4.91-10.52-11.68h-13.45c0,14.72,9.93,23.48,23.95,23.48
		c14.02,0,23.96-8.75,23.96-23.48v-58.54H524.6L524.61-143.1z M559.66-120.44h13.31v-81.2h-13.32L559.66-120.44z M643.9-201.76
		v60.52l-40.07-60.52h-13.32v81.32h13.32v-60.64l40.07,60.64h13.32v-81.32H643.9z M729.54-120.44h14.02l-29.1-81.32h-15.43
		l-29.08,81.32h13.9l5.84-16.59h34L729.54-120.44z M719.96-147.89h-26.52l13.32-37.74L719.96-147.89z M793.22-202.69
		c-22.43-0.48-41,17.31-41.48,39.74c-0.01,0.58-0.01,1.15,0,1.73c-0.52,22.39,17.2,40.96,39.59,41.48c0.63,0.01,1.26,0.01,1.89,0
		c20.28,0.25,37.55-14.71,40.19-34.82v-10.4h-44.75v10.63h30.49c-1.98,13.67-11.22,22.55-25.94,22.55
		c-16.11,0-27.79-11.57-27.79-29.45s11.68-29.32,27.81-29.32c9.7,0,17.42,4.09,21.73,12.27h16.01
		C824.76-194.16,810.16-202.69,793.22-202.69L793.22-202.69z M901.29-120.44h14.02l-29.09-81.32H870.8l-29.1,81.32h13.9l5.84-16.59
		h34L901.29-120.44z M891.71-147.89h-26.52l13.32-37.74L891.71-147.89z M971.04-177.34c0,8.06-4.67,13.79-15.07,13.79h-14.72v-27.22
		h14.72C966.37-190.77,971.04-185.51,971.04-177.34z M927.93-201.64v81.2h13.32v-32.48h10.16l18.69,32.48H986l-20.1-33.65
		c13.67-3.39,18.81-13.67,18.81-23.25c0-13.2-9.46-24.3-28.74-24.3H927.93z"/>
</g>
</svg>
