<svg xmlns="http://www.w3.org/2000/svg" width="389.844" height="78.6" viewBox="0 0 389.844 78.6">
  <g id="Web-ColorfulLogo" transform="translate(-1047.156 -213.999)">
    <text id="शिक्षण_दर्पण" data-name="शिक्षण दर्पण" transform="translate(1191 276)" fill="#039286" font-size="46" font-family="Noto Sans Devanagari-Bold, Noto Sans Devanagari" font-weight="700"><tspan x="0" y="0">शिक्षण दर्पण</tspan></text>
    <g id="Group_16602" data-name="Group 16602" transform="translate(-77.971 129.225)">
      <g id="Group_16601" data-name="Group 16601" transform="translate(1125.127 84.775)">
        <path id="Subtraction_2" data-name="Subtraction 2" d="M44.939,76.258c-.547,0-2.553-2.078-4.322-3.911a23.744,23.744,0,0,0-2.555-2.476c-1.116-.611-2.091-1.267-3.221-2.027A74.433,74.433,0,0,0,21.02,60.4c-2.058-1.057-4.039-2.264-5.787-3.329-2.46-1.5-4.583-2.793-6.028-3.134a15.878,15.878,0,0,0-3.462-.493,2.589,2.589,0,0,0-1.792.444.749.749,0,0,0-.083.091A10.762,10.762,0,0,0,2.684,50.7,4.692,4.692,0,0,0,1.14,48.752C.454,48.22,0,47.868,0,44.781a45.142,45.142,0,0,1,.912-9.036A44.766,44.766,0,0,1,35.755.91a45.216,45.216,0,0,1,18.052,0A44.764,44.764,0,0,1,88.654,35.756a45.115,45.115,0,0,1,.91,9.025,12.4,12.4,0,0,1-6.223,11.1c-3.61,2.314-8.175,3.535-12.2,4.612-1.438.385-2.8.748-4,1.133-5.538,1.371-10.833,4.791-14.3,7.422a60.216,60.216,0,0,0-6.257,5.429C46.566,74.487,45.012,76.258,44.939,76.258Zm.7-71.068L44.192,9.342l-4.335.112,3.44,2.678-1.234,4.221,3.573-2.5h0l3.573,2.5-1.235-4.221,3.443-2.678L47.08,9.342ZM3.808,54.34c-.011,0-.022-.009-.029-.024a.354.354,0,0,1,.088-.329c.022.255-.023.326-.037.342A.031.031,0,0,1,3.808,54.34Z" transform="translate(20.214 0)" fill="#f5a63a"/>
        <path id="Path_19087" data-name="Path 19087" d="M313.8,254.921a8.017,8.017,0,0,1,.935,2.676,46.352,46.352,0,0,0,4.9,11.585c3.011,4.654,7.268,6.216,12.618,5.519a63.128,63.128,0,0,0,9.036-2.268c.154.391-.165.432-.374.548a88.756,88.756,0,0,0-12.841,8.876,54.248,54.248,0,0,0-13.917,16.931c-.5.976-.891,2.006-1.4,2.984A204.03,204.03,0,0,0,313.8,254.921Z" transform="translate(-245.974 -236.345)" fill="#fff" fill-rule="evenodd"/>
        <path id="Path_19088" data-name="Path 19088" d="M152.975,272.812c.388-.189.759.1,1.132.222a44.315,44.315,0,0,0,8.453,1.931c5.587.668,9.736-1.461,12.586-6.263a53.356,53.356,0,0,0,4.951-12.665,3.941,3.941,0,0,1,.342-.906,208.533,208.533,0,0,0,.863,46C175.374,288.114,164.816,279.817,152.975,272.812Z" transform="translate(-117.166 -236.514)" fill="#fff" fill-rule="evenodd"/>
        <path id="Intersection_19" data-name="Intersection 19" d="M62.45,15.495a112.683,112.683,0,0,0-20.887-4.97,81.121,81.121,0,0,0-35.589,2.7,2.321,2.321,0,0,1-.963.125A67.169,67.169,0,0,1,0,.977c22.936-2.957,44.536.469,64.435,14.8a2.725,2.725,0,0,1-.624.077,3.668,3.668,0,0,1-1.36-.361Z" transform="translate(0 62.745)" fill="#039286"/>
        <path id="Intersection_20" data-name="Intersection 20" d="M0,15.778C19.765,1.542,41.211-1.933,63.975.918a67.144,67.144,0,0,1-5.024,12.417,3.1,3.1,0,0,1-.491-.115,81.121,81.121,0,0,0-35.589-2.7,112.67,112.67,0,0,0-20.886,4.97,3.673,3.673,0,0,1-1.36.36A2.724,2.724,0,0,1,0,15.778Z" transform="translate(65.751 62.745)" fill="#039286"/>
        <path id="Union_7" data-name="Union 7" d="M60.283,31.22c0,.119-.455.418-.455.418S37.347,9.839,2.063,14.416A61.914,61.914,0,0,1,0,0C2.9.211,46.453,3.812,60.273,31.194a.014.014,0,1,0,.02,0C74.114,3.812,117.669.211,120.567,0A61.919,61.919,0,0,1,118.5,14.416C83.22,9.839,60.738,31.639,60.738,31.639S60.286,31.339,60.283,31.22Z" transform="translate(4.818 45.022)" fill="#32bbaf"/>
        <circle id="Ellipse_40" data-name="Ellipse 40" cx="5.582" cy="5.582" r="5.582" transform="translate(43.989 23.58)" fill="#fff"/>
        <circle id="Ellipse_41" data-name="Ellipse 41" cx="5.582" cy="5.582" r="5.582" transform="translate(75.885 23.58)" fill="#fff"/>
      </g>
    </g>
  </g>
</svg>
