<?xml version="1.0" encoding="utf-8"?>
<!-- Generator: Adobe Illustrator 24.2.1, SVG Export Plug-In . SVG Version: 6.00 Build 0)  -->
<svg version="1.1" id="Layer_1" xmlns="http://www.w3.org/2000/svg" xmlns:xlink="http://www.w3.org/1999/xlink" x="0px" y="0px"
	 viewBox="0 0 400 233.2" style="enable-background:new 0 0 400 233.2;" xml:space="preserve">
<g id="logo_icon" transform="translate(13 307.484)">
	<g id="Group_1" transform="translate(346 207.5)">
		<path id="Path_1" style="fill:#4C4D4E;" d="M-2.97-366.41l-150.23,14.09l-178.12-26.52c-3.4-0.22-6.75,0.91-9.32,3.15
			c-0.83,0.88-1.55,1.84-2.17,2.87c-3.74,5.84-6.2,12.41-7.22,19.27c-0.05,0.58-0.08,1.17-0.07,1.76
			c-0.66,8.15,1.06,16.31,4.96,23.5c2.14,2.73,5,4.82,8.26,6.02c6.98,2.44,183.68,33.26,183.68,33.26l167.18-42.08l-167.18,33.01
			l-171.56-30.21l-2.83-0.47c-1.95-0.34-3.85-0.91-5.66-1.71c-1.27-0.85-2.43-1.86-3.45-3c-2.25-2.33-5.14-8.37-3.93-17.49
			c2.23-16.71,6.71-18.5,6.71-18.5l5.64,0.83l175.08,25.73L-2.97-366.41z"/>
		<path id="Path_3" style="fill:#4C4D4E;" d="M-1.73-486.48l-151.48,16.95l-176.88-29.38c-3.4-0.22-6.75,0.91-9.32,3.15
			c-0.83,0.88-1.55,1.84-2.17,2.87c-3.74,5.84-6.2,12.41-7.22,19.27c-0.05,0.58-0.08,1.17-0.07,1.76
			c-0.66,8.15,1.06,16.31,4.96,23.5c2.14,2.73,5,4.82,8.26,6.02c6.98,2.44,182.44,33.37,182.44,33.37l168.43-42.19l-168.43,33.11
			l-170.32-30.31l-2.83-0.47c-1.95-0.34-3.85-0.91-5.66-1.71c-1.27-0.85-2.43-1.86-3.45-3c-2.25-2.33-5.14-8.37-3.93-17.49
			c2.23-16.71,6.71-18.5,6.71-18.5l5.64,0.83l173.84,25.76L-1.73-486.48z"/>
		<path id="Path_2" style="fill:#9BCB3C;" d="M-153.21-336.57l-175.92-25.68c-2.43,4.3-3.54,9.21-3.18,14.14
			c0.48,8.58,2.19,11.44,2.19,11.44l176.89,32.2c-2.65-4.9-4.16-10.33-4.44-15.9C-157.35-326.02-155.83-331.55-153.21-336.57z"/>
		<path id="Path_4" style="fill:#F89634;" d="M-153.2-456.74l-174.66-25.58c-2.43,4.3-3.54,9.21-3.18,14.14
			c0.48,8.58,2.19,11.44,2.19,11.44l175.65,32.1c-2.57-5.16-4.06-10.79-4.39-16.54C-157.35-446.63-155.85-451.96-153.2-456.74z"/>
		<path id="Path_5" style="fill:#4C4D4E;" d="M-317.33-402.88l164.12,37.08l166.95-27.75c1.92-0.6,3.64-1.7,5-3.18
			c2.35-2.02,8.71-18.03-1.39-32.94c-1.39-2.22-3.97-3.4-6.56-2.98l-112.97,12.75L5.92-441.04c2.65-0.46,5.35-0.6,8.03-0.41
			c4.28,0.72,15.09,4.81,17.71,23.18c1.69,11.84-0.42,20.44-4.57,26.85c-0.11,0.2-2.73,4.34-10.43,7.74
			c-1.96,0.68-3.98,1.18-6.04,1.51l-163.84,27.25L-317.33-402.88z"/>
		<path id="Path_6" style="fill:#35C6F4;" d="M-153.2-404.85c3.08,5.28,4.86,11.21,5.17,17.31c-0.38,6.31-2.15,12.46-5.17,18
			L9.68-398c0,0,4.29-0.81,5.67-3.52c2.71-6.41,2.71-13.64,0-20.05c-1.17-3.46-4.51-5.7-8.15-5.47L-153.2-404.85z"/>
	</g>
	<path id="Path_10" style="fill:#4C4D4E;" d="M12.06-291.38l181.03,31.23l152.06-18.56l-153.93-21.32L12.06-291.38z"/>
</g>
</svg>
