<svg width="74" height="45" viewBox="0 0 74 45" fill="none" xmlns="http://www.w3.org/2000/svg">
<path d="M37.368 43.332C37.3676 43.3281 37.3658 43.3246 37.363 43.3219C32.388 33.4659 20.7241 28.989 11.8151 26.969C11.7111 26.4711 11.6681 25.9624 11.687 25.454C11.68 22.0504 12.3602 18.6803 13.687 15.5459C14.9644 12.5212 16.8171 9.77343 19.1421 7.45501C21.4607 5.13028 24.2085 3.27773 27.233 2.00005C30.3675 0.673715 33.7374 -0.00652527 37.141 5.08229e-05C40.5446 -0.00677224 43.9146 0.673478 47.0491 2.00005C50.0738 3.27737 52.8216 5.12997 55.14 7.45501C57.465 9.7734 59.3177 12.5212 60.5951 15.5459C61.9214 18.6805 62.6017 22.0505 62.5951 25.454C62.5973 25.9997 62.546 26.5443 62.442 27.08C53.713 29.126 42.278 33.606 37.374 43.323C37.3714 43.3256 37.3694 43.3286 37.368 43.332V43.332ZM38.796 10.5569C39.2127 14.9876 39.37 19.4389 39.2671 23.888C39.1611 28.3377 38.8061 32.778 38.204 37.188C38.361 36.888 38.5041 36.574 38.6271 36.294L38.636 36.274C38.751 36.017 38.871 35.751 39.004 35.492C40.9553 31.7769 43.6478 28.5014 46.915 25.868C49.1964 23.9763 51.6391 22.2883 54.2151 20.823C54.2371 20.81 54.264 20.798 54.285 20.789C54.385 20.742 54.496 20.689 54.425 20.512C54.057 20.612 53.6931 20.725 53.3501 20.827H53.337C52.0158 21.2572 50.6626 21.5819 49.29 21.798C48.8501 21.8567 48.4068 21.8867 47.963 21.888C46.7886 21.9247 45.626 21.6444 44.5973 21.0766C43.5686 20.5088 42.7119 19.6742 42.1171 18.6609C40.8916 16.6036 39.9538 14.388 39.3301 12.076C39.2811 11.922 39.2441 11.76 39.2111 11.618C39.1498 11.2383 39.0086 10.876 38.797 10.555L38.796 10.5569ZM20.749 20.596C20.6956 20.5953 20.6429 20.6074 20.5951 20.631C23.9418 22.5323 27.0651 24.8021 29.907 27.398C32.7645 30.0289 35.073 33.1995 36.6991 36.727C36.15 32.3927 35.8264 28.0328 35.73 23.665C35.6364 19.2974 35.7954 14.9282 36.206 10.579C36.124 10.7341 36.0612 10.8987 36.019 11.069L36.0121 11.095C35.3845 13.6051 34.4388 16.0246 33.198 18.295C32.5775 19.3994 31.6924 20.3323 30.6221 21.0099C29.5699 21.6286 28.3674 21.9446 27.1471 21.923C26.7794 21.922 26.412 21.8993 26.047 21.855C24.4148 21.6463 22.8072 21.2778 21.2471 20.7549C21.1941 20.7379 21.1411 20.7139 21.0901 20.6919H21.083C20.9829 20.6371 20.8727 20.6031 20.759 20.592L20.749 20.596ZM46.5491 13.396C45.7078 13.3968 44.9011 13.7313 44.3063 14.3262C43.7114 14.9211 43.3769 15.7277 43.3761 16.569C43.3769 17.4103 43.7114 18.2169 44.3063 18.8118C44.9011 19.4067 45.7078 19.7412 46.5491 19.742C47.3904 19.7412 48.1971 19.4067 48.7921 18.8118C49.3871 18.217 49.722 17.4104 49.723 16.569C49.7217 15.7277 49.3866 14.9213 48.7914 14.3268C48.1961 13.7323 47.3894 13.3983 46.5481 13.398L46.5491 13.396ZM28.4191 13.396C27.5778 13.3968 26.7711 13.7313 26.1763 14.3262C25.5814 14.9211 25.2469 15.7277 25.2461 16.569C25.2469 17.4103 25.5814 18.2169 26.1763 18.8118C26.7711 19.4067 27.5778 19.7412 28.4191 19.742C29.2603 19.7412 30.067 19.4067 30.6619 18.8118C31.2567 18.2169 31.5912 17.4103 31.592 16.569C31.5904 15.7278 31.2553 14.9215 30.6601 14.3271C30.0649 13.7326 29.2582 13.3985 28.417 13.398L28.4191 13.396ZM37.219 7.86895L39.25 9.28801L38.55 6.88799L40.5071 5.36602L38.042 5.30205L37.2201 2.94195L36.3981 5.30205L33.933 5.36602L35.89 6.88799L35.1901 9.28801L37.2211 7.86895H37.219Z" fill="white"/>
<path d="M37.375 44.6309C48.61 36.5389 60.801 34.563 73.741 36.184C73.0269 38.6261 72.0702 40.9905 70.885 43.242C70.7904 43.2281 70.697 43.2063 70.606 43.1769C64.0599 41.1709 57.1494 40.6476 50.376 41.645C46.3378 42.2068 42.3625 43.1528 38.504 44.47C38.2616 44.5857 37.9991 44.6535 37.731 44.67C37.6112 44.6708 37.4918 44.6576 37.375 44.6309V44.6309ZM35.499 44.467C31.6403 43.1497 27.6645 42.2038 23.626 41.642C16.8525 40.6447 9.94202 41.168 3.396 43.174C3.22112 43.2363 3.03514 43.2608 2.8501 43.246C1.66865 41.0026 0.713825 38.6469 0 36.2139C13.038 34.5329 25.3169 36.481 36.6279 44.627C36.5117 44.6554 36.3926 44.6701 36.2729 44.671C36.0045 44.6548 35.7417 44.5869 35.499 44.471V44.467Z" fill="white"/>
<path d="M37.604 43.3319C37.604 43.3989 37.346 43.5699 37.346 43.5699C32.871 39.7175 27.6326 36.8538 21.974 35.1665C16.3153 33.4792 10.3641 33.0064 4.50998 33.7789C3.79802 31.1033 3.40429 28.3529 3.33698 25.5849C4.98498 25.7049 29.743 27.7519 37.599 43.3169C37.5978 43.318 37.597 43.3195 37.5967 43.321C37.5963 43.3226 37.5964 43.3242 37.597 43.3257C37.5976 43.3272 37.5987 43.3285 37.6 43.3294C37.6013 43.3303 37.6029 43.3308 37.6045 43.3308C37.6061 43.3308 37.6076 43.3303 37.609 43.3294C37.6103 43.3285 37.6113 43.3272 37.6119 43.3257C37.6125 43.3242 37.6126 43.3226 37.6123 43.321C37.6119 43.3195 37.6111 43.318 37.61 43.3169C45.466 27.7519 70.224 25.7049 71.872 25.5849C71.8046 28.3529 71.4109 31.1032 70.699 33.7789C64.845 33.0062 58.8937 33.4789 53.2351 35.166C47.5765 36.8532 42.3381 39.7166 37.863 43.5689C37.863 43.5689 37.606 43.3989 37.604 43.3319Z" fill="#F5A63A"/>
</svg>
