<svg xmlns="http://www.w3.org/2000/svg" width="664.345" height="101.362" viewBox="0 0 664.345 101.362">
  <g id="logo_2" transform="translate(-359 -511)">
    <g id="text_1" transform="translate(7 312.828)">
      <path id="Path_12" data-name="Path 12" d="M1.634-13.262C1.634-5.32,7.448.228,14.858.228c5.738,0,10.3-2.85,12.274-7.942H22.99c-1.444,3.154-4.256,4.94-8.132,4.94-5.548,0-9.69-4.028-9.69-10.488,0-6.5,4.142-10.526,9.69-10.526,3.876,0,6.688,1.786,8.132,4.978h4.142c-1.976-5.13-6.536-8.018-12.274-8.018C7.448-26.828,1.634-21.2,1.634-13.262ZM68.21,0h3.458V-26.486H68.21v11.628H54.72V-26.486H51.262V0H54.72V-12.008H68.21Zm45.258,0h3.458V-26.486h-3.458v11.628H99.978V-26.486H96.52V0h3.458V-12.008h13.49Zm46.094,0h3.648l-9.538-26.334h-3.99L140.106,0h3.648l2.128-5.89h11.552Zm-3.116-8.7H146.87l4.788-13.376Zm28.31-14.972h7.258V0h3.458V-23.674h7.22v-2.812H184.756ZM240.122-18.7c0,2.964-1.71,5.092-5.624,5.092h-5.092V-23.636H234.5C238.45-23.636,240.122-21.7,240.122-18.7Zm-14.174-7.79V0h3.458V-10.83h4.18L239.894,0h4.142l-6.65-11.1a7.469,7.469,0,0,0,6.308-7.6c0-4.332-2.964-7.79-9.2-7.79ZM285.836,0h3.648l-9.538-26.334h-3.99L266.38,0h3.648l2.128-5.89h11.552ZM282.72-8.7h-9.576l4.788-13.376Zm33.4-5.206v-9.728h5.092c3.952,0,5.624,1.824,5.624,4.9,0,2.964-1.672,4.826-5.624,4.826Zm14.25-4.826c0-4.332-2.926-7.752-9.158-7.752h-8.55V0h3.458V-11.058h5.092C327.788-11.058,330.372-14.706,330.372-18.734ZM371.45,0H375.1L365.56-26.334h-3.99L351.994,0h3.648l2.128-5.89h11.552Zm-3.116-8.7h-9.576l4.788-13.376Zm28.31-14.972H403.9V0h3.458V-23.674h7.22v-2.812H396.644ZM437.836,0h3.458V-26.486h-3.458Z" transform="translate(570.686 234)" fill="#f2700c"/>
      <path id="Path_11" data-name="Path 11" d="M28.832-10.441c0-13.462-19.5-8.268-19.5-16.589,0-3.551,2.7-5.247,6.2-5.141,3.816.106,5.989,2.385,6.2,4.876h6.678C27.878-33.6,22.9-37.312,15.847-37.312c-7.526,0-12.667,4.028-12.667,10.494,0,13.568,19.557,7.791,19.557,16.7,0,3.127-2.385,5.406-6.625,5.406-4.187,0-6.307-2.438-6.572-5.459H3.074C3.074-3.657,8.745.371,16.112.371,24.327.371,28.832-4.929,28.832-10.441ZM60.844,0H67.2l-13.2-36.888h-7L33.814,0h6.307l2.65-7.526H58.194ZM56.5-12.455H44.467l6.042-17.119ZM72.928,0H78.97V-25.228L90.259,0h4.187l11.236-25.228V0h6.042V-36.835h-6.466L92.379-7.95,79.447-36.835H72.928ZM140.45-10.547c0,3.551-2.491,5.618-6.572,5.618h-8.162v-11.5h7.95C137.694-16.43,140.45-14.2,140.45-10.547ZM139.5-26.606c0,3.392-2.385,5.247-6.307,5.247h-7.473V-31.906h7.473C137.111-31.906,139.5-29.945,139.5-26.606Zm7,16.7c0-4.4-3.18-8.321-7.1-9.01,3.551-1.272,6.254-3.975,6.254-8.427,0-5.194-4.134-9.487-11.925-9.487H119.674V0h14.734C141.934,0,146.492-4.293,146.492-9.911ZM176.437,0h6.042V-36.835h-6.042v15.794H159.106V-36.835h-6.042V0h6.042V-16.112h17.331Zm38.849,0h6.36l-13.2-36.888h-7L188.256,0h6.307l2.65-7.526h15.423ZM210.94-12.455H198.909l6.042-17.119Zm30.422,2.173c0,3.074-1.537,5.3-4.77,5.3s-4.717-2.226-4.77-5.3h-6.1c0,6.678,4.505,10.653,10.865,10.653S247.457-3.6,247.457-10.282V-36.835h-6.1ZM257.262,0H263.3V-36.835h-6.042Zm38.213-36.888V-9.434L277.3-36.888h-6.042V0H277.3V-27.507L295.475,0h6.042V-36.888ZM334.324,0h6.36l-13.2-36.888h-7L307.294,0H313.6l2.65-7.526h15.423Zm-4.346-12.455H317.947l6.042-17.119Zm33.231-24.857A18.425,18.425,0,0,0,344.394-18.5,18.393,18.393,0,0,0,363.209.318a18.161,18.161,0,0,0,18.232-15.794v-4.717h-20.3v4.823h13.833c-.9,6.2-5.088,10.229-11.766,10.229C355.9-5.141,350.6-10.388,350.6-18.5s5.3-13.3,12.614-13.3c4.4,0,7.9,1.855,9.858,5.565h7.261C377.519-33.443,370.894-37.312,363.209-37.312ZM412.234,0h6.36L405.4-36.888h-7L385.2,0h6.307l2.65-7.526h15.423Zm-4.346-12.455H395.857L401.9-29.574Zm35.987-13.356c0,3.657-2.12,6.254-6.837,6.254H430.36V-31.906h6.678C441.755-31.906,443.875-29.521,443.875-25.811ZM424.318-36.835V0h6.042V-14.734h4.611L443.451,0h7.208l-9.116-15.264c6.2-1.537,8.533-6.2,8.533-10.547,0-5.989-4.293-11.024-13.038-11.024Z" transform="translate(565.686 289.895)" fill="#4b4c4d"/>
    </g>
    <g id="logo_icon" data-name="logo icon" transform="translate(13 307.484)">
      <g id="Group_1" data-name="Group 1" transform="translate(346 207.5)">
        <path id="Path_1" data-name="Path 1" d="M826.45,361.76l-69.686,6.534-82.622-12.3a5.985,5.985,0,0,0-4.322,1.461,7.8,7.8,0,0,0-1.008,1.332,22.869,22.869,0,0,0-3.35,8.938,7.61,7.61,0,0,0-.032.815,19.576,19.576,0,0,0,2.3,10.9,8.69,8.69,0,0,0,3.83,2.794c3.237,1.133,85.2,15.427,85.2,15.427l77.549-19.517-77.549,15.31L677.18,379.441l-1.314-.22a11.453,11.453,0,0,1-2.625-.792,8.5,8.5,0,0,1-1.6-1.391c-1.045-1.082-2.385-3.884-1.821-8.115,1.034-7.749,3.112-8.582,3.112-8.582l2.618.387,81.214,11.935Z" transform="translate(-665.332 -300.285)" fill="#4b4c4d"/>
        <path id="Path_3" data-name="Path 3" d="M826.45,361.76l-70.264,7.861-82.045-13.628a5.985,5.985,0,0,0-4.322,1.461,7.8,7.8,0,0,0-1.008,1.332,22.869,22.869,0,0,0-3.35,8.938,7.61,7.61,0,0,0-.032.815,19.576,19.576,0,0,0,2.3,10.9,8.69,8.69,0,0,0,3.83,2.794c3.237,1.133,84.624,15.478,84.624,15.478l78.126-19.568-78.126,15.359L677.18,379.441l-1.314-.22a11.453,11.453,0,0,1-2.625-.792,8.5,8.5,0,0,1-1.6-1.391c-1.045-1.082-2.385-3.884-1.821-8.115,1.034-7.749,3.112-8.582,3.112-8.582l2.618.387,80.636,11.948Z" transform="translate(-664.755 -355.978)" fill="#4b4c4d"/>
        <path id="Path_2" data-name="Path 2" d="M754.413,373.428l-81.6-11.91a11.6,11.6,0,0,0-1.474,6.557c.221,3.979,1.018,5.307,1.018,5.307l82.051,14.937a17.338,17.338,0,0,1-2.06-7.373A18.369,18.369,0,0,1,754.413,373.428Z" transform="translate(-662.982 -298.111)" fill="#9ace33"/>
        <path id="Path_4" data-name="Path 4" d="M753.836,373.382l-81.019-11.864a11.6,11.6,0,0,0-1.474,6.557c.221,3.979,1.018,5.307,1.018,5.307l81.474,14.892A19.683,19.683,0,0,1,751.8,380.6,16.382,16.382,0,0,1,753.836,373.382Z" transform="translate(-662.404 -353.805)" fill="#fb9630"/>
        <path id="Path_5" data-name="Path 5" d="M1037.741,535.042l76.128,17.2,77.441-12.87a5.324,5.324,0,0,0,2.319-1.473c1.088-.935,4.038-8.362-.643-15.281a3.023,3.023,0,0,0-3.041-1.384l-52.4,5.916,50.135-9.809a15.376,15.376,0,0,1,3.724-.189c1.983.332,7,2.229,8.215,10.75.784,5.49-.193,9.483-2.118,12.456-.052.094-1.267,2.011-4.836,3.591a16.612,16.612,0,0,1-2.8.7l-76,12.642Z" transform="translate(-1022.438 -490.483)" fill="#4b4c4d"/>
        <path id="Path_6" data-name="Path 6" d="M1092.418,532.225a17.761,17.761,0,0,1,2.4,8.03,19.923,19.923,0,0,1-2.4,8.351l75.555-13.2s1.989-.374,2.632-1.632a11.944,11.944,0,0,0,0-9.3,3.742,3.742,0,0,0-3.779-2.537Z" transform="translate(-1000.986 -488.582)" fill="#0cf"/>
      </g>
      <path id="Path_10" data-name="Path 10" d="M610.969,1228.527l83.97,14.485,70.535-8.607-71.4-9.888Z" transform="translate(-257.372 -1021)" fill="#4b4c4d"/>
    </g>
  </g>
</svg>
