<svg width="122" height="39" viewBox="0 0 122 39" fill="none" xmlns="http://www.w3.org/2000/svg">
<path fill-rule="evenodd" clip-rule="evenodd" d="M102.903 12.7285L106.833 12.7441C106.961 14.7486 106.984 16.7578 106.903 18.7646C106.65 20.1806 104.714 20.8655 102.833 20.6465L102.903 12.7285ZM94.2571 12.7285C94.4109 14.2535 94.4439 15.7891 94.3567 17.3193C94.3323 17.9157 94.1235 18.4892 93.759 18.9619C93.3945 19.4346 92.8921 19.7828 92.3215 19.958C90.0765 20.575 90.6516 19.0177 90.6516 17.3057C90.6516 15.8317 90.5819 14.1905 90.6799 12.7305L94.2571 12.7285ZM71.2571 12.6289L81.1096 12.6699C81.3404 13.4911 81.3166 14.363 81.0403 15.1699C79.2403 15.3239 75.3144 14.8745 73.9104 15.3945C73.3494 16.2225 71.4554 17.4584 71.1184 19.7324C70.8084 21.7954 72.5622 23.4789 73.5032 24.5449C75.8192 27.1449 78.3743 29.4154 83.5383 27.8994C84.3813 28.5874 85.082 29.6989 86.177 30.1309C85.826 28.8669 84.8025 28.2219 84.3245 27.2949C84.9985 26.6069 85.9945 25.1065 85.3625 23.6475C84.6546 22.5846 83.8519 21.588 82.9631 20.6709C81.6441 19.4909 80.7877 19.3939 79.4827 20.6709C78.1347 21.9899 79.9191 22.9589 80.2551 24.1709C78.0371 24.6189 76.6062 24.8586 74.5002 23.9316C74.3882 21.9946 76.4229 19.6229 77.2229 19.1729C77.9389 18.7679 83.3001 18.8371 84.4231 19.2861L84.4651 12.7314H87.1877C87.9877 16.7044 85.2366 17.1805 90.4006 21.9395C90.9748 22.4354 91.5912 22.8814 92.2415 23.2725C92.9415 23.6655 94.1642 23.749 94.5852 24.085C94.9212 24.365 95.4849 25.3478 95.9749 25.8398C96.5079 26.3718 96.875 27.0458 97.675 27.2988L97.7454 12.7871L99.4016 12.7305C99.9486 16.5475 98.5307 17.7963 100.482 20.2393C101.492 21.5023 103.359 23.8036 105.113 24.3086C107.738 25.0796 110.39 24.0276 110.334 21.3896C110.161 18.5099 110.17 15.6227 110.362 12.7441L112.635 12.7158C112.987 14.4848 112.735 19.8165 112.735 21.9385C112.735 25.4745 112.65 24.5059 114.657 27.0449C115.017 27.5397 115.515 27.9162 116.089 28.126L116.116 12.7725L121.535 12.7148C121.235 11.5928 119.794 9.85241 119.235 8.94141C115.052 8.54741 97.2696 9.47252 95.2756 8.72852C94.2656 5.01052 100.989 6.10476 102.841 5.05176C103.15 3.26976 101.704 2.07743 100.641 0.94043C100.321 0.503966 99.8752 0.17548 99.3635 0C99.7005 1.517 99.9645 1.6852 96.7405 1.8252C95.3225 1.8812 93.7398 1.99264 92.8098 2.80664C90.1848 5.09464 93.1472 7.27012 94.2102 8.87012L69.1858 8.88379C69.4158 9.89479 70.5952 12.2669 71.2542 12.6309L71.2571 12.6289Z" fill="#00756B"/>
<path fill-rule="evenodd" clip-rule="evenodd" d="M33.36 23.0866C33.3964 22.4869 33.5937 21.9073 33.9323 21.4109C34.2708 20.9144 34.7378 20.5192 35.2829 20.2663C34.7069 21.5153 34.9595 21.4588 35.3825 22.4968C35.1105 22.7396 34.7882 22.9193 34.4381 23.0212C34.0881 23.1231 33.7198 23.1455 33.36 23.0866ZM52.152 12.8269L55.8844 12.8425C56.0844 18.2875 56.8253 21.3421 52.1383 21.0241L52.152 12.8269ZM34.0055 15.6198C34.0887 14.8774 34.3758 14.1724 34.8346 13.5827C35.2935 12.9931 35.9068 12.542 36.6061 12.279C36.691 13.0646 36.4672 13.8527 35.9821 14.4763C35.4969 15.0999 34.7878 15.509 34.0055 15.6198ZM32.8834 16.0691C32.2072 16.2717 31.5938 16.6414 31.0983 17.1443C30.6028 17.6471 30.2412 18.2668 30.0485 18.946C29.2485 21.851 32.0835 24.6316 34.1745 26.0066C34.785 26.515 35.5351 26.8282 36.3258 26.906C37.1166 26.9837 37.9121 26.8219 38.61 26.4421C39.733 27.3421 41.277 29.7419 42.61 30.2029C42.469 29.2349 39.9578 26.5266 39.3688 25.8396C40.0278 24.0286 40.5752 24.0138 39.1432 22.3298C38.3951 21.2995 37.4507 20.4274 36.3649 19.7624C37.3889 19.5514 37.865 19.1443 38.61 18.9763C40.168 20.4633 40.6864 22.1481 43.6344 22.4851C43.6894 24.3091 43.7461 24.3803 44.7301 25.4743C45.4871 26.3013 45.8943 27.0885 47.0163 27.5515L47.0309 12.8991L48.7575 12.8572C48.7995 14.2882 48.7721 15.7207 48.7721 17.1247C48.7721 19.1037 48.5063 19.4242 49.4723 20.7302C50.5243 22.1202 52.1945 24.0566 54.2565 24.6736C56.6705 25.4036 59.3796 24.701 59.2956 21.573C59.2116 18.793 59.2116 15.6918 59.2956 12.9128L62.2575 12.8132C62.3405 16.1392 62.2721 19.5497 62.2721 22.8767C62.2721 24.9957 61.9203 25.6126 63.0163 27.0456C63.4093 27.5646 64.7563 29.36 65.6393 29.528L65.654 12.8279H69.3034C69.0705 11.7484 68.6322 10.7242 68.0124 9.81028C67.3124 8.60328 66.3122 8.9968 64.6012 8.9968C56.1662 9.0108 46.6231 8.79745 38.4411 9.01145C38.8137 10.3738 39.4228 11.6599 40.2409 12.8113L43.6413 12.8396C43.7803 16.1796 44.329 19.1965 39.276 18.4245C39.529 17.4135 40.1315 16.8529 40.0045 15.4909C39.7805 13.0909 36.876 9.69163 35.359 8.67063C33.24 7.23863 29.1694 10.775 31.1754 13.779C31.7604 14.666 32.6585 15.55 32.8815 16.07L32.8834 16.0691Z" fill="#00756B"/>
<path fill-rule="evenodd" clip-rule="evenodd" d="M7.03076 8.95287C6.59576 8.09787 6.2598 8.19437 6.8208 6.89037C7.7758 4.67137 11.2282 4.53388 13.3052 4.91088C15.1722 5.24888 19.6912 8.04186 20.6172 8.99486L7.03076 8.95287ZM5.86621 8.93627L0 9.00658C0.265712 10.0042 0.652117 10.9659 1.15088 11.8699C1.95088 13.3039 2.51223 12.6999 4.40723 12.8699C4.51923 15.8329 4.4349 18.9613 4.4209 21.9353C4.4209 24.1403 4.2379 24.265 5.4209 25.613C6.04603 26.4912 6.83142 27.2442 7.73584 27.8308L7.77783 12.8425H16.478L16.5488 14.2429L9.91113 14.2693C10.5936 15.5615 11.4958 16.7257 12.5771 17.7087C13.5881 18.4377 17.0262 18.058 18.5562 18.071C18.7392 20.387 16.0148 22.3952 13.9248 22.7312C13.0248 21.7782 10.3739 17.1594 8.85791 18.9714C8.05791 21.5534 12.0021 25.2153 13.3911 26.1843C14.2191 26.7603 14.8911 26.6204 15.4961 27.0554C16.0117 27.5283 16.4857 28.0445 16.9131 28.5984C17.8131 29.6214 18.9198 30.5364 20.0288 31.5984C26.8778 38.0984 31.7479 32.9734 30.1479 30.3894C29.3558 29.2175 28.3516 28.2039 27.187 27.4011C26.934 29.0301 26.7522 29.6885 25.6152 30.3015C24.3847 30.9141 22.9748 31.0638 21.6431 30.7234C19.9311 30.3444 17.0258 27.4947 16.5488 26.7527C17.9238 26.1337 21.924 25.3206 22.022 21.5456C22.04 20.1089 21.5591 18.7103 20.6611 17.5886C20.1281 16.8586 19.8748 16.8284 19.8608 15.6374C19.8608 14.7094 19.8612 13.7705 19.8892 12.8425L24.7891 12.8288C24.8451 15.6918 24.8171 18.5827 24.7891 21.3757C24.7751 23.5807 25.3362 24.057 26.8892 25.656C27.2117 26.0957 27.6628 26.4249 28.1802 26.5974V12.8142L29.457 12.8005C29.0287 11.9323 28.5061 11.1133 27.8989 10.3591C26.9169 8.96812 27.2668 9.0115 25.1758 8.9685C26.5758 5.5995 22.046 1.92365 21.415 1.75365C21.569 2.59765 22.9032 4.52108 21.6152 5.31908C18.7792 7.05908 14.6671 2.4567 11.4531 1.3767C5.60012 -0.574302 1.62883 3.24349 3.65283 6.21849C4.33051 7.17204 5.07013 8.07908 5.86621 8.93627Z" fill="#00756B"/>
<path d="M35.326 33.5269V32.853H36.0545C35.9251 32.6664 35.8481 32.4487 35.8309 32.2222C35.8338 32.0445 35.8754 31.8684 35.9529 31.7085C36.0305 31.5486 36.1424 31.4088 36.2801 31.2964C36.5921 31.042 36.9841 30.9058 37.3865 30.9155C37.9381 30.9126 38.4758 31.0921 38.9168 31.4234C39.3818 31.7574 39.7313 32.2275 39.9168 32.7691H39.2166C39.0595 32.4196 38.8009 32.1262 38.4735 31.9273C38.1551 31.7099 37.7768 31.5971 37.3914 31.605C37.1847 31.5968 36.9814 31.6608 36.8172 31.7866C36.7444 31.8337 36.684 31.898 36.6424 31.9741C36.6008 32.0503 36.5792 32.1354 36.5789 32.2222C36.5783 32.3319 36.5966 32.4411 36.6336 32.5444C36.6788 32.6531 36.7354 32.7563 36.8026 32.853H37.5321V33.5269H36.7879V37.4566H36.0594V33.5269H35.326ZM37.3475 33.5269V32.853H43.158V33.5269H42.4276V37.4566H41.6844V35.0288H40.7723C40.8883 35.214 40.9512 35.4275 40.9549 35.646C40.9578 35.8022 40.9269 35.9562 40.8641 36.0991C40.8012 36.2421 40.7077 36.3707 40.5906 36.4741C40.3517 36.699 40.0339 36.8204 39.7059 36.812C39.4498 36.8047 39.1987 36.7392 38.9705 36.6226C38.7424 36.506 38.5425 36.3414 38.3865 36.1382C37.9783 35.6529 37.7118 35.0637 37.6151 34.437L38.2479 34.228C38.3229 34.7178 38.51 35.1839 38.7947 35.5894C38.8949 35.743 39.03 35.8718 39.1883 35.9644C39.3466 36.0569 39.5239 36.1107 39.7069 36.1226C39.7749 36.1224 39.8424 36.108 39.9051 36.0816C39.9678 36.0551 40.0245 36.0169 40.0721 35.9683C40.1214 35.927 40.1607 35.8764 40.1873 35.8179C40.214 35.7594 40.2276 35.6946 40.2264 35.6304C40.2113 35.435 40.1475 35.2466 40.0418 35.0816C39.8798 34.8199 39.697 34.5716 39.4949 34.3394H41.6844V33.5249L37.3475 33.5269ZM42.9744 33.5269V32.853H46.7362V33.5269H42.9744ZM44.9529 37.4566C44.4981 37.2477 44.0956 36.9399 43.7742 36.5562C43.5115 36.2547 43.3574 35.8735 43.3377 35.4741C43.3373 35.3005 43.3752 35.1297 43.4481 34.9722C43.521 34.8146 43.627 34.6741 43.7596 34.562C43.8902 34.4372 44.0442 34.34 44.2127 34.2749C44.3813 34.2099 44.5614 34.1784 44.742 34.1831C44.9318 34.182 45.119 34.2254 45.2889 34.3101C45.4681 34.3759 45.6244 34.4926 45.7381 34.646C45.8623 34.4913 46.0272 34.3749 46.2147 34.3101C46.4091 34.2237 46.6201 34.1804 46.8328 34.1831V34.8569C46.5984 34.8816 46.3833 34.9974 46.2332 35.1792C46.0186 35.4276 45.8519 35.7136 45.742 36.023L45.1522 35.6987C45.2103 35.4844 45.3105 35.284 45.4471 35.1089C45.3703 35.0215 45.2665 34.9624 45.1522 34.9409C45.0222 34.8933 44.8844 34.8693 44.7459 34.8706C44.569 34.867 44.3981 34.9338 44.2684 35.0542C44.2085 35.1066 44.1604 35.1707 44.1287 35.2437C44.0971 35.3167 44.0821 35.3966 44.0848 35.4761C44.0931 35.7753 44.2129 36.0595 44.4207 36.2749C44.6749 36.5396 44.9872 36.7415 45.3328 36.8648L44.9529 37.4566ZM46.5526 33.5269V32.853H50.6365V33.5269H50.0623V34.5269H48.2244C48.1303 34.5267 48.0373 34.5518 47.9559 34.5991C47.8859 34.6401 47.8446 34.6828 47.8446 34.7378C47.8569 34.8271 47.8958 34.9109 47.9559 34.978C48.0543 35.0907 48.1629 35.1937 48.2801 35.2866C48.4739 35.1993 48.6848 35.1559 48.8973 35.1597C49.2381 35.1554 49.5693 35.2694 49.8358 35.4819C49.9546 35.5752 50.0503 35.6935 50.116 35.8296C50.1817 35.9657 50.2155 36.116 50.2147 36.2671C50.2126 36.4167 50.169 36.5627 50.0887 36.689C49.9974 36.8452 49.8735 36.9789 49.7244 37.0816L49.2332 36.689C49.3059 36.6296 49.3674 36.5583 49.4158 36.478C49.454 36.4135 49.4781 36.3416 49.4862 36.2671C49.4871 36.2075 49.472 36.1488 49.4422 36.0972C49.4124 36.0456 49.3693 36.0031 49.3172 35.9741C49.1942 35.8884 49.0472 35.844 48.8973 35.8472C48.6318 35.842 48.3713 35.9204 48.1531 36.0718C48.0579 36.1326 47.9789 36.2159 47.9227 36.314C47.8664 36.412 47.8343 36.5213 47.8299 36.6343C47.8332 36.7978 47.8778 36.9571 47.9588 37.0991C48.0399 37.2411 48.1547 37.3608 48.2938 37.4468C48.6168 37.6762 49.0061 37.7941 49.4022 37.7827H50.2293V38.4722H49.3738C48.7946 38.4872 48.2288 38.2984 47.7742 37.939C47.5687 37.7895 47.401 37.5943 47.284 37.3687C47.167 37.143 47.1041 36.8943 47.1004 36.6401C47.0982 36.4438 47.1464 36.2497 47.241 36.0776C47.3364 35.9038 47.4706 35.755 47.6336 35.6421C47.481 35.524 47.3487 35.3823 47.241 35.2222C47.1557 35.0717 47.1077 34.9029 47.1004 34.73C47.1022 34.6075 47.1335 34.4859 47.1922 34.3784C47.2509 34.2709 47.3352 34.1805 47.4373 34.1128C47.6679 33.9297 47.9556 33.8351 48.2498 33.8452H49.3162V33.5347L46.5526 33.5269ZM50.4529 33.5269V32.853H52.6531V33.5269H51.9227V37.4566H51.1942V33.5269H50.4529ZM54.3123 33.5269V32.853H58.4949V33.5269H57.7664V37.4566H57.0223V35.9175C56.9183 36.0206 56.7942 36.1019 56.658 36.1558C56.5099 36.2122 56.3527 36.2406 56.1942 36.2398C55.8259 36.2511 55.4667 36.1269 55.1844 35.8901C55.0554 35.7882 54.9511 35.6579 54.8807 35.5093C54.8103 35.3606 54.7753 35.1972 54.7781 35.0327V33.5327L54.3123 33.5269ZM56.1932 35.5484C56.3451 35.5449 56.4937 35.5067 56.6287 35.437C56.7809 35.3576 56.9153 35.247 57.0223 35.1128V33.5269H55.5057V35.0269C55.5079 35.0992 55.5276 35.1705 55.5623 35.2339C55.5971 35.2973 55.6461 35.3513 55.7059 35.3921C55.8479 35.4954 56.0195 35.5497 56.1951 35.5484H56.1932ZM58.3123 33.5269V32.853H59.0565C58.9264 32.6666 58.8481 32.4488 58.8309 32.2222C58.8307 32.0439 58.8713 31.867 58.949 31.7066C59.0268 31.5461 59.14 31.4067 59.2801 31.2964C59.5925 31.0421 59.9848 30.9058 60.3875 30.9155C60.9351 30.9127 61.4689 31.0923 61.9051 31.4234C62.3729 31.7567 62.7256 32.2267 62.9149 32.7691H62.2C62.0398 32.4229 61.7846 32.1295 61.4637 31.9234C61.1428 31.7172 60.7689 31.6068 60.3875 31.605C60.1762 31.5968 59.9685 31.6606 59.7987 31.7866C59.728 31.8359 59.67 31.9004 59.6287 31.9761C59.5874 32.0517 59.5646 32.136 59.5613 32.2222C59.5672 32.3314 59.586 32.4398 59.618 32.5444C59.6618 32.6565 59.7229 32.7604 59.7996 32.853H60.5164V33.5269H59.786V37.4566H59.0574V33.5269H58.3123ZM60.3328 33.5269V32.853H63.744V33.5269H63.1541V34.3413C63.1585 34.4864 63.1332 34.6302 63.0799 34.7651C63.0266 34.9001 62.9459 35.0216 62.8436 35.1245C62.7492 35.2274 62.6346 35.3109 62.5067 35.3667C62.3787 35.4225 62.241 35.4496 62.1014 35.4487L63.4071 37.2026L62.8309 37.5972L60.5438 34.4683L61.161 34.0737C61.2483 34.2666 61.3778 34.4375 61.5399 34.5737C61.6608 34.6919 61.8203 34.764 61.9891 34.7749C62.0466 34.7764 62.1038 34.7655 62.1571 34.7437C62.2103 34.7218 62.2578 34.6894 62.2977 34.648C62.3372 34.6073 62.3682 34.5587 62.3875 34.5054C62.4068 34.4521 62.4143 34.3959 62.41 34.3394V33.5249L60.3328 33.5269ZM63.5623 33.5269V32.853H67.5887V33.5269H66.8592V37.4566H66.117V36.0816C66.0418 36.1611 65.9433 36.2152 65.8358 36.2359C65.6886 36.2709 65.5378 36.2897 65.3865 36.2925C65.0314 36.2974 64.687 36.1726 64.4178 35.9409C64.2934 35.8421 64.1939 35.7153 64.1258 35.5718C64.0577 35.4283 64.0231 35.2717 64.0252 35.1128V33.5269H63.5623ZM65.3856 35.5913C65.4987 35.5975 65.613 35.5875 65.7235 35.562C65.8048 35.5396 65.8808 35.5016 65.9481 35.4507L64.7547 34.103V35.1128C64.7555 35.1798 64.7726 35.2453 64.8045 35.3042C64.8364 35.3631 64.8827 35.4134 64.9383 35.4507C65.0674 35.5492 65.2273 35.5987 65.3895 35.5913H65.3856ZM66.116 34.9019V33.5269H64.9363L66.116 34.9019ZM67.4071 33.5269V32.853H71.5067V33.5269H70.8201V34.9273H69.2069C69.0281 34.923 68.8535 34.9825 68.7147 35.0952C68.6488 35.1441 68.5961 35.2075 68.5594 35.2808C68.5227 35.3541 68.5033 35.4351 68.5037 35.5171C68.5023 35.6693 68.5391 35.8181 68.6102 35.9526C68.6812 36.0872 68.7845 36.2019 68.911 36.2866C69.1878 36.5106 69.5377 36.6254 69.8934 36.6089C69.8459 36.5183 69.8258 36.4157 69.8367 36.314C69.8341 36.2369 69.8491 36.1617 69.8807 36.0913C69.9122 36.021 69.9601 35.9571 70.0194 35.9077C70.0743 35.8472 70.1413 35.8008 70.2166 35.7691C70.2919 35.7373 70.3732 35.7213 70.4549 35.7241C70.5373 35.7258 70.6183 35.7444 70.6932 35.7788C70.768 35.8132 70.8356 35.8639 70.8904 35.9253C71.0055 36.0579 71.0699 36.2263 71.0731 36.4019C71.0667 36.5208 71.0328 36.6365 70.9735 36.7398C70.9001 36.8673 70.8047 36.9809 70.6922 37.0757L71.1844 37.9605L70.5242 38.2691L70.0877 37.2886C69.4965 37.3131 68.9159 37.1301 68.4471 36.7691C68.2398 36.6325 68.0689 36.4474 67.949 36.23C67.8292 36.0126 67.7634 35.7692 67.7586 35.521C67.7575 35.346 67.7966 35.1731 67.8719 35.0151C67.9472 34.8572 68.0575 34.7182 68.1942 34.6089C68.4703 34.3572 68.8324 34.2216 69.2059 34.23H70.0887V33.5288L67.4071 33.5269ZM73.077 33.5269V32.853H77.8485V33.5269H76.992C77.0935 33.7018 77.1466 33.9008 77.1453 34.103C77.1485 34.2781 77.1101 34.4512 77.034 34.6089C76.9749 34.7462 76.8714 34.8599 76.7401 34.9312C76.932 35.0312 77.0887 35.1882 77.1883 35.3804C77.2999 35.5773 77.3581 35.7985 77.3572 36.0249C77.3591 36.2118 77.3236 36.3985 77.2537 36.5718C77.1839 36.7451 77.0809 36.9014 76.95 37.0347C76.8294 37.168 76.682 37.2748 76.5174 37.3472C76.3528 37.4196 76.1747 37.4558 75.9949 37.4546C75.6863 37.4448 75.3835 37.3681 75.1072 37.23C74.831 37.0919 74.5884 36.8968 74.3953 36.6558C73.8671 36.0831 73.499 35.3809 73.3289 34.6206L73.9891 34.3667C74.1527 34.9949 74.4432 35.5823 74.8436 36.0933C74.9734 36.2838 75.1447 36.4435 75.3436 36.5601C75.5425 36.6766 75.7643 36.747 75.994 36.7671C76.0775 36.7663 76.1598 36.7485 76.2352 36.7124C76.3105 36.6763 76.3766 36.6228 76.4295 36.5581C76.5528 36.4084 76.6181 36.2188 76.6121 36.0249C76.615 35.9285 76.5973 35.8331 76.5613 35.7437C76.5254 35.6542 76.4719 35.573 76.4031 35.5054C76.3431 35.4335 76.2676 35.3763 76.1824 35.3374C76.0973 35.2985 76.0046 35.2792 75.911 35.2808H75.1531V34.5933H75.827C75.9775 34.5932 76.123 34.5374 76.2352 34.437C76.2885 34.3991 76.3319 34.3491 76.3612 34.2905C76.3904 34.232 76.4048 34.1666 76.4031 34.1011C76.396 34.0128 76.3719 33.9267 76.3328 33.8472C76.2715 33.7307 76.1959 33.6222 76.1072 33.5249L73.077 33.5269ZM77.6658 33.5269V32.853H81.3426V33.5269H80.1649V34.6089C80.17 34.8464 80.0954 35.079 79.9529 35.2691C79.8917 35.3492 79.8132 35.4144 79.7235 35.4605C79.6337 35.5065 79.5352 35.5318 79.4344 35.5347L80.6971 37.1616L80.1082 37.5405L77.8621 34.5796L78.5067 34.103C78.6047 34.3021 78.7231 34.4903 78.8592 34.6655C78.9592 34.7905 79.0588 34.8648 79.1268 34.8648C79.1673 34.8664 79.2074 34.8587 79.244 34.8413C79.2805 34.8239 79.3125 34.7976 79.3367 34.7651C79.3698 34.7348 79.3966 34.6972 79.4139 34.6558C79.4312 34.6143 79.4391 34.5698 79.4373 34.5249V33.5249L77.6658 33.5269ZM80.5848 35.3667L80.1649 34.6792H81.4266V35.3667H80.5848ZM81.1463 33.5269V32.853H85.5819V33.5269H84.8387V37.4566H84.1102V35.6187H82.6922V36.0679C82.6911 36.095 82.6838 36.1217 82.6717 36.146C82.6596 36.1703 82.6428 36.1912 82.6219 36.2085C82.583 36.2431 82.5333 36.2623 82.4813 36.2632C82.3703 36.2632 82.1454 36.109 81.8504 35.814C81.5414 35.535 81.3865 35.3244 81.3865 35.2144C81.3879 35.1407 81.4074 35.0684 81.4422 35.0034C81.4603 34.98 81.4835 34.9609 81.5106 34.9487C81.5376 34.9365 81.5679 34.9312 81.5975 34.9331H81.9481V33.5327L81.1463 33.5269ZM82.6912 34.9273H84.1092V33.5269H82.6912V34.9273ZM85.4002 33.5269V32.853H87.6004V33.5269H86.8699V37.4566H86.1268V33.5269H85.4002ZM87.4207 33.5269V32.853H91.911V33.5269H91.1668V37.4566H90.4383V35.1128H89.2166C89.1904 35.1112 89.1648 35.1147 89.1404 35.1245C89.1161 35.1344 89.0938 35.1501 89.076 35.1694C89.0538 35.1884 89.0363 35.2112 89.0242 35.2378C89.0121 35.2644 89.0054 35.2945 89.0057 35.3237V35.773C89.0106 35.8542 88.986 35.9339 88.9354 35.9976C88.915 36.0216 88.8892 36.0401 88.8602 36.0523C88.8312 36.0644 88.7998 36.0702 88.7684 36.0679C88.5854 36.0679 88.3609 35.9 88.0809 35.562C87.8577 35.3384 87.7144 35.0472 87.6737 34.7339C87.676 34.6907 87.6876 34.6476 87.7069 34.6089C87.7261 34.5702 87.7529 34.5372 87.786 34.5093C87.8144 34.4775 87.8495 34.4523 87.8885 34.4351C87.9275 34.4178 87.9689 34.4074 88.0115 34.4077H90.4393V33.523L87.4207 33.5269ZM91.7293 33.5269V32.853H93.9285V33.5269H93.199V37.4566H92.4559V33.5269H91.7293ZM93.7498 33.5269V32.853H97.9334V33.5269H97.1893V37.4566H96.4588V36.6011C96.1957 36.7274 95.9088 36.7968 95.617 36.8023C95.4233 36.8069 95.2303 36.7727 95.0496 36.7026C94.8689 36.6326 94.7043 36.528 94.5643 36.3941C94.4226 36.2668 94.3086 36.1111 94.2313 35.937C94.1539 35.763 94.1146 35.5748 94.1151 35.3843C94.1113 35.1917 94.1511 34.9989 94.2313 34.8237C94.3114 34.6485 94.4297 34.4937 94.5779 34.3706C94.8801 34.083 95.284 33.9274 95.701 33.937C95.9292 33.9295 96.1559 33.9775 96.3612 34.0776L96.1229 34.7105C95.9874 34.6627 95.8447 34.6387 95.701 34.6401C95.5576 34.6381 95.4164 34.6776 95.2947 34.7534L96.4588 35.7202V33.5308L93.7498 33.5269ZM95.616 36.1089C95.7113 36.1108 95.8065 36.0969 95.8973 36.0679C95.9799 36.0552 96.0572 36.0211 96.1219 35.9683L94.9988 35.0542C94.9594 35.0913 94.9342 35.141 94.9285 35.1948C94.9099 35.2544 94.9011 35.316 94.9012 35.3784C94.9001 35.4747 94.9179 35.5704 94.9539 35.6597C94.99 35.7489 95.0436 35.8294 95.1112 35.898C95.1768 35.9661 95.2552 36.02 95.3426 36.0562C95.43 36.0923 95.5244 36.1108 95.619 36.1089H95.616ZM97.7488 33.5269V32.853H99.949V33.5269H99.2196V37.4566H98.4764V33.5269H97.7488ZM99.7703 33.5269V32.853H103.87V33.5269H103.183V34.9273H101.57C101.391 34.923 101.217 34.9825 101.078 35.0952C101.012 35.1442 100.959 35.2075 100.923 35.2808C100.886 35.3541 100.868 35.4352 100.868 35.5171C100.866 35.6693 100.902 35.818 100.973 35.9526C101.045 36.0873 101.149 36.2021 101.275 36.2866C101.552 36.5104 101.901 36.6253 102.257 36.6089C102.209 36.5184 102.189 36.4158 102.2 36.314C102.198 36.2367 102.213 36.1598 102.245 36.0894C102.277 36.019 102.324 35.9568 102.384 35.9077C102.438 35.8471 102.506 35.8008 102.581 35.7691C102.656 35.7373 102.738 35.7211 102.819 35.7241C102.902 35.7255 102.983 35.7444 103.057 35.7788C103.132 35.8133 103.199 35.8636 103.254 35.9253C103.369 36.0579 103.434 36.2263 103.437 36.4019C103.431 36.5208 103.396 36.6365 103.337 36.7398C103.264 36.8672 103.17 36.9809 103.057 37.0757L103.548 37.9605L102.889 38.2691L102.453 37.2886C101.861 37.3128 101.28 37.1299 100.81 36.7691C100.603 36.6321 100.433 36.4474 100.313 36.23C100.194 36.0126 100.128 35.7691 100.123 35.521C100.122 35.3459 100.161 35.1731 100.236 35.0151C100.312 34.8572 100.423 34.7181 100.559 34.6089C100.835 34.3574 101.197 34.2218 101.57 34.23H102.454V33.5288L99.7703 33.5269Z" fill="#2B2A29"/>
</svg>
