<svg id="Capa_1" enable-background="new 0 0 512 512" height="512" viewBox="0 0 512 512" width="512" xmlns="http://www.w3.org/2000/svg"><g><path d="m490.739 196.614h-469.478c30.243-101.004 123.895-174.614 234.739-174.614s204.496 73.61 234.739 174.614z" fill="#93d0fd"/><path d="m251.759 203.681v-61.582c0-6.486 5.373-11.745 12-11.745s12 5.258 12 11.745v61.582z" fill="#0066ed"/><path d="m312.45 147.869h-55.691c-2.761 0-5-2.239-5-5v-23.907c0-12.021 8.359-22.341 19.901-24.567l20.855-4.083c.037-.007.57-.029.608-.036 10.052-1.871 19.327 5.896 19.327 16.121z" fill="#0066ed"/><path d="m375.735 147.869h-95.457c-2.772-.003-5.019-2.24-5.019-5v-34.225c0-.061 0-.122.001-.183.062-8.717 6.514-16.098 15.115-17.741l2.218-.424c3.673-.702 7.372-1.237 11.088-1.605h.002c4.076-.404 8.17-.607 12.27-.607 7.837 0 15.656.74 23.359 2.212l21.452 4.098c11.597 2.227 19.996 12.546 19.996 24.567v23.907c-.001 2.762-2.25 5.001-5.025 5.001z" fill="#0077f0"/><path d="m356.759 203.681v-61.582c0-6.486 5.373-11.745 12-11.745s12 5.258 12 11.745v61.582z" fill="#0396fd"/><path d="m357.259 117.446v107.659h-82v-107.659z" fill="#0077f0"/><path d="m353.07 36.811v11.534c0 16.128-10.373 29.833-24.811 34.81v12.504c0 6.627-5.373 12-12 12s-12-5.373-12-12v-12.504c-14.438-4.976-24.811-18.681-24.811-34.81v-11.534c0-20.33 16.481-36.811 36.811-36.811 20.33 0 36.811 16.481 36.811 36.811z" fill="#bb5d4c"/><path d="m353.404 36.027v13.101c0 15.637-10.919 29.043-25.145 34.026-14.226-4.983-24-18.389-24-34.026v-13.101c0-15.637 10.179-28.902 24.405-33.885 14.227 4.984 24.74 18.248 24.74 33.885z" fill="#c96e59"/><path d="m251.759 168.092c0-6.627 5.258-12 11.745-12h48.75c6.487 0 11.745 5.373 11.745 12s-5.258 12-11.745 12h-48.75c-6.487 0-11.745-5.373-11.745-12z" fill="#0066ed"/><path d="m368.67 180.092h-48.75c-6.487 0-11.745-5.373-11.745-12s5.258-12 11.745-12h48.75c6.486 0 11.745 5.373 11.745 12s-5.259 12-11.745 12z" fill="#0396fd"/><path d="m292.267 168.092c0-3.103 1.153-5.93 3.044-8.061.135-.178.284-.348.446-.51l8.148-8.148c1.953-1.953 5.118-1.953 7.071 0 1.279 1.28 1.72 3.08 1.323 4.719h1.753c6.486 0 11.745 5.373 11.745 12s-5.258 12-11.745 12h-10.04c-6.487 0-11.745-5.373-11.745-12z" fill="#bb5d4c"/><path d="m330.816 180.092h-10.04c-6.486 0-11.745-5.373-11.745-12s5.258-12 11.745-12h1.753c-.397-1.639.044-3.439 1.323-4.719 1.953-1.953 5.118-1.953 7.071 0l8.148 8.148c.162.162.311.333.446.51 1.892 2.13 3.044 4.958 3.044 8.061 0 6.627-5.259 12-11.745 12z" fill="#c96e59"/><path d="m49.356 147.869v33.091c0 6.487-5.373 11.745-12 11.745s-12-5.258-12-11.745v-33.091c0-6.486 5.373-11.745 12-11.745s12 5.259 12 11.745zm93-11.745c-6.627 0-12 5.258-12 11.745v62.188c0 6.487 5.373 11.745 12 11.745s12-5.258 12-11.745v-62.188c0-6.486-5.373-11.745-12-11.745z" fill="#ffa78f"/><path d="m86.047 147.869h-60.691v-28.907c0-12.021 8.359-22.341 19.901-24.567l20.855-4.083c.037-.007.57-.029.608-.036 10.052-1.871 19.327 5.896 19.327 16.121z" fill="#ff4343"/><path d="m154.356 147.869h-100.481c-2.772-.003-5.019-2.24-5.019-5v-34.225c0-.061 0-.122.001-.183.062-8.717 6.514-16.098 15.115-17.741l2.218-.424c3.673-.702 7.372-1.237 11.088-1.605h.002c4.076-.404 8.17-.607 12.27-.607 7.837 0 15.656.74 23.359 2.212l21.452 4.098c11.597 2.227 19.996 12.546 19.996 24.567v23.907c-.001 2.762 2.773 5.001-.001 5.001z" fill="#ff5757"/><path d="m130.856 117.446v107.659h-82v-107.659z" fill="#ff5757"/><path d="m130.253 43.209-2.003 11.359c-2.544 14.426-13.167 25.397-26.395 29.083v12.008c0 6.627-5.373 12-12 12s-12-5.373-12-12v-13.49c-15.584-6.467-25.16-23.079-22.109-40.385l2.003-11.359c3.53-20.021 22.622-33.39 42.644-29.859 20.022 3.53 33.391 22.622 29.86 42.643z" fill="#ffa78f"/><path d="m130.574 42.496-2.274 12.902c-2.541 14.41-13.69 25.206-27.276 28.538-1.813.445-3.75.103-5.302-.935-11.627-7.778-18.217-21.729-15.676-36.138l2.275-12.902c2.715-15.4 15.051-26.691 29.926-29.128 13.145 7.379 21.043 22.264 18.327 37.663z" fill="#ffbfab"/><path d="m187.522 172.66c0 5.523-4.477 10-10 10h-81.666c-5.523 0-10-4.477-10-10s4.477-10 10-10h81.667c5.522 0 9.999 4.477 9.999 10z" fill="#ececf1"/><path d="m106.637 173.883c-.963.413-1.965.608-2.951.608-2.91 0-5.678-1.704-6.897-4.547l-21.252-49.589c-1.632-3.808.132-8.216 3.939-9.848 3.808-1.631 8.216.132 9.848 3.939l21.252 49.589c1.632 3.808-.132 8.217-3.939 9.848z" fill="#0066ed"/><path d="m28.59 167.964c0-6.627 5.258-12 11.745-12h48.75c6.487 0 11.745 5.373 11.745 12s-5.258 12-11.745 12h-48.75c-6.487 0-11.745-5.373-11.745-12z" fill="#ffa78f"/><path d="m77.904 167.964c0-3.103 1.153-5.93 3.044-8.061.135-.178.284-.348.446-.51l8.148-8.148c1.953-1.953 5.118-1.953 7.071 0 1.279 1.28 1.72 3.08 1.323 4.719h1.753c6.486 0 11.745 5.373 11.745 12s-5.258 12-11.745 12h-10.04c-6.487 0-11.745-5.373-11.745-12z" fill="#ffbfab"/><path d="m501 204v109.5c0 2.761-2.239 5-5 5h-238v132.5c0 2.761-2.239 5-5 5l-152.908-5.34c-.918-.758-1.83-1.523-2.737-2.294-.453-.385-.905 4.568-1.355 4.179-52.054-44.927-85-111.389-85-185.545 0-23.594 3.335-46.409 9.56-68h475.44c2.761 0 5 2.239 5 5z" fill="#955b50"/><path d="m512 184.5v20c0 2.761-2.239 5-5 5h-502c-2.761 0-5-2.239-5-5v-20c0-2.761 2.239-5 5-5h502c2.761 0 5 2.239 5 5z" fill="#ac695d"/><path d="m355.71 261.425v33.091c0 6.487-5.373 11.745-12 11.745s-12-5.258-12-11.745v-33.091c0-6.486 5.373-11.745 12-11.745s12 5.258 12 11.745zm93-11.745c-6.627 0-12 5.258-12 11.745v62.188c0 6.487 5.373 11.745 12 11.745s12-5.258 12-11.745v-62.188c0-6.487-5.373-11.745-12-11.745z" fill="#f6a96c"/><path d="m392.402 219.849v41.576h-60.691v-28.907c0-12.021 8.359-22.341 19.901-24.567l19.911-3.903 1.551-.216c10.039-1.898 19.328 5.801 19.328 16.017z" fill="#00c53b"/><path d="m460.71 261.425h-23.5v77.237h-82v-116.462c0-.061 0-.122.001-.183.049-6.858 4.052-12.889 9.946-15.95 1.598-.83 3.772 1.285 5.606.935l3.574-.894c3.673-.702 3.88-.653 7.596-1.021 0 0 1.914-.191 1.915-.192 4.076-.404 7.965-.255 12.064-.255 7.837 0 13.745-.705 21.447.766l5.339 1.02 5.768-.816 12.247 2.34c11.597 2.227 19.996 12.546 19.996 24.567v28.908z" fill="#4bcd5c"/><path d="m363.888 205.544 8.657-1.692c3.673-.702 7.372-1.237 11.088-1.605h.002c4.076-.404 8.17-.607 12.27-.607 7.837 0 15.656.74 23.359 2.212l9.205 1.758-28.721 28.72c-1.953 1.953-5.118 1.953-7.071 0z" fill="#ececf1"/><path d="m436.608 156.765-2.003 11.359c-2.544 14.426-13.167 25.397-26.395 29.083v12.008c0 6.627-5.373 12-12 12s-12-5.373-12-12v-13.49c-15.584-6.467-25.16-23.079-22.108-40.385l2.003-11.359c3.53-20.021 22.622-33.39 42.644-29.859 20.021 3.529 33.389 22.622 29.859 42.643z" fill="#f6a96c"/><path d="m437.173 155.83-2.386 12.957c-2.541 14.41-13.823 25.372-27.409 28.705-1.813.445-3.75.103-5.302-.935-11.627-7.778-18.217-21.729-15.676-36.138l2.275-12.902c2.715-15.4 15.051-26.683 29.926-29.12 13.145 7.378 21.288 22.033 18.572 37.433z" fill="#ffbd86"/><path d="m493.877 286.215c0 5.523-4.477 10-10 10h-81.667c-5.523 0-10-4.477-10-10s4.477-10 10-10h81.667c5.523 0 10 4.477 10 10z" fill="#ececf1"/><path d="m412.992 287.439c-.963.413-1.965.608-2.951.608-2.91 0-5.678-1.704-6.897-4.547l-21.252-49.589c-1.632-3.808.132-8.216 3.939-9.848 3.808-1.631 8.216.132 9.848 3.939l21.252 49.589c1.632 3.808-.132 8.216-3.939 9.848z" fill="#0066ed"/><path d="m334.945 281.52c0-6.627 5.258-12 11.745-12h48.75c6.487 0 11.745 5.373 11.745 12s-5.258 12-11.745 12h-48.75c-6.487 0-11.745-5.373-11.745-12z" fill="#f6a96c"/><path d="m384.259 281.52c0-3.103 1.153-5.93 3.044-8.061.135-.178.284-.348.446-.51l8.148-8.148c1.953-1.953 5.118-1.953 7.071 0 1.279 1.28 1.72 3.08 1.323 4.719h1.753c6.486 0 11.745 5.373 11.745 12s-5.258 12-11.745 12h-10.04c-6.487 0-11.745-5.373-11.745-12z" fill="#ffbd86"/><path d="m147.629 253.863v69.75c0 6.487-5.373 11.745-12 11.745s-12-5.258-12-11.745v-69.75c0-6.486 5.373-11.745 12-11.745s12 5.258 12 11.745zm93-11.745c-6.627 0-12 5.258-12 11.745v69.75c0 6.487 5.373 11.745 12 11.745s12-5.258 12-11.745v-69.75c0-6.487-5.373-11.745-12-11.745z" fill="#d78878"/><path d="m184.321 261.425h-60.691v-28.907c0-12.021 8.359-22.341 19.901-24.567l21.35-4.098.112-.021c10.038-1.896 19.327 5.802 19.327 16.018v41.575z" fill="#fa0"/><path d="m252.629 261.425h-23.5v77.237h-82v-116.462c0-.061 0-.122.001-.183.062-8.717 6.514-16.098 15.115-17.741l2.218-.424c3.673-.702 7.372-1.237 11.088-1.605h.002c4.076-.404 8.17-.607 12.27-.607 7.837 0 15.656.74 23.359 2.212l21.452 4.098c11.597 2.227 19.996 12.546 19.996 24.567v28.908z" fill="#ffb509"/><path d="m224.94 150.366v11.534c0 16.128-10.373 29.833-24.811 34.81v12.504c0 6.627-5.373 12-12 12-6.627 0-12-5.373-12-12v-12.504c-14.438-4.976-24.811-18.681-24.811-34.81v-11.534c0-20.33 16.481-36.811 36.811-36.811 20.33.001 36.811 16.481 36.811 36.811z" fill="#c96e59"/><path d="m225.128 149.583v13.101c0 15.637-10.772 29.043-24.998 34.026-14.226-4.983-24-18.389-24-34.026v-13.101c0-15.637 10.179-28.902 24.405-33.885 14.226 4.983 24.593 18.248 24.593 33.885z" fill="#d78878"/><path d="m192.629 295.219h-72v-13.586c0-2.522 1.878-4.649 4.38-4.961l40.829-5.104c14.226-1.778 26.791 9.314 26.791 23.651z" fill="#d4d4da"/><path d="m255.629 281.633v13.586h-72c0-14.337 12.565-25.429 26.791-23.651l40.829 5.104c2.503.312 4.38 2.439 4.38 4.961z" fill="#ececf1"/><path d="m217.402 504.362c-1.879-.297-3.75-.616-5.615-.956-.931-.17-1.86 4.27-2.787 4.089-42.655-8.288-81.358-27.64-113-54.951v-134.988c0-2.761 2.239-5 5-5h395.772c-6.745 35.871-21.309 68.983-41.853 97.5-.469.651-6.429 1.299-6.904 1.945-1.866 2.537-3.779 5.036-5.738 7.497h-219.875c-2.761 0-5 2.239-5 5z" fill="#ac695d"/><path d="m507 323.056h-419.871c-2.761 0-5-2.239-5-5v-20c0-2.761 2.239-5 5-5h419.871c2.761 0 5 2.239 5 5v20c0 2.761-2.239 5-5 5z" fill="#b97d72"/><path d="m260.629 370.863v69.75c0 6.487-5.373 11.745-12 11.745s-12-5.258-12-11.745v-69.75c0-6.486 5.373-11.745 12-11.745s12 5.258 12 11.745zm93-11.745c-6.627 0-12 5.258-12 11.745v69.75c0 6.487 5.373 11.745 12 11.745s12-5.258 12-11.745v-69.75c0-6.487-5.373-11.745-12-11.745z" fill="#ffcebf"/><path d="m297.321 378.425h-60.691v-28.907c0-12.021 8.359-22.341 19.901-24.567l21.35-4.098.112-.021c10.038-1.896 19.327 5.802 19.327 16.018v41.575z" fill="#00a4fb"/><path d="m365.629 378.425h-23.5v77.237h-82v-116.462c0-.061 0-.122.001-.183.062-8.717 6.514-16.098 15.115-17.741l2.218-.424c3.673-.702 7.372-1.237 11.088-1.605h.002c4.076-.404 8.17-.607 12.27-.607 7.837 0 15.656.74 23.359 2.212l21.452 4.098c11.597 2.227 19.996 12.546 19.996 24.567v28.908z" fill="#49b6fc"/><path d="m337.94 267.366v11.534c0 16.128-10.373 29.833-24.811 34.81v12.504c0 6.627-5.373 12-12 12-6.627 0-12-5.373-12-12v-12.504c-14.438-4.976-24.811-18.681-24.811-34.81v-11.534c0-20.33 16.481-36.811 36.811-36.811 20.33.001 36.811 16.481 36.811 36.811z" fill="#ffcebf"/><path d="m338.496 266.028v13.101c0 15.637-11.14 29.599-25.366 34.582-14.226-4.983-24-18.389-24-34.026v-13.101c0-15.637 10.179-28.901 24.405-33.884 14.226 4.982 24.961 17.691 24.961 33.328z" fill="#ffdfcf"/><path d="m404 412h-100c-5.523 0-10-4.477-10-10 0-5.523 4.477-10 10-10h100c5.523 0 10 4.477 10 10 0 5.523-4.477 10-10 10z" fill="#0066ed"/><path d="m430.702 429.556c-2.374 2.675-4.805 5.298-7.293 7.866-.857.885 6.886 1.763 6.017 2.634-44.351 44.445-105.677 71.944-173.426 71.944-16.075 0-31.789-1.548-47-4.504v-72.94c0-2.761 2.239-5 5-5z" fill="#b97d72"/><path d="m429.426 440.056h-229.297c-2.761 0-5-2.239-5-5v-20c0-2.761 2.239-5 5-5h254.79c-7.691 10.676-16.221 20.708-25.493 30z" fill="#c49087"/></g></svg>