<svg viewBox="-11 0 512 512" xmlns="http://www.w3.org/2000/svg"><path d="m490 267c0 135.308594-109.691406 245-245 245s-245-109.691406-245-245 109.691406-245 245-245 245 109.691406 245 245zm0 0" fill="#c3ddf4"/><path d="m424.359375 241.527344h-3.5625v6.609375c0 10.730469-8.730469 19.460937-19.460937 19.460937h-11.691407c-4.585937 0-8.800781-1.605468-12.132812-4.273437v64.332031l-32.9375-55.625c-2.347657-5.667969-7.9375-9.683594-14.429688-9.683594h-55.347656v49.71875c0 1.308594-.730469 2.480469-1.902344 3.0625-.46875.230469-.992187.355469-1.515625.355469-.742187 0-1.480468-.246094-2.070312-.695313l-39.160156-29.757812-13.039063 11.746094c-.804687.726562-1.886719 1.125-3.042969 1.125-1.160156 0-2.242187-.398438-3.046875-1.125l-13.039062-11.746094-19.890625 15.113281h12.800781c2.203125 0 4 1.792969 4 4v8.539063c0 2.207031-1.796875 4-4 4h-63.554687c-2.207032 0-4-1.792969-4-4v-8.539063c0-2.207031 1.792968-4 4-4h19.6875v-8.359375c0-2.203125 1.792968-4 4-4h2.308593v-25.433594h-77.898437c-8.25 0-15 6.75-15 15v168.84375c0 8.25 6.75 15 15 15h20.210937c41.34375 31.847657 93.132813 50.804688 149.355469 50.804688 35.914062 0 70.027344-7.730469 100.761719-21.613281v-114.066407l9.324219 15.835938c4.65625 7.90625 13.25 12.820312 22.429687 12.820312h26.023437c14.351563 0 26.027344-11.675781 26.027344-26.027343v-132.214844c0-2.875-2.332031-5.207031-5.207031-5.207031zm0 0" fill="#293d7c"/><path d="m167.199219 287.789062c2.207031 0 4 1.792969 4 4v8.355469h8.542969l18.992187-14.433593-14.488281-13.054688c-1.835938-1.652344-3.382813-5.132812-3.382813-7.601562v-18.738282h-24.109375c-2.441406 0-4.421875 1.980469-4.421875 4.417969v37.050781h14.867188zm0 0" fill="#fff"/><path d="m271.378906 246.316406h-24.109375v18.738282c0 2.46875-1.550781 5.949218-3.386719 7.601562l-14.488281 13.054688 39.308594 29.875c.785156.59375 1.730469.898437 2.675781.898437.671875 0 1.34375-.148437 1.964844-.457031 1.503906-.75 2.453125-2.28125 2.453125-3.960938v-61.332031c0-2.4375-1.980469-4.417969-4.417969-4.417969zm0 0" fill="#fff"/><path d="m167.199219 287.789062c.117187 0 .226562.023438.335937.03125v-37.085937c0-2.4375 1.980469-4.417969 4.417969-4.417969h-15.199219c-2.441406 0-4.421875 1.980469-4.421875 4.417969v37.054687zm0 0" fill="#eef6ff"/><path d="m172.199219 300.148438v-8.359376c0-2.75-2.25-5-5-5h-16.179688c-2.75 0-5 2.25-5 5v8.359376zm0 0" fill="#994334"/><path d="m155.820312 300.148438v-8.359376c0-2.75 2.25-5 5-5h-9.800781c-2.75 0-5 2.25-5 5v8.359376zm0 0" fill="#87352a"/><path d="m214.066406 251.417969c-11.910156 0-23.535156-2.523438-34.203125-7.292969v20.929688c0 2.75 1.671875 6.507812 3.714844 8.347656l26.773437 24.121094c2.042969 1.839843 5.386719 1.839843 7.429688 0l26.769531-24.121094c2.042969-1.839844 3.714844-5.597656 3.714844-8.347656v-20.929688c-10.667969 4.769531-22.292969 7.292969-34.199219 7.292969zm0 0" fill="#c48357"/><path d="m195 265.054688v-15.84375c-5.25-1.222657-10.3125-2.9375-15.136719-5.097657v20.941407c0 2.75 1.671875 6.503906 3.714844 8.347656l26.773437 24.121094c2.042969 1.839843 5.386719 1.839843 7.429688 0l3.851562-3.472657-22.917968-20.648437c-2.042969-1.84375-3.714844-5.597656-3.714844-8.347656zm0 0" fill="#b27247"/><path d="m279.742188 18.796875h-29.277344c.988281 2.847656 1.535156 5.898437 1.535156 9.070313v41.652343h42.390625c2.046875 0 3.714844 1.667969 3.714844 3.714844v50.117187h7.457031c1.441406 0 2.835938.191407 4.179688.519532v-75.074219c0-16.5-13.5-30-30-30zm0 0" fill="#87352a"/><path d="m122.570312 123.351562h7.453126v-50.117187c0-2.046875 1.667968-3.714844 3.71875-3.714844h119.335937v-41.652343c0-15.328126-12.539063-27.867188-27.867187-27.867188h-97.53125c-5.109376 0-9.289063 4.179688-9.289063 9.289062v114.582032c1.339844-.324219 2.738281-.519532 4.179687-.519532zm0 0" fill="#994334"/><path d="m122.570312 123.351562h7.453126v-50.117187c0-2.046875 1.667968-3.714844 3.71875-3.714844h.257812v-60.230469c0-5.109374 4.179688-9.289062 9.289062-9.289062h-15.609374c-5.109376 0-9.289063 4.179688-9.289063 9.289062v114.582032c1.339844-.324219 2.738281-.519532 4.179687-.519532zm0 0" fill="#87352a"/><path d="m130.023438 167.378906v-45.027344h-7.453126c-10.332031 0-18.707031 8.375-18.707031 18.707032v16.265625c0 10.332031 8.375 18.707031 18.707031 18.707031h7.898438c-.292969-2.84375-.445312-5.730469-.445312-8.652344zm0 0" fill="#b27247"/><path d="m305.558594 122.351562h-7.453125v45.027344c0 2.921875-.152344 5.808594-.445313 8.652344h7.898438c10.332031 0 18.707031-8.375 18.707031-18.707031v-16.269531c0-10.328126-8.375-18.703126-18.707031-18.703126zm0 0" fill="#c48357"/><path d="m214.066406 252.417969c-46.894531 0-85.042968-38.148438-85.042968-85.039063v-94.144531c0-2.601563 2.113281-4.714844 4.71875-4.714844h160.648437c2.601563 0 4.714844 2.109375 4.714844 4.714844v94.144531c0 46.890625-38.148438 85.039063-85.039063 85.039063zm0 0" fill="#dd9f68"/><path d="m144.921875 167.378906v-94.144531c0-2.601563 2.109375-4.714844 4.714844-4.714844h-15.894531c-2.605469 0-4.71875 2.109375-4.71875 4.714844v94.144531c0 46.890625 38.148437 85.039063 85.042968 85.039063 2.679688 0 5.328125-.140625 7.945313-.382813-43.175781-4.023437-77.089844-40.445312-77.089844-84.65625zm0 0" fill="#c48357"/><path d="m181.152344 144.46875c0 6.496094-5.265625 11.757812-11.753906 11.757812-6.492188 0-11.753907-5.261718-11.753907-11.757812v-11.753906c0-6.492188 5.261719-11.753906 11.753907-11.753906 6.488281 0 11.753906 5.261718 11.753906 11.753906zm0 0" fill="#561515"/><path d="m270.484375 144.46875c0 6.496094-5.261719 11.757812-11.753906 11.757812-6.492188 0-11.753907-5.261718-11.753907-11.757812v-11.753906c0-6.492188 5.261719-11.753906 11.753907-11.753906 6.492187 0 11.753906 5.261718 11.753906 11.753906zm0 0" fill="#561515"/><path d="m214.066406 217.765625c-11.152344 0-22.304687-4.246094-30.796875-12.734375-2.925781-2.929688-2.925781-7.675781 0-10.605469 2.929688-2.929687 7.675781-2.929687 10.609375 0 11.128906 11.128907 29.242188 11.128907 40.375 0 2.925782-2.929687 7.675782-2.929687 10.605469 0 2.929687 2.929688 2.925781 7.679688 0 10.605469-8.492187 8.488281-19.640625 12.734375-30.792969 12.734375zm0 0" fill="#b27247"/><path d="m226.746094 180.246094h-16.96875c-5.789063 0-10.5-4.707032-10.5-10.5v-38.449219c0-4.144531 3.359375-7.5 7.5-7.5s7.5 3.355469 7.5 7.5v33.949219h12.46875c4.140625 0 7.5 3.359375 7.5 7.5 0 4.144531-3.359375 7.5-7.5 7.5zm0 0" fill="#b27247"/><path d="m179.171875 109.972656h-20.746094c-4.144531 0-7.5-3.359375-7.5-7.5 0-4.144531 3.355469-7.5 7.5-7.5h20.746094c4.140625 0 7.5 3.355469 7.5 7.5 0 4.140625-3.359375 7.5-7.5 7.5zm0 0" fill="#87352a"/><path d="m268.761719 109.972656h-20.746094c-4.140625 0-7.5-3.359375-7.5-7.5 0-4.144531 3.359375-7.5 7.5-7.5h20.746094c4.144531 0 7.5 3.355469 7.5 7.5 0 4.140625-3.355469 7.5-7.5 7.5zm0 0" fill="#87352a"/><path d="m173.421875 412.058594c0-2.207032 1.792969-4 4-4h5.183594l21.433593-21.433594c1.691407-1.691406 3.953126-2.625 6.363282-2.625 2.414062 0 4.671875.933594 6.363281 2.625 3.542969 3.542969 3.542969 9.253906.035156 12.761719l-8.671875 8.671875h19.46875v-97.734375c0-2.75-2.25-5-5-5h-27.707031v7.359375c0 2.207031-1.796875 4-4 4h-63.554687c-2.207032 0-4-1.792969-4-4v-7.359375h-27.710938c-2.75 0-5 2.25-5 5v102.984375h82.796875zm0 0" fill="#69cdff"/><path d="m177.421875 464.359375c-1.917969 0-3.523437-1.359375-3.910156-3.164063h-82.886719v22.449219c0 2.75 2.25 5 5 5h126.972656c2.75 0 5-2.25 5-5v-19.285156zm0 0" fill="#69cdff"/><path d="m106 413.304688v-102.980469c0-2.75 2.25-5 5-5h-15.375c-2.75 0-5 2.25-5 5v102.980469zm0 0" fill="#3eb7ff"/><path d="m106 483.644531v-22.449219h-15.375v22.449219c0 2.75 2.25 5 5 5h15.375c-2.75 0-5-2.25-5-5zm0 0" fill="#3eb7ff"/><path d="m195.890625 312.683594c0 2.75-2.25 5-5 5h-63.554687c-2.75 0-5-2.25-5-5v-8.535156c0-2.75 2.25-5 5-5h63.554687c2.75 0 5 2.25 5 5zm0 0" fill="#a5683f"/><path d="m137.445312 312.683594v-8.535156c0-2.75 2.25-5 5-5h-15.109374c-2.75 0-5 2.25-5 5v8.535156c0 2.75 2.25 5 5 5h15.109374c-2.75 0-5-2.25-5-5zm0 0" fill="#8e5935"/><path d="m401.339844 193.597656c1.503906 0 2.964844.1875 4.375.515625v-168.085937c0-4.144532-3.359375-7.5-7.5-7.5s-7.5 3.355468-7.5 7.5v167.570312zm0 0" fill="#a5683f"/><path d="m401.339844 267.597656h-10.625v10.367188c0 4.144531 3.359375 7.5 7.5 7.5s7.5-3.355469 7.5-7.5v-10.882813c-1.410156.324219-2.871094.515625-4.375.515625zm0 0" fill="#a5683f"/><path d="m389.644531 268.597656c-11.300781 0-20.460937-9.160156-20.460937-20.460937v-35.078125c0-11.296875 9.160156-20.460938 20.460937-20.460938h11.695313c11.300781 0 20.460937 9.164063 20.460937 20.460938v35.078125c0 11.300781-9.160156 20.460937-20.460937 20.460937zm0 0" fill="#dd9f68"/><path d="m384.386719 248.136719v-35.078125c0-10.707032 8.226562-19.480469 18.707031-20.371094-.582031-.050781-1.164062-.089844-1.753906-.089844h-11.691406c-11.300782 0-20.460938 9.164063-20.460938 20.460938v35.078125c0 11.300781 9.160156 20.460937 20.460938 20.460937h11.691406c.589844 0 1.175781-.039062 1.753906-.089844-10.480469-.890624-18.707031-9.664062-18.707031-20.371093zm0 0" fill="#c48357"/><path d="m229.886719 407.058594h-19.34375l6.964843-6.964844c3.890626-3.890625 3.890626-10.25 0-14.140625l-.035156-.035156c-3.886718-3.890625-10.25-3.890625-14.140625 0l-21.140625 21.140625h-4.769531c-2.75 0-5 2.25-5 5v48.300781c0 2.75 2.25 5 5 5h52.464844c2.75 0 5-2.25 5-5v-48.300781c0-2.75-2.25-5-5-5zm0 0" fill="#dd9f68"/><path d="m187.535156 460.359375v-48.300781c0-2.75 2.25-5 5-5h4.769532l20.628906-20.632813c-.136719-.160156-.273438-.320312-.425782-.476562l-.035156-.03125c-3.886718-3.890625-10.253906-3.890625-14.140625 0l-21.140625 21.140625h-4.769531c-2.75 0-5 2.25-5 5v48.300781c0 2.75 2.25 5 5 5h15.113281c-2.75 0-5-2.25-5-5zm0 0" fill="#c48357"/><path d="m275 352.539062c0-2.75 2.25-5 5-5h30c2.75 0 5 2.25 5 5v20.5625c0 2.75-1.789062 6.367188-3.972656 8.035157l-12.054688 9.210937c-2.1875 1.671875-5.761718 1.671875-7.945312 0l-12.054688-9.210937c-2.1875-1.667969-3.972656-5.285157-3.972656-8.035157zm0 0" fill="#ffd00d"/><path d="m301.726562 386.046875-12.054687-9.210937c-2.183594-1.667969-3.972656-5.285157-3.972656-8.035157v-20.5625c0-.238281.039062-.46875.070312-.699219h-5.769531c-2.75 0-5 2.25-5 5v20.5625c0 2.75 1.789062 6.367188 3.972656 8.035157l12.054688 9.210937c2.1875 1.671875 5.761718 1.671875 7.945312 0l4.472656-3.414062c-.625-.207032-1.210937-.5-1.71875-.886719zm0 0" fill="#edc10a"/><path d="m75.988281 446.195312v-168.84375c0-8.25 6.75-15 15-15h-15.554687c-8.25 0-15 6.75-15 15v168.84375c0 8.25 6.75 15 15 15h15.554687c-8.25 0-15-6.75-15-15zm0 0" fill="#1a2b63"/></svg>